<svg width="172" height="172" viewBox="0 0 172 172" fill="none" xmlns="http://www.w3.org/2000/svg">
<g clip-path="url(#clip0_9_668)">
<path d="M59.6837 170.106C63.1636 170.398 66.6528 170.624 70.1232 171C74.7599 171.509 76.97 169.918 77.9481 165.192C77.9481 164.223 77.9481 163.253 77.9481 162.284C76.9512 158.537 78.7382 155.28 79.7915 151.91C80.3464 150.141 81.8324 149.943 83.1867 150.574C85.1899 151.506 89.0648 150.15 89.0648 152.673C89.0648 155.487 90.6448 157.652 90.6354 160.26L90.8141 160.429C91.1245 160.373 91.5383 160.166 91.7264 160.288C98.7613 164.919 105.57 160.185 112.427 159.639C116.979 159.281 121.484 159.271 125.979 159.535C132.111 159.893 138.224 159.347 144.197 158.509C153.395 157.219 160.11 151.571 164.662 143.655C165.715 141.829 167.004 140.097 167.916 138.092C173.625 125.516 171.32 112.845 168.452 100.288C167.474 95.9957 167.145 91.2514 164.107 87.5803C159.216 78.6001 151.805 72.3214 142.598 68.2831C134.933 64.9226 127.315 61.3174 119.02 59.5853C112.662 58.2581 108.636 53.2785 108.571 46.8869C108.552 44.7312 110.169 43.5546 111.336 42.1802C116.537 36.0428 116.941 32.334 112.953 25.5282C110.743 24.4645 108.533 23.4008 106.332 22.3466C104.432 21.6123 100.755 23.5985 101.338 19.0802C101.903 14.7312 99.7018 11.9449 95.3003 11.7284C92.4882 11.5872 89.6197 11.4084 86.864 11.8131C80.6191 12.7262 76.1424 9.05507 71.2518 6.34405C70.7722 6.1652 70.3019 5.99576 69.8223 5.82633C68.609 5.92987 67.4804 5.74161 66.6152 4.76263C65.2233 4.44258 63.8313 4.12253 62.4394 3.80248C60.1822 4.04722 58.2354 3.32241 56.5143 1.87277C54.6803 1.59978 52.8463 1.31739 51.0124 1.0444C50.5892 0.969097 50.1565 0.884378 49.7333 0.809072C41.7485 0.780832 33.7731 -0.866484 25.7883 0.639633C25.0641 2.97412 23.6064 2.33402 22.1204 1.53389C20.5592 2.15516 18.9415 2.43756 17.258 2.23988C15.7909 4.19784 13.1575 4.32021 11.4552 5.88281C10.2513 6.99357 8.62428 7.92548 8.98167 10.0058C10.825 9.68575 12.8095 9.71399 14.4836 8.99859C26.7758 3.68011 39.4161 4.62143 52.2444 6.25934C67.33 8.18905 80.9859 12.7356 91.3878 24.5869C93.2782 26.7425 96.1091 26.639 98.8553 26.3566C101.442 26.0836 104.197 25.387 106.276 27.8533C111.608 28.4746 113.283 31.9104 110.264 36.1464C108.326 38.8668 105.439 40.3541 102.533 41.7755C101.931 45.5219 103.332 48.8072 104.856 52.0736C105.448 53.3443 106.784 54.9917 106.408 55.8577C104.461 60.3195 108.053 60.3572 110.386 61.082C119.857 63.9907 129.525 66.184 138.3 71.2012C148.354 76.9433 157.617 83.4102 162.282 94.4802C166.364 104.157 167.333 114.37 166.778 124.857C165.828 142.864 155.577 153.765 137.961 155.967C129.026 157.088 120.167 155.224 111.27 156.391C107.546 156.881 104.16 158.763 100.313 158.631C97.0778 158.518 95.3097 156.721 94.9429 153.821C94.5291 150.48 97.4446 150.79 99.4761 150.508C105.975 149.604 112.54 149.049 118.991 147.891C121.465 147.448 126.13 147.524 125.659 144.747C125.246 142.281 121.032 144.295 118.587 144.709C110.781 146.027 104.827 141.782 103.934 134.025C101.649 114.144 122.405 95.045 141.789 99.1774C142.4 99.3092 143.021 99.4315 143.642 99.4221C144.394 99.4127 145.306 99.4598 145.56 98.5091C145.805 97.5866 145.146 97.0218 144.403 96.7394C141.789 95.7604 139.259 94.6214 136.343 94.5178C126.214 94.1601 118.474 98.9326 111.213 105.352C100.482 114.841 96.2784 132.707 103.389 143.1C105.119 145.632 103.605 146.545 101.338 146.695C97.1248 146.978 92.902 147.204 88.6792 147.223C82.4719 147.241 82.4907 147.157 84.0519 141.104C84.4093 139.739 84.889 138.129 82.9328 137.63C81.0518 137.15 80.7508 138.553 80.2994 140.04C79.6222 142.262 79.1896 144.559 77.8353 146.592C75.0044 150.828 73.4338 155.478 73.3115 160.655C73.1422 167.809 72.5027 168.242 65.6653 166.699C65.054 166.557 64.4709 166.331 63.8595 166.171C58.2918 164.759 57.8968 163.376 60.8876 158.453C64.8376 151.939 67.7908 145.086 65.9286 137.15C65.5618 135.597 65.1668 133.78 63.2388 133.809C61.0663 133.837 61.8939 135.851 61.687 137.094C61.1697 140.229 59.9095 141.443 57.041 139.099C56.439 138.609 55.7149 138.271 55.0377 137.885C37.3188 127.831 29.7102 111.801 30.0582 92.2587C30.1804 85.6035 30.9046 79.0331 29.7384 72.4156C29.4656 70.8718 29.9077 69.5539 31.9109 69.6198C32.795 69.6481 33.98 70.2129 34.3092 68.9891C34.6572 67.7184 33.3969 67.05 32.5975 66.4287C26.9545 62.0233 21.067 57.9192 15.6028 53.3067C1.52354 41.4272 1.42009 38.0008 5.0504 24.4457C5.84982 21.4617 6.91258 17.4987 11.6809 20.4921C12.6026 21.0758 13.5431 21.104 13.9757 19.965C14.3989 18.8354 14.0133 17.2446 12.9129 17.2634C8.01295 17.3575 8.81238 13.5075 8.05998 10.7024C3.25406 12.2085 2.68036 16.3127 2.52046 20.351C2.38879 23.6644 1.71164 26.6955 0.742935 29.8677C-1.10043 35.8828 0.592453 41.606 4.26979 46.5856C8.94405 52.9113 14.9632 57.8627 21.3868 62.2963C23.5687 63.8024 24.3682 65.751 25.2428 68.2643C29.729 81.2075 26.7382 94.5273 27.7539 107.621C30.9328 112.968 30.519 119.755 34.629 124.734C35.024 125.214 35.2027 125.864 35.6071 126.325C38.09 129.187 41.4664 131.653 39.7452 136.275C37.4222 142.535 36.6604 149.661 30.171 153.624C28.0549 160.608 32.3436 165.663 40.6387 165.635C42.4256 165.635 44.2596 165.701 46.15 165.174C48.7928 164.439 49.7427 163.253 49.4794 160.58C48.9339 155.148 51.3227 150.63 54.1254 146.215C55.4891 144.069 57.3043 144.22 58.969 145.02C60.5208 145.764 61.1321 147.138 60.7465 149.293C60.0693 153.172 58.0755 156.344 55.8935 159.253C53.5141 162.406 53.0344 164.637 56.6836 166.906C57.2479 167.254 57.4266 168.223 57.7839 168.901C58.6116 169.005 59.364 169.25 59.6837 170.144V170.106ZM40.4318 160.787C37.4034 161.135 35.6541 160.476 34.4221 158.933C33.1806 157.379 34.5255 156.024 35.1556 154.65C37.4787 149.604 40.7046 144.963 41.9272 139.419C42.1529 138.402 42.5761 136.915 43.8458 137.15C46.3381 137.612 48.3602 139.25 50.1659 140.944C51.8588 142.525 50.4199 144.126 49.6581 145.585C48.0592 148.635 46.3005 151.694 46.1312 155.158C45.9055 159.676 43.432 161.079 40.4224 160.787H40.4318ZM90.9646 14.7595C92.902 15.1548 95.7611 13.8841 95.9398 17.3199C96.0433 19.3061 94.4538 20.671 92.7045 20.558C90.0993 20.3886 87.8986 18.2047 87.4001 16.1432C86.9016 14.0629 89.7043 15.249 90.9646 14.7595Z" fill="#7E3E0F"/>
<path d="M63.9066 23.9659C62.7968 23.9094 61.7623 23.7588 61.2168 24.7096C60.6243 25.7356 61.5648 26.3663 62.0538 27.1288C65.7406 32.8708 67.8943 33.8969 71.3835 31.6471C73.8852 30.0375 74.2238 28.4278 71.5998 26.724C69.211 25.1802 66.54 24.3519 63.9066 23.9659Z" fill="#7E3E0F"/>
<path d="M100.266 39.1778C102.231 37.8882 103.896 35.9961 102.429 33.8499C100.539 31.0824 101.15 30.1599 104.094 29.5293C104.874 29.3598 105.495 28.4185 106.191 27.8349C104.968 27.7219 103.746 27.5148 102.523 27.5242C99.9931 27.5431 96.7389 30.367 96.9929 30.6683C99.0996 33.2192 95.1683 38.0765 100.266 39.1778Z" fill="#7E3E0F"/>
</g>
<defs>
<clipPath id="clip0_9_668">
<rect width="171.433" height="171.095" fill="white" transform="matrix(-1 0 0 1 171.433 0)"/>
</clipPath>
</defs>
</svg>
