<svg width="37" height="41" viewBox="0 0 37 41" fill="none" xmlns="http://www.w3.org/2000/svg">
<path d="M3.7 11.1818V37.2727H29.6V41H3.7C1.665 41 0 39.3227 0 37.2727V11.1818H3.7ZM33.3 3.72727C35.335 3.72727 37 5.40455 37 7.45455V29.8182C37 31.8682 35.335 33.5455 33.3 33.5455H11.1C9.065 33.5455 7.4 31.8682 7.4 29.8182V7.45455C7.4 5.40455 9.065 3.72727 11.1 3.72727H16.983C17.76 1.56545 19.795 0 22.2 0C24.605 0 26.64 1.56545 27.417 3.72727H33.3ZM22.2 3.72727C21.1825 3.72727 20.35 4.56591 20.35 5.59091C20.35 6.61591 21.1825 7.45455 22.2 7.45455C23.2175 7.45455 24.05 6.61591 24.05 5.59091C24.05 4.56591 23.2175 3.72727 22.2 3.72727ZM14.8 11.1818V7.45455H11.1V29.8182H33.3V7.45455H29.6V11.1818H14.8Z" fill="#5B9FDE"/>
<path d="M3.7 11.1818V37.2727H29.6V41H3.7C1.665 41 0 39.3227 0 37.2727V11.1818H3.7ZM33.3 3.72727C35.335 3.72727 37 5.40455 37 7.45455V29.8182C37 31.8682 35.335 33.5455 33.3 33.5455H11.1C9.065 33.5455 7.4 31.8682 7.4 29.8182V7.45455C7.4 5.40455 9.065 3.72727 11.1 3.72727H16.983C17.76 1.56545 19.795 0 22.2 0C24.605 0 26.64 1.56545 27.417 3.72727H33.3ZM22.2 3.72727C21.1825 3.72727 20.35 4.56591 20.35 5.59091C20.35 6.61591 21.1825 7.45455 22.2 7.45455C23.2175 7.45455 24.05 6.61591 24.05 5.59091C24.05 4.56591 23.2175 3.72727 22.2 3.72727ZM14.8 11.1818V7.45455H11.1V29.8182H33.3V7.45455H29.6V11.1818H14.8Z" fill="url(#paint0_linear)"/>
<defs>
<linearGradient id="paint0_linear" x1="18.5" y1="0" x2="18.5" y2="41" gradientUnits="userSpaceOnUse">
<stop stop-color="#2E94F3"/>
<stop offset="1" stop-color="#2E74B4" stop-opacity="0"/>
</linearGradient>
</defs>
</svg>
