<svg width="704" height="1024" viewBox="0 0 704 1024" fill="none" xmlns="http://www.w3.org/2000/svg">
<rect x="0.468384" y="-1.6434" width="623" height="1030" fill="#2F54B3"/>
<path d="M553.083 566.47L622.787 489.83L622.561 480L623 630L553.083 566.47Z" fill="#5B9FDE"/>
<path d="M553.083 566.47L622.787 489.83L622.561 480L623 630L553.083 566.47Z" fill="url(#paint0_linear)"/>
<path d="M547.315 83.1036L622.354 4.5802L622.081 -6L623 155.286L547.315 83.1036Z" fill="#5B9FDE"/>
<path d="M547.315 83.1036L622.354 4.5802L622.081 -6L623 155.286L547.315 83.1036Z" fill="url(#paint1_linear)"/>
<path d="M-1.89998 940.421L321.599 975.869L623.468 938.021L623.465 1028.44L458.168 1028.45L321.597 1028.46L-3.98882 1028.47L-1.89998 940.421Z" fill="#5B9FDE"/>
<path d="M-1.89998 940.421L321.599 975.869L623.468 938.021L623.465 1028.44L458.168 1028.45L321.597 1028.46L-3.98882 1028.47L-1.89998 940.421Z" fill="url(#paint2_linear)"/>
<path d="M86.72 703V647H111.76C117.413 647 121.947 648.627 125.36 651.88C128.773 655.134 130.48 659.32 130.48 664.44C130.48 669.4 128.773 673.507 125.36 676.76C121.947 680.014 117.413 681.64 111.76 681.64H96.32V703H86.72ZM110.32 655.08H96.32V673.8H110.24C113.6 673.8 116.187 672.947 118 671.24C119.867 669.48 120.8 667.187 120.8 664.36C120.8 661.64 119.893 659.427 118.08 657.72C116.267 655.96 113.68 655.08 110.32 655.08ZM135.869 683C135.869 680.067 136.376 677.347 137.389 674.84C138.456 672.28 139.869 670.094 141.629 668.28C143.443 666.414 145.576 664.947 148.029 663.88C150.536 662.814 153.203 662.28 156.029 662.28C158.909 662.28 161.576 662.814 164.029 663.88C166.483 664.947 168.616 666.414 170.429 668.28C172.243 670.094 173.656 672.28 174.669 674.84C175.683 677.347 176.189 680.067 176.189 683C176.189 685.934 175.656 688.68 174.589 691.24C173.576 693.8 172.163 696.014 170.349 697.88C168.589 699.694 166.456 701.134 163.949 702.2C161.496 703.267 158.856 703.8 156.029 703.8C153.203 703.8 150.536 703.267 148.029 702.2C145.576 701.134 143.443 699.667 141.629 697.8C139.869 695.934 138.456 693.747 137.389 691.24C136.376 688.68 135.869 685.934 135.869 683ZM156.029 695.96C159.283 695.96 161.949 694.734 164.029 692.28C166.163 689.827 167.229 686.76 167.229 683.08C167.229 679.294 166.163 676.174 164.029 673.72C161.896 671.267 159.229 670.04 156.029 670.04C152.776 670.04 150.083 671.267 147.949 673.72C145.869 676.174 144.829 679.294 144.829 683.08C144.829 686.814 145.869 689.907 147.949 692.36C150.083 694.76 152.776 695.96 156.029 695.96ZM186.642 703V647H211.682C217.335 647 221.869 648.627 225.282 651.88C228.695 655.134 230.402 659.32 230.402 664.44C230.402 669.4 228.695 673.507 225.282 676.76C221.869 680.014 217.335 681.64 211.682 681.64H196.242V703H186.642ZM210.242 655.08H196.242V673.8H210.162C213.522 673.8 216.109 672.947 217.922 671.24C219.789 669.48 220.722 667.187 220.722 664.36C220.722 661.64 219.815 659.427 218.002 657.72C216.189 655.96 213.602 655.08 210.242 655.08ZM86.72 809V753H107.2C111.2 753 114.933 753.72 118.4 755.16C121.867 756.6 124.827 758.574 127.28 761.08C129.787 763.587 131.733 766.574 133.12 770.04C134.56 773.454 135.28 777.134 135.28 781.08C135.28 785.027 134.56 788.707 133.12 792.12C131.733 795.534 129.787 798.494 127.28 801C124.827 803.454 121.867 805.4 118.4 806.84C114.933 808.28 111.2 809 107.2 809H86.72ZM107.44 761.32H96.32V800.68H107.44C109.947 800.68 112.293 800.174 114.48 799.16C116.667 798.147 118.56 796.787 120.16 795.08C121.76 793.32 123.013 791.24 123.92 788.84C124.88 786.44 125.36 783.854 125.36 781.08C125.36 778.307 124.88 775.72 123.92 773.32C123.013 770.867 121.76 768.76 120.16 767C118.56 765.24 116.667 763.854 114.48 762.84C112.293 761.827 109.947 761.32 107.44 761.32ZM143.135 789C143.135 786.067 143.642 783.347 144.655 780.84C145.722 778.28 147.135 776.094 148.895 774.28C150.708 772.414 152.842 770.947 155.295 769.88C157.802 768.814 160.468 768.28 163.295 768.28C166.175 768.28 168.842 768.814 171.295 769.88C173.748 770.947 175.882 772.414 177.695 774.28C179.508 776.094 180.922 778.28 181.935 780.84C182.948 783.347 183.455 786.067 183.455 789C183.455 791.934 182.922 794.68 181.855 797.24C180.842 799.8 179.428 802.014 177.615 803.88C175.855 805.694 173.722 807.134 171.215 808.2C168.762 809.267 166.122 809.8 163.295 809.8C160.468 809.8 157.802 809.267 155.295 808.2C152.842 807.134 150.708 805.667 148.895 803.8C147.135 801.934 145.722 799.747 144.655 797.24C143.642 794.68 143.135 791.934 143.135 789ZM163.295 801.96C166.548 801.96 169.215 800.734 171.295 798.28C173.428 795.827 174.495 792.76 174.495 789.08C174.495 785.294 173.428 782.174 171.295 779.72C169.162 777.267 166.495 776.04 163.295 776.04C160.042 776.04 157.348 777.267 155.215 779.72C153.135 782.174 152.095 785.294 152.095 789.08C152.095 792.814 153.135 795.907 155.215 798.36C157.348 800.76 160.042 801.96 163.295 801.96ZM211.982 801.8C213.902 801.8 215.689 801.427 217.342 800.68C219.049 799.934 220.489 798.84 221.662 797.4L227.102 802.84C225.235 804.974 222.915 806.68 220.142 807.96C217.369 809.187 214.462 809.8 211.422 809.8C208.595 809.8 205.929 809.267 203.422 808.2C200.969 807.134 198.835 805.667 197.022 803.8C195.209 801.934 193.769 799.72 192.702 797.16C191.689 794.6 191.182 791.88 191.182 789C191.182 786.12 191.689 783.427 192.702 780.92C193.769 778.36 195.209 776.174 197.022 774.36C198.835 772.494 200.969 771.027 203.422 769.96C205.929 768.894 208.595 768.36 211.422 768.36C214.515 768.36 217.449 768.947 220.222 770.12C223.049 771.294 225.449 772.947 227.422 775.08L221.822 780.92C220.435 779.374 218.889 778.2 217.182 777.4C215.475 776.6 213.662 776.2 211.742 776.2C208.542 776.2 205.822 777.454 203.582 779.96C201.342 782.414 200.222 785.427 200.222 789C200.222 792.627 201.342 795.667 203.582 798.12C205.822 800.574 208.622 801.8 211.982 801.8ZM231.688 804.36L235.928 798.28C238.541 799.934 240.834 801.107 242.808 801.8C244.781 802.494 246.781 802.84 248.808 802.84C251.208 802.84 253.154 802.36 254.648 801.4C256.141 800.387 256.888 799.08 256.888 797.48C256.888 796.254 256.434 795.294 255.528 794.6C254.674 793.854 253.288 793.294 251.368 792.92L244.248 791.72C240.408 791.027 237.501 789.774 235.528 787.96C233.608 786.094 232.648 783.667 232.648 780.68C232.648 776.947 234.061 773.96 236.888 771.72C239.768 769.427 243.528 768.28 248.168 768.28C250.941 768.28 253.608 768.68 256.168 769.48C258.781 770.227 261.368 771.427 263.928 773.08L259.688 779C257.608 777.667 255.581 776.707 253.608 776.12C251.634 775.48 249.634 775.16 247.608 775.16C245.528 775.16 243.848 775.587 242.568 776.44C241.341 777.24 240.728 778.387 240.728 779.88C240.728 781.16 241.128 782.12 241.928 782.76C242.781 783.4 244.274 783.907 246.408 784.28L253.448 785.56C257.448 786.307 260.408 787.614 262.328 789.48C264.301 791.347 265.288 793.774 265.288 796.76C265.288 798.574 264.861 800.28 264.008 801.88C263.208 803.48 262.061 804.867 260.568 806.04C259.128 807.214 257.394 808.147 255.368 808.84C253.394 809.48 251.261 809.8 248.968 809.8C245.501 809.8 242.274 809.347 239.288 808.44C236.354 807.48 233.821 806.12 231.688 804.36Z" fill="#F0F0F7"/>
<rect x="281" y="796" width="13.441" height="12.7875" fill="#00ADE3"/>
<defs>
<linearGradient id="paint0_linear" x1="585.366" y1="521.328" x2="660.195" y2="588.673" gradientUnits="userSpaceOnUse">
<stop stop-color="#2E94F3"/>
<stop offset="1" stop-color="#2E74B4" stop-opacity="0"/>
</linearGradient>
<linearGradient id="paint1_linear" x1="582.041" y1="36.3652" x2="663.041" y2="112.921" gradientUnits="userSpaceOnUse">
<stop stop-color="#2E94F3"/>
<stop offset="1" stop-color="#2E74B4" stop-opacity="0"/>
</linearGradient>
<linearGradient id="paint2_linear" x1="309.518" y1="938.866" x2="309.973" y2="1030.01" gradientUnits="userSpaceOnUse">
<stop stop-color="#2E94F3"/>
<stop offset="1" stop-color="#2E74B4" stop-opacity="0"/>
</linearGradient>
</defs>
</svg>
