<?xml version="1.0" encoding="UTF-8"?>
<!DOCTYPE svg PUBLIC "-//W3C//DTD SVG 1.1//EN" "http://www.w3.org/Graphics/SVG/1.1/DTD/svg11.dtd">
<!-- Creator: CorelDRAW 2017 -->
<svg xmlns="http://www.w3.org/2000/svg" xml:space="preserve" width="100%" height="100%" version="1.1" style="shape-rendering:geometricPrecision; text-rendering:geometricPrecision; image-rendering:optimizeQuality; fill-rule:evenodd; clip-rule:evenodd"
viewBox="0 0 6561 1295"
 xmlns:xlink="http://www.w3.org/1999/xlink">
 <defs>
  <style type="text/css">
   <![CDATA[
    .fil0 {fill:#D89181;fill-rule:nonzero}
    .fil1 {fill:white;fill-rule:nonzero}
    .fil2 {fill:white;fill-rule:nonzero}
   ]]>
  </style>
 </defs>
 <g id="Capa_x0020_1">
  <metadata id="CorelCorpID_0Corel-Layer"/>
  <g id="_2008805449888">
   <path class="fil0" d="M10 821c-27,-87 5,-257 36,-343 15,-42 51,-130 86,-157 12,-10 53,-2 61,-15 11,-18 -29,-62 -20,-81 35,-80 218,-157 304,-167 51,-6 148,68 198,56 37,-9 77,-86 112,-101 43,-19 144,-12 188,5 47,18 142,83 152,132 6,30 -61,93 -41,117 30,34 138,-53 177,-30 47,27 64,150 76,203 13,58 39,181 20,238 -17,51 -130,110 -142,162 -8,38 61,142 61,142 0,0 -62,141 -96,177 -41,44 -203,127 -203,127 0,0 -216,-86 -284,-61 -20,7 -31,58 -51,66 -55,22 -180,-10 -233,-35 -53,-25 -103,-168 -157,-189 -90,-35 -216,-156 -243,-243l0 0z"/>
   <path class="fil1" d="M688 361c-7,0 -15,1 -22,2 -7,2 -14,4 -21,6 -7,3 -13,6 -19,10 -6,4 -12,9 -17,14 -5,5 -10,11 -14,17 -4,6 -8,13 -10,19 -3,7 -5,14 -6,21 -1,7 -2,14 -2,22 0,7 1,15 2,22 1,7 4,14 6,21 3,7 6,13 10,19 4,6 9,12 14,17l0 0c5,5 11,10 17,14 6,4 12,7 19,10 7,3 14,5 21,6 7,1 14,2 22,2 7,0 15,-1 22,-2 7,-1 14,-4 21,-6 7,-3 13,-6 19,-10 6,-4 12,-9 17,-14 5,-5 10,-11 14,-17 4,-6 8,-13 10,-19 3,-7 5,-14 6,-21 1,-7 2,-14 2,-22 0,-7 -1,-15 -2,-22 -1,-7 -4,-14 -6,-21 -3,-7 -6,-13 -10,-19 -4,-6 -9,-12 -14,-17 -5,-5 -11,-10 -17,-14 -6,-4 -13,-8 -19,-10 -7,-3 -14,-5 -21,-6 -7,-1 -14,-2 -22,-2l0 0zm-124 -13c8,-8 17,-15 26,-22 9,-6 20,-12 30,-16 11,-4 22,-8 33,-10 11,-2 23,-3 34,-3 12,0 23,1 34,3 11,2 22,6 33,10 11,4 21,10 30,16 10,6 19,14 27,22 8,8 16,17 22,27 6,10 12,20 16,30 4,10 8,22 10,33 2,11 3,23 3,34 0,12 -1,23 -3,34 -2,11 -6,22 -10,33 -4,11 -10,21 -16,30 -6,10 -14,19 -22,27 -8,8 -17,16 -27,22 -10,6 -20,12 -30,16 -11,4 -22,8 -33,10 -11,2 -23,3 -34,3 -12,0 -23,-1 -34,-3 -11,-2 -22,-6 -33,-10 -11,-4 -21,-10 -30,-16 -10,-6 -19,-14 -27,-22 -8,-8 -16,-17 -22,-27 -6,-10 -12,-20 -16,-30 -4,-11 -8,-22 -10,-33 -2,-11 -3,-23 -3,-34 0,-12 1,-23 3,-34 2,-11 6,-22 10,-33 4,-11 10,-21 16,-30 6,-10 14,-19 22,-27l1 0 0 0z"/>
   <path class="fil1" d="M896 833c-2,-4 -4,-8 -7,-12 -6,-9 -13,-17 -20,-24 -7,-7 -16,-14 -24,-19 -9,-5 -18,-10 -27,-13 -9,-3 -18,-6 -27,-7 -7,5 -15,10 -22,14 -9,4 -18,8 -27,11 -9,3 -19,5 -28,7 -10,2 -20,2 -29,2 -10,0 -20,-1 -29,-2 -10,-2 -19,-4 -28,-7 -9,-3 -18,-7 -27,-11 -8,-4 -15,-8 -22,-14 -9,1 -19,4 -28,7 -10,4 -19,8 -28,14 -9,5 -17,12 -24,19 -7,7 -14,15 -20,24l-3 5 -3 5 -1 3c5,8 10,15 16,22l6 7 6 7 14 13 6 5c4,4 9,8 13,11 11,8 23,16 34,22 12,6 24,11 37,16 13,4 26,8 40,10 13,2 27,3 41,3 14,0 28,-1 41,-3 13,-2 26,-5 40,-10 13,-4 25,-10 37,-16 12,-6 23,-13 34,-22 5,-3 9,-7 13,-10l6 -6 13 -13 7 -8 6 -7 10 -14c2,-3 4,-6 6,-9l0 0zm55 -32c1,3 3,5 4,8 1,3 3,6 4,9 2,4 3,7 3,11 1,4 0,8 0,12 -1,4 -1,7 -3,10 -1,3 -3,6 -5,9l-4 6 -4 6 -5 7 -5 6c-2,3 -5,7 -8,10l-8 9 -8 8c-5,5 -10,11 -16,16l-8 7 -13 11 0 0 -3 3c-14,10 -28,19 -43,27 -15,8 -31,15 -47,20 -16,5 -33,9 -49,12 -17,3 -34,4 -51,4 -17,0 -34,-1 -51,-4 -17,-3 -33,-7 -49,-12 -16,-5 -32,-12 -47,-20 -15,-8 -29,-17 -43,-27l-1 -1c-5,-4 -11,-9 -15,-13l-8 -7 -16 -15 -8 -9 -8 -10 -8 -10c-5,-7 -10,-13 -14,-21 -2,-3 -4,-6 -5,-9 -1,-3 -3,-6 -3,-9 -1,-3 -1,-6 -1,-10 0,-3 0,-7 1,-10 1,-3 2,-6 3,-10l4 -8 4 -8 5 -8 5 -7c8,-12 18,-24 28,-34 11,-10 22,-20 35,-27 12,-8 26,-14 39,-19 14,-5 28,-9 42,-11 4,-1 7,-1 11,-1 4,0 8,1 12,2 4,1 7,2 11,4 3,2 7,4 10,6 5,4 10,7 16,10 6,3 11,5 18,7 6,2 12,3 19,4 6,1 13,1 19,1 7,0 13,0 19,-1 6,-1 12,-2 19,-4 6,-2 12,-4 18,-7 6,-3 11,-6 16,-10 3,-2 6,-4 9,-6 3,-2 7,-3 10,-4 3,-1 7,-1 10,-2 3,0 7,0 10,0l1 0c15,2 29,6 43,11 14,5 27,12 40,20 13,8 24,17 35,27 11,10 20,22 29,34l4 6 0 0c2,3 4,6 6,9l0 0z"/>
   <path class="fil2" d="M2090 409c40,0 77,10 109,31 32,21 58,49 77,85 19,36 28,78 28,126 0,48 -9,89 -28,126 -19,36 -44,65 -76,85 -32,21 -67,31 -107,31 -23,0 -45,-4 -65,-11 -21,-7 -38,-17 -54,-29 -16,-12 -27,-23 -36,-35 -9,-12 -13,-22 -13,-30l27 -11 0 229c0,15 -5,28 -15,38 -10,10 -23,15 -38,15 -15,0 -28,-5 -38,-15 -10,-10 -15,-23 -15,-39l0 -533c0,-15 5,-28 15,-38 10,-10 22,-15 38,-15 15,0 28,5 38,15 10,10 15,23 15,38l0 43 -15 -8c0,-8 4,-17 12,-27 8,-11 19,-22 33,-32 14,-11 30,-20 48,-27 18,-7 38,-10 58,-10l0 0zm-13 96c-26,0 -48,6 -67,19 -19,13 -34,30 -45,52 -11,22 -16,47 -16,74 0,27 5,52 16,74 11,23 26,40 45,53 19,13 41,19 67,19 25,0 48,-6 67,-19 19,-13 34,-30 44,-53 11,-22 16,-47 16,-74 0,-28 -5,-53 -16,-74 -11,-22 -26,-39 -44,-52 -19,-13 -41,-19 -67,-19zm762 146c0,48 -11,89 -32,126 -21,36 -50,65 -85,85 -36,21 -75,31 -120,31 -44,0 -84,-10 -120,-31 -36,-20 -64,-49 -85,-85 -21,-36 -32,-78 -32,-126 0,-48 11,-90 32,-126 21,-36 50,-65 85,-85 36,-21 75,-31 120,-31 44,0 84,10 120,31 36,21 64,49 85,85 21,36 32,78 32,126zm-105 0c0,-30 -6,-55 -18,-77 -12,-22 -28,-39 -48,-51 -20,-12 -42,-18 -67,-18 -24,0 -47,6 -67,18 -20,12 -36,29 -48,51 -12,22 -18,47 -18,77 0,29 6,54 18,76 12,22 28,39 48,51 20,12 42,18 67,18 24,0 47,-6 67,-18 20,-12 36,-29 48,-51 12,-22 18,-47 18,-76zm433 -242c40,0 77,10 109,31 32,21 58,49 77,85 19,36 28,78 28,126 0,48 -9,89 -28,126 -19,36 -44,65 -76,85 -32,21 -67,31 -107,31 -23,0 -45,-4 -65,-11 -21,-7 -38,-17 -54,-29 -16,-12 -27,-23 -36,-35 -9,-12 -13,-22 -13,-30l27 -11 0 229c0,15 -5,28 -15,38 -10,10 -23,15 -38,15 -15,0 -28,-5 -38,-15 -10,-10 -15,-23 -15,-39l0 -533c0,-15 5,-28 15,-38 10,-10 22,-15 38,-15 15,0 28,5 38,15 10,10 15,23 15,38l0 43 -15 -8c0,-8 4,-17 12,-27 8,-11 19,-22 33,-32 14,-11 30,-20 48,-27 18,-7 38,-10 58,-10l0 0zm-13 96c-26,0 -48,6 -67,19 -19,13 -34,30 -45,52 -11,22 -16,47 -16,74 0,27 5,52 16,74 11,23 26,40 45,53 19,13 41,19 67,19 25,0 48,-6 67,-19 19,-13 34,-30 44,-53 11,-22 16,-47 16,-74 0,-28 -5,-53 -16,-74 -11,-22 -26,-39 -44,-52 -19,-13 -41,-19 -67,-19z"/>
   <path class="fil0" d="M3566 830c0,15 -5,28 -15,38 -10,10 -23,15 -38,15 -15,0 -27,-5 -37,-15 -10,-10 -15,-23 -15,-38l0 -359c0,-15 5,-28 15,-38 10,-10 22,-15 37,-15 15,0 28,5 38,15 10,10 15,23 15,38l0 359zm-53 -469c-20,0 -34,-3 -42,-10 -8,-6 -12,-18 -12,-34l0 -17c0,-17 4,-28 14,-34 9,-6 23,-9 41,-9 21,0 35,3 43,9 8,6 12,18 12,34l0 17c0,17 -4,28 -13,34 -9,6 -23,9 -43,9l0 0zm537 -122c15,0 28,5 38,15 10,10 15,23 15,39l0 538c0,15 -5,28 -15,38 -10,10 -22,15 -38,15 -15,0 -28,-5 -38,-15 -10,-10 -15,-23 -15,-38l0 -43 19 8c0,8 -4,17 -12,27 -8,11 -19,21 -33,32 -14,11 -30,20 -49,27 -19,7 -39,11 -61,11 -40,0 -76,-10 -109,-31 -33,-21 -58,-49 -77,-85 -19,-36 -28,-78 -28,-125 0,-48 9,-90 28,-126 19,-36 44,-65 76,-85 32,-21 67,-31 106,-31 25,0 48,4 69,11 21,8 39,17 55,29 15,12 27,23 36,35 8,12 13,22 13,30l-31 11 0 -233c0,-15 5,-28 15,-38 10,-10 23,-15 38,-15l0 0zm-176 557c25,0 48,-6 67,-19 19,-13 34,-30 45,-52 11,-22 16,-47 16,-74 0,-28 -5,-53 -16,-75 -11,-22 -26,-39 -45,-52 -19,-13 -42,-19 -67,-19 -25,0 -47,6 -66,19 -19,13 -34,30 -45,52 -11,22 -16,47 -16,75 0,27 5,52 16,74 11,22 26,39 45,52 19,13 41,19 66,19zm556 96c-49,0 -92,-10 -128,-31 -36,-21 -64,-49 -84,-84 -20,-35 -29,-75 -29,-120 0,-52 11,-97 32,-134 21,-37 49,-65 83,-85 34,-20 71,-30 109,-30 30,0 58,6 84,18 26,12 50,29 70,50 20,21 36,46 48,73 12,28 18,57 18,89 -1,14 -6,25 -17,34 -11,9 -23,13 -37,13l-332 0 -26 -87 319 0 -19 17 0 -23c-1,-17 -7,-32 -18,-45 -11,-13 -24,-24 -40,-32 -16,-8 -33,-12 -51,-12 -18,0 -34,2 -49,7 -15,5 -28,13 -39,24 -11,11 -20,26 -26,44 -6,19 -10,42 -10,71 0,31 7,58 20,79 13,22 30,39 50,50 21,11 42,17 66,17 22,0 39,-2 51,-5 13,-3 23,-8 31,-13 8,-5 15,-9 21,-13 11,-5 21,-8 30,-8 13,0 23,4 32,13 8,9 13,19 13,30 0,16 -8,30 -24,43 -15,13 -36,24 -63,34 -27,10 -55,14 -84,14l0 0zm539 -483c43,0 75,9 98,27 22,18 38,42 46,72 8,30 13,63 13,100l0 223c0,15 -5,28 -15,38 -10,10 -22,15 -37,15 -15,0 -28,-5 -38,-15 -10,-10 -15,-23 -15,-38l0 -223c0,-19 -2,-37 -7,-52 -5,-15 -14,-28 -26,-37 -13,-9 -31,-14 -55,-14 -23,0 -43,5 -59,14 -16,9 -28,22 -37,37 -8,16 -13,33 -13,52l0 223c0,15 -5,28 -15,38 -10,10 -23,15 -38,15 -15,0 -28,-5 -38,-15 -10,-10 -15,-23 -15,-38l0 -359c0,-15 5,-28 15,-38 10,-10 22,-15 38,-15 15,0 28,5 38,15 10,10 15,23 15,38l0 38 -13 -3c5,-10 13,-21 23,-32 10,-11 22,-22 35,-32 13,-10 28,-18 45,-24 17,-6 35,-9 55,-9l0 0zm275 18l207 0c14,0 25,5 35,14 9,9 14,21 14,35 0,14 -5,25 -14,34 -9,9 -21,14 -35,14l-207 0c-14,0 -25,-5 -35,-14 -9,-9 -14,-21 -14,-35 0,-13 5,-24 14,-34 9,-9 21,-13 35,-13zm93 -109c15,0 27,5 37,15 10,10 14,23 14,38l0 387c0,8 2,15 5,20 3,5 7,9 13,11 5,2 11,3 18,3 7,0 13,-1 19,-4 6,-3 12,-4 20,-4 8,0 16,4 22,11 7,8 10,18 10,31 0,16 -9,30 -26,40 -18,11 -37,16 -57,16 -12,0 -26,-1 -40,-3 -15,-2 -29,-7 -42,-15 -13,-8 -24,-20 -33,-36 -9,-16 -13,-39 -13,-67l0 -392c0,-15 5,-28 15,-38 10,-10 23,-15 38,-15l0 0zm356 513c0,15 -5,28 -15,38 -10,10 -23,15 -38,15 -15,0 -27,-5 -37,-15 -10,-10 -15,-23 -15,-38l0 -359c0,-15 5,-28 15,-38 10,-10 22,-15 37,-15 15,0 28,5 38,15 10,10 15,23 15,38l0 359zm-53 -469c-20,0 -34,-3 -42,-10 -8,-6 -12,-18 -12,-34l0 -17c0,-17 4,-28 14,-34 9,-6 23,-9 41,-9 21,0 35,3 43,9 8,6 12,18 12,34l0 17c0,17 -4,28 -13,34 -9,6 -23,9 -43,9l0 0zm399 -122c13,0 25,2 38,5 12,4 23,9 31,17 8,8 12,18 12,31 0,15 -4,26 -13,34 -8,8 -18,13 -29,13 -5,0 -13,-1 -23,-4 -11,-3 -21,-4 -31,-4 -15,0 -26,3 -33,10 -8,6 -13,14 -16,22 -3,8 -4,16 -4,22l0 445c0,15 -5,28 -15,38 -10,10 -22,15 -37,15 -15,0 -28,-5 -38,-15 -10,-10 -15,-23 -15,-38l0 -444c0,-41 15,-76 44,-105 29,-28 72,-43 130,-43l0 0zm10 187c14,0 26,4 35,13 9,9 14,21 14,35 0,14 -5,25 -14,34 -9,9 -21,14 -35,14l-231 0c-14,0 -25,-4 -35,-14 -9,-9 -14,-20 -14,-34 0,-14 5,-25 14,-35 9,-9 21,-13 35,-13l231 0zm460 -9c15,0 28,5 38,15 10,10 15,23 15,38l0 370c0,54 -10,96 -30,128 -20,32 -47,54 -80,68 -34,14 -72,21 -113,21 -19,0 -38,-1 -59,-4 -21,-3 -38,-7 -51,-13 -18,-8 -29,-17 -36,-28 -7,-11 -8,-23 -4,-36 5,-17 14,-28 25,-34 12,-6 24,-7 37,-2 9,3 22,7 37,14 15,6 33,9 52,9 27,0 49,-4 67,-11 18,-7 31,-20 40,-37 9,-17 14,-40 14,-70l0 -58 18 21c-10,19 -22,35 -37,47 -15,13 -32,22 -53,28 -21,6 -44,10 -70,10 -31,0 -57,-7 -80,-22 -23,-14 -41,-34 -54,-59 -13,-25 -19,-54 -19,-86l0 -254c0,-15 5,-28 15,-38 10,-10 22,-15 38,-15 15,0 28,5 38,15 10,10 15,23 15,38l0 223c0,38 8,64 25,79 17,16 39,23 69,23 20,0 37,-4 51,-12 14,-8 24,-19 32,-35 8,-15 11,-34 11,-56l0 -223c0,-15 5,-28 15,-38 10,-10 22,-15 38,-15l0 0z"/>
  </g>
 </g>
</svg>
