<svg width="76" height="76" viewBox="0 0 76 76" fill="none" xmlns="http://www.w3.org/2000/svg">
<path d="M60.1662 25.3334V22.1668C60.1662 9.9465 50.223 0 37.9996 0C25.7762 0 15.833 9.9465 15.833 22.1666V25.3332C10.5954 25.3332 6.33301 29.5956 6.33301 34.8332V66.5C6.33301 71.7376 10.5954 76 15.833 76H60.1664C65.404 76 69.6664 71.7376 69.6664 66.5V34.8334C69.6662 29.5956 65.404 25.3334 60.1662 25.3334ZM22.1662 22.1666C22.1662 13.4361 29.2691 6.33323 37.9996 6.33323C46.7301 6.33323 53.833 13.4361 53.833 22.1666V25.3332H22.1662V22.1666ZM63.333 66.5C63.333 68.248 61.9111 69.6666 60.1664 69.6666H15.833C14.0881 69.6666 12.6664 68.248 12.6664 66.5V34.8334C12.6664 33.0854 14.0883 31.6668 15.833 31.6668H60.1664C61.9113 31.6668 63.333 33.0854 63.333 34.8334V66.5Z" fill="#5B9FDE"/>
<path d="M60.1662 25.3334V22.1668C60.1662 9.9465 50.223 0 37.9996 0C25.7762 0 15.833 9.9465 15.833 22.1666V25.3332C10.5954 25.3332 6.33301 29.5956 6.33301 34.8332V66.5C6.33301 71.7376 10.5954 76 15.833 76H60.1664C65.404 76 69.6664 71.7376 69.6664 66.5V34.8334C69.6662 29.5956 65.404 25.3334 60.1662 25.3334ZM22.1662 22.1666C22.1662 13.4361 29.2691 6.33323 37.9996 6.33323C46.7301 6.33323 53.833 13.4361 53.833 22.1666V25.3332H22.1662V22.1666ZM63.333 66.5C63.333 68.248 61.9111 69.6666 60.1664 69.6666H15.833C14.0881 69.6666 12.6664 68.248 12.6664 66.5V34.8334C12.6664 33.0854 14.0883 31.6668 15.833 31.6668H60.1664C61.9113 31.6668 63.333 33.0854 63.333 34.8334V66.5Z" fill="url(#paint0_linear)"/>
<path d="M38 36.4166C32.7624 36.4166 28.5 40.679 28.5 45.9166C28.5 50.0396 31.1569 53.523 34.8334 54.834V60.1666C34.8334 61.9177 36.252 63.3332 38 63.3332C39.748 63.3332 41.1666 61.9177 41.1666 60.1666V54.834C44.8431 53.523 47.5 50.0396 47.5 45.9166C47.5 40.679 43.2376 36.4166 38 36.4166ZM38 49.0834C36.2551 49.0834 34.8334 47.6647 34.8334 45.9167C34.8334 44.1687 36.2551 42.75 38 42.75C39.7449 42.75 41.1666 44.1686 41.1666 45.9166C41.1666 47.6646 39.7449 49.0834 38 49.0834Z" fill="#5B9FDE"/>
<path d="M38 36.4166C32.7624 36.4166 28.5 40.679 28.5 45.9166C28.5 50.0396 31.1569 53.523 34.8334 54.834V60.1666C34.8334 61.9177 36.252 63.3332 38 63.3332C39.748 63.3332 41.1666 61.9177 41.1666 60.1666V54.834C44.8431 53.523 47.5 50.0396 47.5 45.9166C47.5 40.679 43.2376 36.4166 38 36.4166ZM38 49.0834C36.2551 49.0834 34.8334 47.6647 34.8334 45.9167C34.8334 44.1687 36.2551 42.75 38 42.75C39.7449 42.75 41.1666 44.1686 41.1666 45.9166C41.1666 47.6646 39.7449 49.0834 38 49.0834Z" fill="url(#paint1_linear)"/>
<defs>
<linearGradient id="paint0_linear" x1="37.9997" y1="0" x2="37.9997" y2="76" gradientUnits="userSpaceOnUse">
<stop stop-color="#2E94F3"/>
<stop offset="1" stop-color="#2E74B4" stop-opacity="0"/>
</linearGradient>
<linearGradient id="paint1_linear" x1="38" y1="36.4166" x2="38" y2="63.3332" gradientUnits="userSpaceOnUse">
<stop stop-color="#2E94F3"/>
<stop offset="1" stop-color="#2E74B4" stop-opacity="0"/>
</linearGradient>
</defs>
</svg>
