<svg width="76" height="76" viewBox="0 0 76 76" fill="none" xmlns="http://www.w3.org/2000/svg">
<path d="M69.4255 6.40366C60.8869 -2.13465 46.994 -2.13465 38.4554 6.40366C34.9151 9.94399 32.746 14.4397 32.1826 19.4049C31.703 23.6308 32.4755 27.9375 34.3655 31.7124L0.169922 65.9081L9.92105 75.6593L13.8931 71.6872L18.2059 76L27.461 66.7449L23.1482 62.4321L26.3217 59.2586L30.6345 63.5714L39.8896 54.3163L35.5768 50.0035L44.1166 41.4636C47.8917 43.3534 52.1984 44.1262 56.4242 43.6465C61.3893 43.083 65.8852 40.914 69.4254 37.3736C77.964 28.8353 77.964 14.9421 69.4255 6.40366ZM66.2761 34.2243C60.5677 39.9329 51.7708 40.9929 44.8837 36.8022L43.3888 35.8925L29.278 50.0035L33.5908 54.3163L30.6345 57.2726L26.3217 52.9598L16.8492 62.4321L21.162 66.7449L18.2059 69.7012L13.8931 65.3884L9.92105 69.3604L6.46891 65.9081L39.9367 32.4404L39.027 30.9455C34.8363 24.0584 35.8965 15.2616 41.6048 9.55307C48.4067 2.75138 59.4741 2.75138 66.2761 9.55307C73.078 16.3551 73.078 27.4225 66.2761 34.2243Z" fill="#5B9FDE"/>
<path d="M69.4255 6.40366C60.8869 -2.13465 46.994 -2.13465 38.4554 6.40366C34.9151 9.94399 32.746 14.4397 32.1826 19.4049C31.703 23.6308 32.4755 27.9375 34.3655 31.7124L0.169922 65.9081L9.92105 75.6593L13.8931 71.6872L18.2059 76L27.461 66.7449L23.1482 62.4321L26.3217 59.2586L30.6345 63.5714L39.8896 54.3163L35.5768 50.0035L44.1166 41.4636C47.8917 43.3534 52.1984 44.1262 56.4242 43.6465C61.3893 43.083 65.8852 40.914 69.4254 37.3736C77.964 28.8353 77.964 14.9421 69.4255 6.40366ZM66.2761 34.2243C60.5677 39.9329 51.7708 40.9929 44.8837 36.8022L43.3888 35.8925L29.278 50.0035L33.5908 54.3163L30.6345 57.2726L26.3217 52.9598L16.8492 62.4321L21.162 66.7449L18.2059 69.7012L13.8931 65.3884L9.92105 69.3604L6.46891 65.9081L39.9367 32.4404L39.027 30.9455C34.8363 24.0584 35.8965 15.2616 41.6048 9.55307C48.4067 2.75138 59.4741 2.75138 66.2761 9.55307C73.078 16.3551 73.078 27.4225 66.2761 34.2243Z" fill="url(#paint0_linear)"/>
<path d="M53.0131 12.4995C50.1688 15.3439 50.1688 19.972 53.0131 22.8166C54.4354 24.2386 56.3034 24.9498 58.1716 24.9498C60.0397 24.9498 61.9079 24.2386 63.3301 22.8165H63.3302C66.1744 19.972 66.1744 15.3439 63.3301 12.4995C60.4857 9.65522 55.8574 9.65537 53.0131 12.4995ZM60.1808 19.6671C59.0728 20.7751 57.2702 20.7748 56.1628 19.6671C55.055 18.5592 55.055 16.7567 56.1627 15.6491C56.7166 15.0952 57.4441 14.8181 58.1717 14.8181C58.8992 14.8181 59.627 15.095 60.1808 15.649C61.2883 16.7568 61.2883 18.5592 60.1808 19.6671Z" fill="#5B9FDE"/>
<path d="M53.0131 12.4995C50.1688 15.3439 50.1688 19.972 53.0131 22.8166C54.4354 24.2386 56.3034 24.9498 58.1716 24.9498C60.0397 24.9498 61.9079 24.2386 63.3301 22.8165H63.3302C66.1744 19.972 66.1744 15.3439 63.3301 12.4995C60.4857 9.65522 55.8574 9.65537 53.0131 12.4995ZM60.1808 19.6671C59.0728 20.7751 57.2702 20.7748 56.1628 19.6671C55.055 18.5592 55.055 16.7567 56.1627 15.6491C56.7166 15.0952 57.4441 14.8181 58.1717 14.8181C58.8992 14.8181 59.627 15.095 60.1808 15.649C61.2883 16.7568 61.2883 18.5592 60.1808 19.6671Z" fill="url(#paint1_linear)"/>
<defs>
<linearGradient id="paint0_linear" x1="37.9996" y1="-7.62939e-05" x2="37.9996" y2="76" gradientUnits="userSpaceOnUse">
<stop stop-color="#2E94F3"/>
<stop offset="1" stop-color="#2E74B4" stop-opacity="0"/>
</linearGradient>
<linearGradient id="paint1_linear" x1="58.1716" y1="10.3664" x2="58.1716" y2="24.9498" gradientUnits="userSpaceOnUse">
<stop stop-color="#2E94F3"/>
<stop offset="1" stop-color="#2E74B4" stop-opacity="0"/>
</linearGradient>
</defs>
</svg>
