<svg width="129" height="123" viewBox="0 0 129 123" fill="none" xmlns="http://www.w3.org/2000/svg">
<g clip-path="url(#clip0)">
<path d="M64.3241 57.422C74.7041 57.422 83.1189 49.388 83.1189 39.4776C83.1189 29.5672 74.7041 21.5332 64.3241 21.5332C53.944 21.5332 45.5293 29.5672 45.5293 39.4776C45.5293 49.388 53.944 57.422 64.3241 57.422Z" fill="#5B9FDE"/>
<path d="M64.3241 57.422C74.7041 57.422 83.1189 49.388 83.1189 39.4776C83.1189 29.5672 74.7041 21.5332 64.3241 21.5332C53.944 21.5332 45.5293 29.5672 45.5293 39.4776C45.5293 49.388 53.944 57.422 64.3241 57.422Z" fill="url(#paint0_linear)"/>
<path d="M64.3238 0C28.8931 0 0.170898 27.4226 0.170898 61.2501C0.170898 95.0777 28.8931 122.5 64.3238 122.5C99.7544 122.5 128.477 95.0777 128.477 61.2501C128.477 27.4226 99.7544 0 64.3238 0ZM64.3238 14.3555C78.8326 14.3555 90.6364 25.6253 90.6364 39.4776C90.6364 53.33 78.8326 64.5997 64.3238 64.5997C49.8149 64.5997 38.0111 53.33 38.0111 39.4776C38.0111 25.6253 49.8149 14.3555 64.3238 14.3555ZM107.039 84.4108C98.3137 99.0505 81.9462 108.145 64.3238 108.145C46.7013 108.145 30.3338 99.0505 21.6085 84.4108L20.2788 82.1797L22.0606 80.2573C27.056 74.8682 34.2398 71.7775 41.77 71.7775H86.8775C94.4077 71.7775 101.592 74.8682 106.587 80.2575L108.368 82.18L107.039 84.4108Z" fill="#5B9FDE"/>
<path d="M64.3238 0C28.8931 0 0.170898 27.4226 0.170898 61.2501C0.170898 95.0777 28.8931 122.5 64.3238 122.5C99.7544 122.5 128.477 95.0777 128.477 61.2501C128.477 27.4226 99.7544 0 64.3238 0ZM64.3238 14.3555C78.8326 14.3555 90.6364 25.6253 90.6364 39.4776C90.6364 53.33 78.8326 64.5997 64.3238 64.5997C49.8149 64.5997 38.0111 53.33 38.0111 39.4776C38.0111 25.6253 49.8149 14.3555 64.3238 14.3555ZM107.039 84.4108C98.3137 99.0505 81.9462 108.145 64.3238 108.145C46.7013 108.145 30.3338 99.0505 21.6085 84.4108L20.2788 82.1797L22.0606 80.2573C27.056 74.8682 34.2398 71.7775 41.77 71.7775H86.8775C94.4077 71.7775 101.592 74.8682 106.587 80.2575L108.368 82.18L107.039 84.4108Z" fill="url(#paint1_linear)"/>
<path d="M41.7701 78.9552C37.3085 78.9552 33.0165 80.4752 29.6455 83.1913C37.3193 94.2206 50.3566 100.967 64.3239 100.967C78.2912 100.967 91.3285 94.2206 99.0023 83.1913C95.6312 80.4752 91.3392 78.9552 86.8776 78.9552H41.7701Z" fill="#5B9FDE"/>
<path d="M41.7701 78.9552C37.3085 78.9552 33.0165 80.4752 29.6455 83.1913C37.3193 94.2206 50.3566 100.967 64.3239 100.967C78.2912 100.967 91.3285 94.2206 99.0023 83.1913C95.6312 80.4752 91.3392 78.9552 86.8776 78.9552H41.7701Z" fill="url(#paint2_linear)"/>
</g>
<defs>
<linearGradient id="paint0_linear" x1="64.3241" y1="21.5332" x2="64.3241" y2="57.422" gradientUnits="userSpaceOnUse">
<stop stop-color="#2E94F3"/>
<stop offset="1" stop-color="#2E74B4" stop-opacity="0"/>
</linearGradient>
<linearGradient id="paint1_linear" x1="64.3238" y1="0" x2="64.3238" y2="122.5" gradientUnits="userSpaceOnUse">
<stop stop-color="#2E94F3"/>
<stop offset="1" stop-color="#2E74B4" stop-opacity="0"/>
</linearGradient>
<linearGradient id="paint2_linear" x1="64.3239" y1="78.9552" x2="64.3239" y2="100.967" gradientUnits="userSpaceOnUse">
<stop stop-color="#2E94F3"/>
<stop offset="1" stop-color="#2E74B4" stop-opacity="0"/>
</linearGradient>
<clipPath id="clip0">
<rect width="128.306" height="122.5" fill="white" transform="translate(0.170898)"/>
</clipPath>
</defs>
</svg>
