<svg width="40" height="32" viewBox="0 0 40 32" fill="none" xmlns="http://www.w3.org/2000/svg">
<path d="M20 30C18.875 30 18 29.125 18 28H16C16 30.25 17.75 32 20 32C22.1875 32 24 30.25 24 28H22C22 29.125 21.0625 30 20 30ZM33.0625 20.9375C31.3125 19.3125 30 17.5625 30 11.625C30 6.6875 26 2.625 21 2.125V1C21 0.5 20.5 0 20 0C19.4375 0 19 0.5 19 1V2.125C13.9375 2.625 9.9375 6.6875 9.9375 11.625C9.9375 17.5625 8.625 19.3125 6.875 20.9375C6 21.8125 5.75 23.0625 6.1875 24.1875C6.625 25.3125 7.75 26 9 26H31C32.1875 26 33.3125 25.3125 33.75 24.1875C34.1875 23.0625 33.9375 21.8125 33.0625 20.9375ZM31 24H9C8.0625 24 7.625 23 8.25 22.375C10.4375 20.3125 11.9375 18 11.9375 11.625C11.9375 7.4375 15.5625 4 20 4C24.375 4 28 7.4375 28 11.625C28 18 29.5 20.3125 31.6875 22.375C32.3125 23 31.875 24 31 24Z" fill="#AEB0BB"/>
<circle cx="27.5" cy="5.5" r="5.5" fill="#D83F35"/>
</svg>
