<svg width="603" height="603" viewBox="0 0 603 603" fill="none" xmlns="http://www.w3.org/2000/svg">
<path d="M455.952 105.441C396.255 71.3229 343.384 99.4106 316.937 129.319C290.489 159.228 270.783 189.438 237.582 194.986C204.381 200.534 154.006 186.46 116.475 212.895C78.9447 239.331 79.0894 309.544 108.805 349.354C138.521 389.164 215.404 408.195 304.105 420.99C335.933 425.811 368.413 424.009 399.512 415.696L439.804 401.067C459.486 392.083 475.984 381.964 489.95 373.751C511.199 361.209 518.688 330.637 522.753 308.242C528.653 274.681 528.141 240.307 521.245 206.938C512.345 164.896 492.048 126.051 455.952 105.441Z" fill="#006494"/>
<path opacity="0.8" d="M455.952 105.441C396.255 71.3229 343.384 99.4106 316.937 129.319C290.489 159.228 270.783 189.438 237.582 194.986C204.381 200.534 154.006 186.46 116.475 212.895C78.9447 239.331 79.0894 309.544 108.805 349.354C138.521 389.164 215.404 408.195 304.105 420.99C335.933 425.811 368.413 424.009 399.512 415.696L439.804 401.067C459.486 392.083 475.984 381.964 489.95 373.751C511.199 361.209 518.688 330.637 522.753 308.242C528.653 274.681 528.141 240.307 521.245 206.938C512.345 164.896 492.048 126.051 455.952 105.441Z" fill="white"/>
<path opacity="0.8" d="M547.211 147.229C545.86 124.942 530.64 117.633 520.992 128.246C518.7 130.835 517.164 134.005 516.554 137.408C515.943 140.812 516.281 144.318 517.531 147.542C520.92 156.696 526.745 172.94 530.218 185.652C535.332 204.417 533.619 218.913 539.589 211.243C545.558 203.573 548.911 175.377 547.211 147.229Z" fill="#006494"/>
<path opacity="0.8" d="M547.211 147.229C545.86 124.942 530.64 117.633 520.992 128.246C518.7 130.835 517.164 134.005 516.554 137.408C515.943 140.812 516.281 144.318 517.531 147.542C520.92 156.696 526.745 172.94 530.218 185.652C535.332 204.417 533.619 218.913 539.589 211.243C545.558 203.573 548.911 175.377 547.211 147.229Z" fill="white"/>
<path d="M289.657 143.816C299.028 142.115 310.967 119.937 326.32 110.554C341.672 101.171 328.032 94.3454 313.56 101.171C313.56 101.171 302.465 103.728 293.938 120.793C285.412 137.858 280.274 145.516 289.657 143.816Z" fill="#006494"/>
<path opacity="0.8" d="M289.657 143.816C299.028 142.115 310.967 119.937 326.32 110.554C341.672 101.171 328.032 94.3454 313.56 101.171C313.56 101.171 302.465 103.728 293.938 120.793C285.412 137.858 280.274 145.516 289.657 143.816Z" fill="white"/>
<path d="M274.305 131.876C281.914 128.825 290.212 108.106 281.541 109.167C280.445 109.326 279.409 109.765 278.532 110.441C277.655 111.117 276.968 112.007 276.536 113.026C273.762 119.189 267.454 134.614 274.305 131.876Z" fill="#006494"/>
<path opacity="0.8" d="M274.305 131.876C281.914 128.825 290.212 108.106 281.541 109.167C280.445 109.326 279.409 109.765 278.532 110.441C277.655 111.117 276.968 112.007 276.536 113.026C273.762 119.189 267.454 134.614 274.305 131.876Z" fill="white"/>
<path d="M320.772 517.603C455.528 517.603 564.77 513.543 564.77 508.534C564.77 503.525 455.528 499.465 320.772 499.465C186.016 499.465 76.7739 503.525 76.7739 508.534C76.7739 513.543 186.016 517.603 320.772 517.603Z" fill="#006494"/>
<path opacity="0.8" d="M320.772 517.603C455.528 517.603 564.77 513.543 564.77 508.534C564.77 503.525 455.528 499.465 320.772 499.465C186.016 499.465 76.7739 503.525 76.7739 508.534C76.7739 513.543 186.016 517.603 320.772 517.603Z" fill="white"/>
<path d="M438.044 167.634C437.564 167.634 437.104 167.825 436.764 168.164C436.425 168.503 436.235 168.963 436.235 169.443V178.717H403.178V169.443C403.178 168.963 402.987 168.503 402.648 168.164C402.309 167.825 401.849 167.634 401.369 167.634C400.889 167.634 400.429 167.825 400.09 168.164C399.751 168.503 399.56 168.963 399.56 169.443V403.045C399.56 403.525 399.751 403.985 400.09 404.324C400.429 404.664 400.889 404.854 401.369 404.854C401.849 404.854 402.309 404.664 402.648 404.324C402.987 403.985 403.178 403.525 403.178 403.045V350.789H436.235V403.045C436.235 403.525 436.425 403.985 436.764 404.324C437.104 404.664 437.564 404.854 438.044 404.854C438.523 404.854 438.983 404.664 439.323 404.324C439.662 403.985 439.853 403.525 439.853 403.045V169.407C439.843 168.933 439.648 168.482 439.31 168.151C438.972 167.82 438.517 167.634 438.044 167.634ZM436.235 347.207H403.178V335.485H436.235V347.207ZM436.235 331.855H403.178V320.145H436.235V331.855ZM436.235 316.515H403.178V304.841H436.235V316.515ZM436.235 301.186H403.178V289.561H436.235V301.186ZM436.235 285.87H403.178V274.377H436.235V285.87ZM436.235 270.602H403.178V259.037H436.235V270.602ZM436.235 255.407H403.178V243.733H436.235V255.407ZM436.235 240.066H403.178V228.392H436.235V240.066ZM436.235 224.762H403.178V213.052H436.235V224.762ZM436.235 209.422H403.178V197.688H436.235V209.422ZM436.235 194.07H403.178V182.335H436.235V194.07Z" fill="white"/>
<path d="M124.918 355.963C124.918 355.963 151.992 318.903 138.787 310.135C125.05 301.078 118.598 328.514 115.692 341.985C109.493 370.737 111.242 376.839 115.402 370.519L124.918 355.963Z" fill="#006494"/>
<path opacity="0.5" d="M124.918 355.963C124.918 355.963 151.992 318.903 138.787 310.135C125.05 301.078 118.598 328.514 115.692 341.985C109.493 370.737 111.242 376.839 115.402 370.519L124.918 355.963Z" fill="white"/>
<path d="M135.072 378.756C135.072 378.756 172.711 352.49 163.051 339.971C153.005 326.935 137.99 350.826 130.863 362.596C115.655 387.777 115.342 394.121 121.324 389.49L135.072 378.756Z" fill="#006494"/>
<path opacity="0.5" d="M135.072 378.756C135.072 378.756 172.711 352.49 163.051 339.971C153.005 326.935 137.99 350.826 130.863 362.596C115.655 387.777 115.342 394.121 121.324 389.49L135.072 378.756Z" fill="white"/>
<path d="M135.892 409.22C135.892 409.22 168.454 394.591 162.894 383.617C157.106 372.196 142.163 388.26 135.012 396.243C119.732 413.296 118.574 418.096 123.82 415.431L135.892 409.22Z" fill="#006494"/>
<path opacity="0.5" d="M135.892 409.22C135.892 409.22 168.454 394.591 162.894 383.617C157.106 372.196 142.163 388.26 135.012 396.243C119.732 413.296 118.574 418.096 123.82 415.431L135.892 409.22Z" fill="white"/>
<path d="M137.822 439.816C137.822 439.816 170.384 425.187 164.836 414.213C159.035 402.804 144.105 418.856 136.941 426.852C121.673 443.905 120.504 448.704 125.762 446.027L137.822 439.816Z" fill="#006494"/>
<path opacity="0.5" d="M137.822 439.816C137.822 439.816 170.384 425.187 164.836 414.213C159.035 402.804 144.105 418.856 136.941 426.852C121.673 443.905 120.504 448.704 125.762 446.027L137.822 439.816Z" fill="white"/>
<path d="M99.6277 371.448C99.6277 371.448 63.8336 342.709 54.5353 355.493C44.8873 368.759 71.9741 376.513 85.3004 380.035C113.738 387.548 119.913 386.065 113.786 381.627L99.6277 371.448Z" fill="#006494"/>
<path opacity="0.5" d="M99.6277 371.448C99.6277 371.448 63.8336 342.709 54.5353 355.493C44.8873 368.759 71.9741 376.513 85.3004 380.035C113.738 387.548 119.913 386.065 113.786 381.627L99.6277 371.448Z" fill="white"/>
<path d="M100.689 395.459C100.689 395.459 59.9022 374.403 53.3295 388.79C46.4915 403.757 74.5913 405.928 88.3035 406.724C117.67 408.436 123.434 405.759 116.548 402.623L100.689 395.459Z" fill="#006494"/>
<path opacity="0.5" d="M100.689 395.459C100.689 395.459 59.9022 374.403 53.3295 388.79C46.4915 403.757 74.5913 405.928 88.3035 406.724C117.67 408.436 123.434 405.759 116.548 402.623L100.689 395.459Z" fill="white"/>
<path d="M105.622 422.377C105.622 422.377 70.6476 405.493 65.4256 417.831C59.9866 430.651 83.793 431.832 95.455 432.182C120.323 432.954 125.135 430.542 119.237 428.13L105.622 422.377Z" fill="#006494"/>
<path opacity="0.5" d="M105.622 422.377C105.622 422.377 70.6476 405.493 65.4256 417.831C59.9866 430.651 83.793 431.832 95.455 432.182C120.323 432.954 125.135 430.542 119.237 428.13L105.622 422.377Z" fill="white"/>
<path d="M107.334 444.122C107.334 444.122 74.3378 423.62 67.8375 435.33C61.0718 447.498 84.625 451.201 96.1785 452.793C120.829 456.194 125.858 454.324 120.298 451.225L107.334 444.122Z" fill="#006494"/>
<path opacity="0.5" d="M107.334 444.122C107.334 444.122 74.3378 423.62 67.8375 435.33C61.0718 447.498 84.625 451.201 96.1785 452.793C120.829 456.194 125.858 454.324 120.298 451.225L107.334 444.122Z" fill="white"/>
<path d="M104.211 335.039C104.211 335.039 98.0117 281.215 77.6785 286.715C56.5615 292.455 74.2414 319.687 83.214 332.856C102.281 360.883 109.3 363.971 107.792 355.215L104.211 335.039Z" fill="#006494"/>
<path opacity="0.5" d="M104.211 335.039C104.211 335.039 98.0117 281.215 77.6785 286.715C56.5615 292.455 74.2414 319.687 83.214 332.856C102.281 360.883 109.3 363.971 107.792 355.215L104.211 335.039Z" fill="white"/>
<path d="M81.8394 306.324C81.8394 306.324 112.785 364.309 117.585 391.226C123.109 422.148 124.001 456.688 120.19 483.751" stroke="#006494" stroke-width="1.25197" stroke-linecap="round" stroke-linejoin="round"/>
<path d="M112.701 373.317L127.86 326.886" stroke="#006494" stroke-width="1.25197" stroke-linecap="round" stroke-linejoin="round"/>
<path d="M117.585 391.226L146.119 355.348" stroke="#006494" stroke-width="1.25197" stroke-linecap="round" stroke-linejoin="round"/>
<path d="M115.764 384.702L74.4468 367.348" stroke="#006494" stroke-width="1.25197" stroke-linecap="round" stroke-linejoin="round"/>
<path d="M121.167 415.527L152.234 391.721" stroke="#006494" stroke-width="1.25197" stroke-linecap="round" stroke-linejoin="round"/>
<path d="M119.515 405.313L87.0615 398.559" stroke="#006494" stroke-width="1.25197" stroke-linecap="round" stroke-linejoin="round"/>
<path d="M121.071 430.168L95.9375 426.188" stroke="#006494" stroke-width="1.25197" stroke-linecap="round" stroke-linejoin="round"/>
<path d="M123.193 446.256L140.101 431.109" stroke="#006494" stroke-width="1.25197" stroke-linecap="round" stroke-linejoin="round"/>
<path d="M122.855 453.07L93.9717 445.81" stroke="#006494" stroke-width="1.25197" stroke-linecap="round" stroke-linejoin="round"/>
<path d="M101.461 461.91H135.603V468.977H132.624L126.461 507.533H110.602L104.44 468.977H101.461V461.91Z" fill="#006494"/>
<path opacity="0.5" d="M101.461 461.91H135.603V468.977H132.624L126.461 507.533H110.602L104.44 468.977H101.461V461.91Z" fill="white"/>
<path d="M157.684 97.8307C156.204 96.5081 154.397 95.6058 152.45 95.2177C150.503 94.8296 148.488 94.9698 146.613 95.6237C139.98 97.8307 133.625 107.418 135.229 115.535C136.35 121.155 141.56 129.44 143.14 132.6C144.72 135.759 142.501 141.102 137.484 152.197C132.467 163.292 130.525 173.7 145.07 182.866C159.614 192.031 176.076 177.487 184.518 167.055C192.96 156.623 178.186 132.6 176.92 122.433C175.654 112.267 173.483 92.7776 157.684 97.8307Z" fill="#263238"/>
<path d="M191.875 167.755C188.256 171.376 183.883 174.154 179.068 175.893C174.253 177.631 169.113 178.287 164.016 177.813L160.531 192.345L167.164 225.522L210.471 203.078L200.666 177.752L191.875 167.755Z" fill="#006494" stroke="#263238" stroke-linecap="round" stroke-linejoin="round"/>
<path opacity="0.3" d="M191.875 167.755C188.256 171.376 183.883 174.154 179.068 175.893C174.253 177.631 169.113 178.287 164.016 177.813L160.531 192.345L167.164 225.522L210.471 203.078L200.666 177.752L191.875 167.755Z" fill="#263238"/>
<path d="M191.875 167.755L185.242 123.808L165.584 127.836L155.779 134.155C155.779 134.155 144.081 143.333 144.081 144.274C144.081 145.214 163.872 178.331 163.872 178.331C169.02 178.636 174.176 177.851 179.001 176.029C183.826 174.207 188.213 171.387 191.875 167.755Z" fill="white"/>
<path d="M191.875 167.755L185.242 123.808L165.584 127.836L155.779 134.155C155.779 134.155 144.081 143.333 144.081 144.274C144.081 145.214 163.872 178.331 163.872 178.331C169.02 178.636 174.176 177.851 179.001 176.029C183.826 174.207 188.213 171.387 191.875 167.755Z" stroke="#263238" stroke-linecap="round" stroke-linejoin="round"/>
<path opacity="0.5" d="M165.499 165.873C165.499 165.873 179.356 155.598 178.078 158.637C176.8 161.676 167.224 169.262 164.655 169.491C162.087 169.72 165.499 165.873 165.499 165.873Z" fill="#006494"/>
<path d="M165.922 146.36L166.465 146.927L169.841 150.497L170.71 164.209L174.846 163.558L171.578 150.714L176.812 161.592L181.166 157.238L171.807 148.748L171.578 142.007L166.79 139.607" fill="#263238"/>
<path d="M158.312 130.079C158.312 130.079 154.199 131.973 154.199 135.759C154.199 139.546 158.649 148.555 161.435 150.448C164.221 152.342 168.997 143.671 168.997 143.671C168.997 143.671 176.233 147.144 178.162 143.984C180.092 140.825 173.736 130.393 169.636 127.546C165.536 124.7 158.312 130.079 158.312 130.079Z" fill="white" stroke="#263238" stroke-linecap="round" stroke-linejoin="round"/>
<path d="M154.838 126.28C155.969 129.169 156.92 132.126 157.685 135.132C158.312 138.292 166.85 143.671 167.791 143.984C168.732 144.298 169.371 133.866 169.371 133.866L166.85 121.541L154.838 126.28Z" fill="white"/>
<g style="mix-blend-mode:multiply" opacity="0.5">
<path d="M167.115 122.855C166.585 122.706 166.045 122.594 165.499 122.517L156.78 125.593L155.634 128.584C156.213 130.2 156.949 132.37 157.395 134.131C158.825 135.284 160.552 136.007 162.376 136.218C164.993 136.399 167.296 134.372 168.924 131.888L167.115 122.855Z" fill="#006494"/>
</g>
<path d="M154.838 126.28C155.969 129.169 156.92 132.126 157.685 135.132C158.312 138.292 166.85 143.671 167.791 143.984C168.732 144.298 169.371 133.866 169.371 133.866L166.85 121.541L154.838 126.28Z" stroke="#263238" stroke-linecap="round" stroke-linejoin="round"/>
<path d="M149.146 120.901C149.146 120.901 145.661 118.067 145.661 120.901C145.661 123.736 148.832 125.327 151.353 125.327" fill="white"/>
<path d="M149.146 120.901C149.146 120.901 145.661 118.067 145.661 120.901C145.661 123.736 148.832 125.327 151.353 125.327" stroke="#263238" stroke-linecap="round" stroke-linejoin="round"/>
<path d="M167.791 111.736C167.791 111.736 170.01 108.263 170.637 112.061C170.926 114.535 170.248 117.024 168.744 119.008L167.791 111.736Z" fill="white" stroke="#263238" stroke-linecap="round" stroke-linejoin="round"/>
<g opacity="0.5">
<path d="M149.146 120.901C149.146 120.901 145.661 118.067 145.661 120.901C145.661 123.736 148.832 125.327 151.353 125.327" fill="#006494"/>
<path d="M149.146 120.901C149.146 120.901 145.661 118.067 145.661 120.901C145.661 123.736 148.832 125.327 151.353 125.327" stroke="#263238" stroke-linecap="round" stroke-linejoin="round"/>
</g>
<path opacity="0.5" d="M167.791 111.736C167.791 111.736 170.01 108.263 170.637 112.061C170.926 114.535 170.248 117.024 168.744 119.008L167.791 111.736Z" fill="#006494" stroke="#263238" stroke-linecap="round" stroke-linejoin="round"/>
<path d="M145.227 111.76C145.227 111.76 147.94 123.06 153.765 128.644C159.59 134.228 165.825 134.276 167.984 124.327C169.757 116.126 165.355 105.187 165.355 105.187C165.355 105.187 151.148 93.4891 145.227 111.76Z" fill="white"/>
<g style="mix-blend-mode:multiply" opacity="0.5">
<path d="M155.345 101.509L157.552 107.057C157.552 107.057 161.025 106.285 162.979 110.482C164.933 114.678 166.899 120.829 165.777 125.593C164.704 130.127 162.159 131.623 158.24 131.731C162.509 133.552 166.38 131.731 167.984 124.302C169.757 116.102 165.355 105.163 165.355 105.163C165.355 105.163 160.543 101.22 155.345 101.509Z" fill="#006494"/>
</g>
<path d="M145.227 111.76C145.227 111.76 147.94 123.06 153.765 128.644C159.59 134.228 165.825 134.276 167.984 124.327C169.757 116.126 165.355 105.187 165.355 105.187C165.355 105.187 151.148 93.4891 145.227 111.76Z" stroke="#263238" stroke-linecap="round" stroke-linejoin="round"/>
<path d="M156.008 117.73C156.346 118.369 156.286 119.056 155.876 119.273C155.466 119.49 154.863 119.141 154.537 118.502C154.211 117.862 154.26 117.187 154.67 116.97C155.08 116.753 155.683 117.103 156.008 117.73Z" fill="#263238"/>
<path d="M162.304 115.776C162.545 116.451 162.388 117.127 161.954 117.271C161.52 117.416 160.965 117.006 160.748 116.331C160.531 115.655 160.664 114.98 161.098 114.835C161.532 114.691 162.063 115.125 162.304 115.776Z" fill="#263238"/>
<path d="M162.738 112.158C162.245 111.827 161.657 111.667 161.065 111.701C160.473 111.736 159.908 111.964 159.457 112.351C157.721 113.702 161.001 120.467 161.001 120.467C161.001 120.467 161.061 122.602 158.324 121.613" stroke="#263238" stroke-width="0.5" stroke-linecap="round" stroke-linejoin="round"/>
<path d="M162.738 123.808C162.55 124.252 162.262 124.646 161.895 124.96C161.529 125.274 161.095 125.498 160.627 125.615C160.159 125.732 159.671 125.738 159.2 125.634C158.729 125.53 158.289 125.317 157.914 125.014" stroke="#263238" stroke-width="0.5" stroke-linecap="round" stroke-linejoin="round"/>
<path d="M155.393 113.955C155.393 113.955 152.306 111.049 150.955 116.656" stroke="#263238" stroke-width="0.5" stroke-linecap="round" stroke-linejoin="round"/>
<path d="M165.536 101.605C162.147 98.6628 159.409 98.699 158.215 99.0849C157.098 98.3875 155.827 97.9736 154.513 97.8789C145.034 96.6126 143.768 103.909 143.768 110.843C143.768 117.778 137.738 126.015 141.874 126.968C143.006 127.239 144.198 127.103 145.239 126.582C146.28 126.061 147.105 125.19 147.566 124.121C147.566 124.121 151.992 116.885 151.992 111.784C151.992 106.683 157.504 107.165 157.504 107.165C157.742 106.814 158.053 106.518 158.416 106.298C158.779 106.079 159.185 105.94 159.606 105.892C160.028 105.844 160.455 105.887 160.858 106.02C161.261 106.152 161.631 106.37 161.942 106.659C164.45 108.805 164.74 111.326 166.766 111.977C168.792 112.628 172.181 109.372 172.181 109.372C170.25 106.553 168.023 103.949 165.536 101.605Z" fill="#263238"/>
<path d="M157.769 103.499C157.769 103.499 153.958 100.436 150.533 103.873C147.108 107.31 147.482 113.81 146.336 118.019C145.191 122.228 142.127 122.988 142.127 122.988" stroke="white" stroke-width="0.5" stroke-linecap="round" stroke-linejoin="round"/>
<path d="M155.104 102.353C155.104 102.353 150.991 98.2769 145.817 103.439C141.874 107.394 143.635 109.987 142.863 116.487" stroke="white" stroke-width="0.5" stroke-linecap="round" stroke-linejoin="round"/>
<path d="M159.687 101.581C159.687 101.581 166.923 98.1442 170.01 106.936" stroke="white" stroke-width="0.5" stroke-linecap="round" stroke-linejoin="round"/>
<path d="M144.081 144.298L133.143 188.317L165.222 197.41L166.802 191.718L145.733 181.997L152.885 156.671C152.885 156.671 151.944 151.932 146.855 146.565" fill="white"/>
<g style="mix-blend-mode:multiply" opacity="0.5">
<path d="M166.851 191.754L145.782 182.034L152.933 156.708C152.373 154.605 151.464 152.612 150.244 150.81L149.556 150.292V157.287C149.556 161.761 143.961 176.028 141.995 179.38C140.029 182.733 136.966 186.93 136.966 186.93L143.116 184.132L166.428 193.467L166.851 191.754Z" fill="#006494"/>
</g>
<path d="M144.081 144.298L133.143 188.317L165.222 197.41L166.802 191.718L145.733 181.997L152.885 156.671C152.885 156.671 151.944 151.932 146.855 146.565" stroke="#263238" stroke-linecap="round" stroke-linejoin="round"/>
<path d="M234.278 157.516L209.989 152.414L185.182 123.748L188.848 146.806L204.068 161.303L234.652 162.701L234.278 157.516Z" fill="white"/>
<g style="mix-blend-mode:multiply" opacity="0.5">
<path d="M185.182 123.748L188.136 142.151L190.018 147.904L190.259 148.121C190.97 147.385 194.986 143.213 196.012 143.213C197.037 143.213 208.602 153.283 206.926 154.067L205.237 154.899L234.049 159.65L234.254 157.443L210.013 152.354L185.182 123.748Z" fill="#006494"/>
</g>
<path d="M234.278 157.516L209.989 152.414L185.182 123.748L188.848 146.806L204.068 161.303L234.652 162.701L234.278 157.516Z" stroke="#263238" stroke-linecap="round" stroke-linejoin="round"/>
<path d="M461.018 401.598L151.715 356.276C150.732 356.13 149.847 355.6 149.254 354.802C148.662 354.004 148.41 353.003 148.555 352.019L174.315 176.293C174.386 175.807 174.552 175.339 174.804 174.917C175.056 174.495 175.388 174.126 175.783 173.833C176.177 173.539 176.625 173.327 177.102 173.206C177.579 173.086 178.074 173.062 178.561 173.133L184.422 173.99C185.164 174.101 185.923 173.986 186.599 173.659C187.274 173.331 187.835 172.808 188.209 172.156L195.987 158.71C196.223 158.287 196.544 157.918 196.928 157.624C198.749 156.307 201.012 155.753 203.235 156.08L281.203 167.513C282.952 167.764 284.582 168.548 285.87 169.756C286.214 170.101 286.485 170.511 286.666 170.962L293.601 188.136C293.844 188.743 294.243 189.276 294.757 189.68C295.272 190.085 295.884 190.347 296.531 190.439L487.863 218.491C488.847 218.634 489.733 219.162 490.327 219.958C490.922 220.753 491.177 221.753 491.035 222.736L465.275 398.45C465.126 399.431 464.595 400.314 463.797 400.904C462.999 401.493 462 401.743 461.018 401.598Z" fill="#263238" stroke="#263238" stroke-miterlimit="10"/>
<path d="M464.31 400.742H157.733C156.843 400.742 155.961 400.566 155.139 400.226C154.317 399.885 153.57 399.386 152.94 398.757C152.311 398.127 151.812 397.38 151.471 396.558C151.13 395.735 150.955 394.854 150.955 393.964V222.422C150.955 220.625 151.669 218.901 152.94 217.63C154.211 216.359 155.935 215.645 157.733 215.645H158.565C159.922 215.642 161.247 215.234 162.371 214.474C163.495 213.713 164.366 212.634 164.872 211.376L169.54 199.641C170.061 198.287 171.015 197.142 172.253 196.385C173.583 195.6 175.098 195.183 176.643 195.179H255.443C256.502 195.178 257.552 195.37 258.542 195.746C259.918 196.3 261.065 197.303 261.799 198.592L269.818 212.256C270.416 213.277 271.27 214.123 272.297 214.711C273.323 215.299 274.485 215.609 275.668 215.609H464.31C466.108 215.609 467.832 216.323 469.103 217.594C470.374 218.865 471.088 220.589 471.088 222.386V393.964C471.088 394.854 470.912 395.735 470.572 396.558C470.231 397.38 469.732 398.127 469.103 398.757C468.473 399.386 467.726 399.885 466.904 400.226C466.082 400.566 465.2 400.742 464.31 400.742Z" fill="#006494"/>
<path opacity="0.1" d="M464.31 400.742H157.733C156.843 400.742 155.961 400.566 155.139 400.226C154.317 399.885 153.57 399.386 152.94 398.757C152.311 398.127 151.812 397.38 151.471 396.558C151.13 395.735 150.955 394.854 150.955 393.964V222.422C150.955 220.625 151.669 218.901 152.94 217.63C154.211 216.359 155.935 215.645 157.733 215.645H158.565C159.922 215.642 161.247 215.234 162.371 214.474C163.495 213.713 164.366 212.634 164.872 211.376L169.54 199.641C170.061 198.287 171.015 197.142 172.253 196.385C173.583 195.6 175.098 195.183 176.643 195.179H255.443C256.502 195.178 257.552 195.37 258.542 195.746C259.918 196.3 261.065 197.303 261.799 198.592L269.818 212.256C270.416 213.277 271.27 214.123 272.297 214.711C273.323 215.299 274.485 215.609 275.668 215.609H464.31C466.108 215.609 467.832 216.323 469.103 217.594C470.374 218.865 471.088 220.589 471.088 222.386V393.964C471.088 394.854 470.912 395.735 470.572 396.558C470.231 397.38 469.732 398.127 469.103 398.757C468.473 399.386 467.726 399.885 466.904 400.226C466.082 400.566 465.2 400.742 464.31 400.742Z" fill="#263238"/>
<path d="M464.31 400.742H157.733C156.843 400.742 155.961 400.566 155.139 400.226C154.317 399.885 153.57 399.386 152.94 398.757C152.311 398.127 151.812 397.38 151.471 396.558C151.13 395.735 150.955 394.854 150.955 393.964V222.422C150.955 220.625 151.669 218.901 152.94 217.63C154.211 216.359 155.935 215.645 157.733 215.645H158.565C159.922 215.642 161.247 215.234 162.371 214.474C163.495 213.713 164.366 212.634 164.872 211.376L169.54 199.641C170.061 198.287 171.015 197.142 172.253 196.385C173.583 195.6 175.098 195.183 176.643 195.179H255.443C256.502 195.178 257.552 195.37 258.542 195.746C259.918 196.3 261.065 197.303 261.799 198.592L269.818 212.256C270.416 213.277 271.27 214.123 272.297 214.711C273.323 215.299 274.485 215.609 275.668 215.609H464.31C466.108 215.609 467.832 216.323 469.103 217.594C470.374 218.865 471.088 220.589 471.088 222.386V393.964C471.088 394.854 470.912 395.735 470.572 396.558C470.231 397.38 469.732 398.127 469.103 398.757C468.473 399.386 467.726 399.885 466.904 400.226C466.081 400.566 465.2 400.742 464.31 400.742V400.742Z" stroke="#263238" stroke-miterlimit="10"/>
<path d="M237.582 215.066H188.522C187.351 215.066 186.229 214.601 185.401 213.773C184.573 212.945 184.108 211.823 184.108 210.652C184.106 210.071 184.219 209.496 184.44 208.959C184.662 208.422 184.986 207.934 185.396 207.523C185.807 207.112 186.294 206.786 186.83 206.563C187.366 206.341 187.941 206.226 188.522 206.226H237.582C238.756 206.226 239.882 206.692 240.712 207.522C241.542 208.352 242.008 209.478 242.008 210.652C242.008 211.233 241.893 211.808 241.671 212.344C241.448 212.88 241.122 213.367 240.711 213.777C240.3 214.187 239.812 214.512 239.275 214.733C238.738 214.955 238.163 215.068 237.582 215.066Z" fill="white"/>
<path d="M464.31 430.675H157.733C155.935 430.675 154.211 429.961 152.94 428.689C151.669 427.418 150.955 425.694 150.955 423.897V252.356C150.955 250.558 151.669 248.834 152.94 247.563C154.211 246.292 155.935 245.578 157.733 245.578H158.565C159.922 245.577 161.248 245.17 162.372 244.409C163.496 243.648 164.367 242.568 164.872 241.309L169.54 229.586C170.058 228.23 171.013 227.085 172.253 226.33C173.581 225.54 175.098 225.123 176.643 225.124H255.443C256.502 225.123 257.552 225.315 258.542 225.691C259.921 226.246 261.07 227.254 261.799 228.549L269.818 242.225C270.416 243.246 271.27 244.092 272.297 244.68C273.323 245.268 274.485 245.578 275.668 245.578H464.31C466.108 245.578 467.832 246.292 469.103 247.563C470.374 248.834 471.088 250.558 471.088 252.356V423.897C471.088 425.694 470.374 427.418 469.103 428.689C467.832 429.961 466.108 430.675 464.31 430.675Z" fill="#263238" stroke="#263238" stroke-miterlimit="10"/>
<path d="M261.087 179.694L212.413 173.664C211.25 173.516 210.193 172.915 209.473 171.991C208.752 171.067 208.426 169.895 208.566 168.731C208.713 167.567 209.317 166.509 210.244 165.79C211.171 165.071 212.346 164.75 213.511 164.896L262.173 170.926C263.337 171.071 264.396 171.672 265.117 172.597C265.838 173.521 266.163 174.695 266.02 175.859C265.948 176.435 265.764 176.991 265.477 177.496C265.19 178 264.807 178.443 264.349 178.799C263.891 179.156 263.367 179.418 262.807 179.571C262.247 179.725 261.663 179.767 261.087 179.694Z" fill="#006494"/>
<path opacity="0.5" d="M261.087 179.694L212.413 173.664C211.25 173.516 210.193 172.915 209.473 171.991C208.752 171.067 208.426 169.895 208.566 168.731C208.713 167.567 209.317 166.509 210.244 165.79C211.171 165.071 212.346 164.75 213.511 164.896L262.173 170.926C263.337 171.071 264.396 171.672 265.117 172.597C265.838 173.521 266.163 174.695 266.02 175.859C265.948 176.435 265.764 176.991 265.477 177.496C265.19 178 264.807 178.443 264.349 178.799C263.891 179.156 263.367 179.418 262.807 179.571C262.247 179.725 261.663 179.767 261.087 179.694Z" fill="white"/>
<path d="M237.582 245.011H188.522C187.941 245.011 187.366 244.896 186.83 244.674C186.294 244.451 185.807 244.125 185.396 243.714C184.986 243.303 184.662 242.815 184.44 242.278C184.219 241.741 184.106 241.166 184.108 240.585C184.108 239.413 184.573 238.289 185.4 237.46C186.227 236.63 187.35 236.162 188.522 236.159H237.582C238.756 236.159 239.882 236.625 240.712 237.455C241.542 238.285 242.008 239.411 242.008 240.585C242.008 241.759 241.542 242.885 240.712 243.715C239.882 244.545 238.756 245.011 237.582 245.011Z" fill="#006494"/>
<path opacity="0.5" d="M237.582 245.011H188.522C187.941 245.011 187.366 244.896 186.83 244.674C186.294 244.451 185.807 244.125 185.396 243.714C184.986 243.303 184.662 242.815 184.44 242.278C184.219 241.741 184.106 241.166 184.108 240.585C184.108 239.413 184.573 238.289 185.4 237.46C186.227 236.63 187.35 236.162 188.522 236.159H237.582C238.756 236.159 239.882 236.625 240.712 237.455C241.542 238.285 242.008 239.411 242.008 240.585C242.008 241.759 241.542 242.885 240.712 243.715C239.882 244.545 238.756 245.011 237.582 245.011Z" fill="white"/>
<path d="M474.332 297.17H147.699C144.189 297.17 141.343 300.016 141.343 303.526V501.177C141.343 504.687 144.189 507.533 147.699 507.533H474.332C477.842 507.533 480.688 504.687 480.688 501.177V303.526C480.688 300.016 477.842 297.17 474.332 297.17Z" fill="white"/>
<g style="mix-blend-mode:multiply">
<path d="M480.688 353.792C443.072 388.948 400.335 418.185 353.937 440.504C285.376 473.295 207.01 495.895 161.351 507.533H474.32C475.156 507.535 475.984 507.371 476.756 507.053C477.529 506.734 478.231 506.266 478.822 505.676C479.414 505.085 479.883 504.384 480.203 503.612C480.523 502.84 480.688 502.013 480.688 501.177V353.792Z" fill="#006494"/>
</g>
<path opacity="0.2" d="M480.688 353.792C443.072 388.948 400.335 418.185 353.937 440.504C285.376 473.295 207.01 495.895 161.351 507.533H474.32C475.156 507.535 475.984 507.371 476.756 507.053C477.529 506.734 478.231 506.266 478.822 505.676C479.414 505.085 479.883 504.384 480.203 503.612C480.523 502.84 480.688 502.013 480.688 501.177V353.792Z" fill="white"/>
<path d="M474.332 297.17H147.699C144.189 297.17 141.343 300.016 141.343 303.526V501.177C141.343 504.687 144.189 507.533 147.699 507.533H474.332C477.842 507.533 480.688 504.687 480.688 501.177V303.526C480.688 300.016 477.842 297.17 474.332 297.17Z" stroke="#263238" stroke-miterlimit="10"/>
<path d="M146.252 315.646V307.204C146.255 305.518 146.927 303.901 148.121 302.71C149.315 301.518 150.933 300.849 152.62 300.849H166.428" stroke="#263238" stroke-miterlimit="10"/>
<path d="M146.252 443.856V325.934" stroke="#263238" stroke-miterlimit="10"/>
<path d="M475.767 484.088V497.439C475.769 498.274 475.606 499.102 475.287 499.875C474.968 500.647 474.5 501.349 473.91 501.941C473.32 502.532 472.619 503.001 471.847 503.322C471.075 503.642 470.247 503.806 469.412 503.806H458.28" stroke="#263238" stroke-miterlimit="10"/>
<path d="M475.767 312.68V474.163" stroke="#263238" stroke-miterlimit="10"/>
<path d="M361.463 374.089H260.557C258.738 374.089 257.264 375.563 257.264 377.382V428.866C257.264 430.684 258.738 432.158 260.557 432.158H361.463C363.281 432.158 364.755 430.684 364.755 428.866V377.382C364.755 375.563 363.281 374.089 361.463 374.089Z" fill="#263238" stroke="#263238" stroke-miterlimit="10"/>
<path d="M361.463 374.089H260.557C258.738 374.089 257.264 375.563 257.264 377.382V388.453C257.264 390.271 258.738 391.745 260.557 391.745H361.463C363.281 391.745 364.755 390.271 364.755 388.453V377.382C364.755 375.563 363.281 374.089 361.463 374.089Z" fill="white" stroke="#263238" stroke-miterlimit="10"/>
<path d="M165.222 197.41L167.429 201.523L172.12 204.899C172.415 205.116 172.769 205.239 173.134 205.252C173.5 205.265 173.861 205.167 174.171 204.972L174.581 204.706C174.879 204.525 175.101 204.242 175.205 203.909C175.31 203.576 175.289 203.216 175.148 202.897L172.482 196.771L174.279 198.17C174.564 198.39 174.924 198.49 175.282 198.45C175.64 198.409 175.968 198.231 176.197 197.953C176.395 197.705 176.504 197.396 176.504 197.078C176.504 196.761 176.395 196.452 176.197 196.204L172.012 190.91L166.778 191.718L165.222 197.41Z" fill="white" stroke="#263238" stroke-miterlimit="10"/>
<path d="M174.629 204.706L170.432 199.195" stroke="#263238" stroke-width="0.5" stroke-linecap="round" stroke-linejoin="round"/>
<path d="M172.169 204.899L168.876 200.534" stroke="#263238" stroke-width="0.5" stroke-linecap="round" stroke-linejoin="round"/>
<path d="M234.278 157.516L240.838 157.902L248.822 163.003C248.822 163.003 249.268 164.559 248.159 164.776C247.049 164.993 241.056 162.786 241.056 162.786L234.652 162.701L234.278 157.516Z" fill="white" stroke="#263238" stroke-miterlimit="10"/>
<path d="M234.615 161.893L241.502 165.005C241.502 165.005 242.611 163.449 241.055 162.786L238.788 161.23" fill="white"/>
<path d="M234.615 161.893L241.502 165.005C241.502 165.005 242.611 163.449 241.055 162.786L238.788 161.23" stroke="#263238" stroke-linejoin="round"/>
<path d="M477.901 279.503L475.055 270.988L471.859 266.61C471.807 266.531 471.729 266.47 471.639 266.439C471.548 266.408 471.45 266.407 471.359 266.437C471.269 266.468 471.19 266.527 471.137 266.606C471.083 266.686 471.057 266.78 471.063 266.876V279.491L473.475 282.662L477.901 279.503Z" fill="white"/>
<path d="M524.284 316.732L500.406 317.576C499.525 317.607 498.653 317.386 497.893 316.94C497.132 316.493 496.515 315.84 496.112 315.055L477.902 279.503C477.902 279.503 473.801 281.722 473.488 282.662C473.174 283.603 486.971 318.203 491.204 328.828C491.56 329.72 492.183 330.48 492.989 331.002C493.795 331.525 494.743 331.785 495.702 331.746L522.391 330.613" fill="white"/>
<path d="M524.284 316.732L500.406 317.576C499.525 317.607 498.653 317.386 497.893 316.94C497.132 316.493 496.515 315.84 496.112 315.055L477.902 279.503C477.902 279.503 473.801 281.722 473.488 282.662C473.174 283.603 486.971 318.203 491.204 328.828C491.56 329.72 492.183 330.48 492.989 331.002C493.795 331.525 494.743 331.785 495.702 331.746L522.391 330.613" stroke="#263238" stroke-miterlimit="10"/>
<path d="M479.65 283.929L475.912 285.472" stroke="#263238" stroke-width="0.75" stroke-miterlimit="10"/>
<g opacity="0.5">
<path d="M524.284 316.732L500.406 317.576C499.525 317.607 498.653 317.386 497.893 316.94C497.132 316.493 496.515 315.84 496.112 315.055L477.902 279.503C477.902 279.503 473.801 281.722 473.488 282.662C473.174 283.603 486.971 318.203 491.204 328.828C491.56 329.72 492.183 330.48 492.989 331.002C493.795 331.525 494.743 331.785 495.702 331.746L522.391 330.613" fill="#006494"/>
<path d="M524.284 316.732L500.406 317.576C499.525 317.607 498.653 317.386 497.893 316.94C497.132 316.493 496.515 315.84 496.112 315.055L477.902 279.503C477.902 279.503 473.801 281.722 473.488 282.662C473.174 283.603 486.971 318.203 491.204 328.828C491.56 329.72 492.183 330.48 492.989 331.002C493.795 331.525 494.743 331.785 495.702 331.746L522.391 330.613" stroke="#263238" stroke-miterlimit="10"/>
<path d="M479.65 283.929L475.912 285.472" stroke="#263238" stroke-width="0.75" stroke-miterlimit="10"/>
</g>
<path d="M477.901 279.503L475.055 270.988L471.859 266.61C471.807 266.531 471.729 266.47 471.639 266.439C471.548 266.408 471.45 266.407 471.359 266.437C471.269 266.468 471.19 266.527 471.137 266.606C471.083 266.686 471.057 266.78 471.063 266.876V279.491L473.475 282.662L477.901 279.503Z" fill="#006494"/>
<path opacity="0.5" d="M477.901 279.503L475.055 270.988L471.859 266.61C471.807 266.531 471.729 266.47 471.639 266.439C471.548 266.408 471.45 266.407 471.359 266.437C471.269 266.468 471.19 266.527 471.137 266.606C471.083 266.686 471.057 266.78 471.063 266.876V279.491L473.475 282.662L477.901 279.503Z" fill="white"/>
<path d="M477.901 279.503L475.055 270.988L471.859 266.61C471.807 266.531 471.729 266.47 471.639 266.439C471.548 266.408 471.45 266.407 471.359 266.437C471.269 266.468 471.19 266.527 471.137 266.606C471.083 266.686 471.057 266.78 471.063 266.876V279.491L473.475 282.662L477.901 279.503Z" stroke="#263238" stroke-miterlimit="10"/>
<path d="M531.677 294.264C530.53 295.717 529.708 297.399 529.265 299.197C528.915 301.512 529.47 310.424 529.47 310.424L517.048 311.823C517.048 311.823 517.989 302.766 518.037 301.259C518.435 299.389 519.227 297.626 520.36 296.087C521.494 294.548 522.943 293.269 524.61 292.334C528.879 290.236 532.509 291.261 531.677 294.264Z" fill="white"/>
<g style="mix-blend-mode:multiply" opacity="0.5">
<path d="M531.593 294.361C529.338 293.745 526.6 293.058 524.285 292.503C522.693 293.451 521.313 294.716 520.232 296.221C519.151 297.725 518.392 299.436 518.001 301.247C518.001 301.826 517.832 303.514 517.664 305.371C518.87 305.094 520.787 304.672 522.21 304.419C523.337 304.237 524.447 303.958 525.527 303.586L525.105 310.822H525.382L529.434 310.364C529.434 310.364 528.879 301.452 529.229 299.136C529.67 297.395 530.475 295.767 531.593 294.361Z" fill="#006494"/>
</g>
<path d="M531.677 294.264C530.53 295.717 529.708 297.399 529.265 299.197C528.915 301.512 529.47 310.424 529.47 310.424L517.048 311.823C517.048 311.823 517.989 302.766 518.037 301.259C518.435 299.389 519.227 297.626 520.36 296.087C521.494 294.548 522.943 293.269 524.61 292.334C528.879 290.236 532.509 291.261 531.677 294.264Z" stroke="#263238" stroke-width="1.00396" stroke-miterlimit="10"/>
<path d="M534.258 295.796C544.557 282.192 519.726 268.058 513.201 281.577C512.292 283.244 511.572 285.008 511.055 286.835C510.066 287.438 507.436 289.054 506.954 289.5C506.472 289.947 508.16 291.092 509.089 291.659C507.316 296.013 507.581 300.596 508.088 301.633C508.968 303.418 513.31 303.442 516.168 302.911C519.026 302.38 520.16 299.643 520.992 298.895C521.824 298.147 525.973 299.1 527.432 299.534C528.891 299.968 532.256 298.485 534.258 295.796Z" fill="white"/>
<g style="mix-blend-mode:multiply" opacity="0.5">
<path d="M524.067 294.493C524.067 294.493 524.284 295.518 522.21 296.35C520.136 297.183 519.726 296.555 519.111 298.003C518.849 298.954 518.321 299.811 517.588 300.471C516.855 301.132 515.948 301.568 514.974 301.729C513.009 302.102 511.024 302.356 509.028 302.489C510.668 303.406 513.925 303.333 516.264 302.911C519.11 302.392 520.256 299.643 521.088 298.895C521.92 298.147 526.069 299.1 527.528 299.534C527.871 299.602 528.223 299.602 528.566 299.534C529.11 298.322 529.436 297.024 529.53 295.699L524.067 294.493Z" fill="#006494"/>
</g>
<path d="M534.258 295.796C544.557 282.192 519.726 268.058 513.201 281.577C512.292 283.244 511.572 285.008 511.055 286.835C510.066 287.438 507.436 289.054 506.954 289.5C506.472 289.947 508.16 291.092 509.089 291.659C507.316 296.013 507.581 300.596 508.088 301.633C508.968 303.418 513.31 303.442 516.168 302.911C519.026 302.38 520.16 299.643 520.992 298.895C521.824 298.147 525.973 299.1 527.432 299.534C528.891 299.968 532.256 298.485 534.258 295.796Z" stroke="#263238" stroke-miterlimit="10"/>
<path d="M514.142 288.029C513.876 288.608 513.43 288.97 513.141 288.837C512.851 288.704 512.827 288.125 513.141 287.547C513.454 286.968 513.852 286.606 514.142 286.739C514.431 286.871 514.407 287.45 514.142 288.029Z" fill="#263238"/>
<path d="M513.901 284.315C513.901 284.315 515.107 283.314 515.348 285.617" stroke="#263238" stroke-width="0.5" stroke-linecap="round" stroke-linejoin="round"/>
<path d="M508.848 293.999C508.848 293.999 508.848 295.205 511.018 295.205" stroke="#263238" stroke-width="0.5" stroke-linecap="round" stroke-linejoin="round"/>
<path d="M505.905 372.919L504.952 384.714C504.952 384.714 498.355 431.676 498.669 437.066C498.983 442.457 499.694 498.15 499.694 498.15L507.642 499.417L516.566 437.645L529.096 374.873L505.905 372.919Z" fill="#006494" stroke="#263238" stroke-miterlimit="10"/>
<path opacity="0.2" d="M505.905 372.919L504.952 384.714C504.952 384.714 498.355 431.676 498.669 437.066C498.983 442.457 499.694 498.15 499.694 498.15L507.642 499.417L516.566 437.645L529.096 374.873L505.905 372.919Z" fill="#263238"/>
<path d="M515.963 415.817C515.963 415.817 512.912 433.774 510.608 442.578C508.305 451.382 508.317 460.161 508.317 469.713C508.317 479.264 504.88 496.872 504.88 496.872" stroke="#263238" stroke-width="0.75" stroke-miterlimit="10"/>
<path d="M522.029 370.025C527.263 367.275 532.883 365.454 534.487 369.108C537.671 376.417 533.86 387.524 533.86 387.524L536.767 438.755L542.085 500.562L534.137 499.284C534.137 499.284 521.933 447.125 520.027 443.941C518.122 440.757 515.119 396.099 515.119 396.099L509.089 390.611" fill="#006494"/>
<path d="M522.029 370.025C527.263 367.275 532.883 365.454 534.487 369.108C537.671 376.417 533.86 387.524 533.86 387.524L536.767 438.755L542.085 500.562L534.137 499.284C534.137 499.284 521.933 447.125 520.027 443.941C518.122 440.757 515.119 396.099 515.119 396.099L509.089 390.611" stroke="#263238" stroke-miterlimit="10"/>
<g opacity="0.2">
<path d="M522.029 370.025C527.263 367.275 532.883 365.454 534.487 369.108C537.671 376.417 533.86 387.524 533.86 387.524L536.767 438.755L542.085 500.562L534.137 499.284C534.137 499.284 521.933 447.125 520.027 443.941C518.122 440.757 515.119 396.099 515.119 396.099L509.089 390.611" fill="#263238"/>
</g>
<path d="M528.228 408.834C528.409 420.713 529.615 426.43 530.556 429.565C531.701 433.388 531.315 440.648 531.315 444.037C531.315 447.426 529.784 443.277 533.233 458.955C536.682 474.633 538.961 496.414 538.961 496.414" stroke="#263238" stroke-width="0.75" stroke-miterlimit="10"/>
<path d="M528.228 382.941C528.228 382.941 528.602 382.169 528.228 400.139C528.228 401.104 528.228 402.032 528.228 402.937" stroke="#263238" stroke-width="0.75" stroke-miterlimit="10"/>
<path d="M510.584 379.528L510.331 384.907L509.089 388.646L510.946 390.816" stroke="#263238" stroke-width="0.75" stroke-linecap="round" stroke-linejoin="round"/>
<path d="M508.148 382.736C508.148 382.736 511.259 385.848 519.34 384.907" stroke="#263238" stroke-width="0.75" stroke-linecap="round" stroke-linejoin="round"/>
<path d="M527.239 380.047C533.269 378.841 533.655 377.177 535.741 375.778C535.78 373.497 535.371 371.231 534.535 369.108C532.956 365.49 527.299 367.275 522.077 370.025L519.545 374.029L505.953 372.919L505.519 378.25C512.497 380.644 519.962 381.261 527.239 380.047Z" fill="#263238"/>
<path d="M507.267 376.61L507.135 378.732L510.584 379.528L510.849 376.742L507.267 376.61Z" fill="white" stroke="#263238" stroke-width="0.75" stroke-miterlimit="10"/>
<path d="M531.34 379.757L530.761 374.475L532.509 373.896L533.39 378.588" fill="#006494"/>
<path d="M531.34 379.757L530.761 374.475L532.509 373.896L533.39 378.588" stroke="#263238" stroke-miterlimit="10"/>
<path d="M517.856 381.518L516.687 375.355H519.617L520.787 380.638" fill="#006494"/>
<path d="M517.856 381.518L516.687 375.355H519.617L520.787 380.638" stroke="#263238" stroke-miterlimit="10"/>
<g opacity="0.2">
<path d="M531.34 379.757L530.761 374.475L532.509 373.896L533.39 378.588" fill="#263238"/>
<path d="M517.856 381.518L516.687 375.355H519.617L520.787 380.638" fill="#263238"/>
</g>
<path d="M504.349 326.175C504.349 326.175 503.348 332.868 500.345 344.265C497.342 355.662 494.315 369.325 494.315 369.325L495.992 376.344L500.997 368.988L504.349 326.175Z" fill="#263238" stroke="#263238" stroke-miterlimit="10"/>
<path d="M512.707 316.491C512.707 316.491 505.688 318.155 505.024 321.495C504.667 323.033 504.441 324.599 504.349 326.175L515.046 317.492L528.421 312.137L512.707 316.491Z" fill="#263238" stroke="#263238" stroke-miterlimit="10"/>
<path d="M514.624 313.91C514.624 313.91 508.92 320.362 506.653 323.015C504.385 325.668 504.373 354.142 504.373 358.327C504.373 362.512 502.106 373.872 505.893 376.151C509.68 378.431 532.847 377.671 535.126 373.872C537.406 370.073 538.913 324.535 538.539 320.362C538.255 318.49 537.518 316.716 536.391 315.194C535.265 313.672 533.783 312.449 532.075 311.63C529.434 310.412 514.624 313.91 514.624 313.91Z" fill="white"/>
<g style="mix-blend-mode:multiply" opacity="0.5">
<path d="M532.075 311.63C531.76 311.503 531.426 311.43 531.086 311.413L529.446 312.27C532.207 314.532 534.106 317.674 534.825 321.17C535.588 326.249 535.518 331.418 534.62 336.474C533.8 342.058 520.558 336.474 523.042 338.548C525.527 340.623 534.825 344.132 535.247 345.989C535.669 347.847 530.64 350.946 528.831 351.163C527.022 351.38 530.037 355.505 531.93 359.014C533.824 362.524 533.136 367.456 528.831 370.809C524.526 374.162 514.528 375.814 510.21 375.983C508.811 375.983 507.943 376.344 507.678 376.754C514.311 378.238 533.088 377.273 535.126 373.872C537.406 370.073 538.913 324.535 538.539 320.362C538.255 318.49 537.518 316.716 536.391 315.194C535.264 313.672 533.783 312.449 532.075 311.63Z" fill="#006494"/>
</g>
<path d="M514.624 313.91C514.624 313.91 508.92 320.362 506.653 323.015C504.385 325.668 504.373 354.142 504.373 358.327C504.373 362.512 502.106 373.872 505.893 376.151C509.68 378.431 532.847 377.671 535.126 373.872C537.406 370.073 538.913 324.535 538.539 320.362C538.255 318.49 537.518 316.716 536.391 315.194C535.265 313.672 533.783 312.449 532.075 311.63C529.434 310.412 514.624 313.91 514.624 313.91Z" stroke="#263238" stroke-miterlimit="10"/>
<path d="M526.286 342.793C520.172 340.888 514.817 335.557 514.817 335.557C516.174 341.892 519.858 347.486 525.141 351.235" fill="white"/>
<path d="M526.286 342.793C520.172 340.888 514.817 335.557 514.817 335.557C516.174 341.892 519.858 347.486 525.141 351.235" stroke="#263238" stroke-width="0.75" stroke-linecap="round" stroke-linejoin="round"/>
<path d="M530.941 307.458L512.719 311.63L511.585 316.949L532.075 311.63L530.941 307.458Z" fill="white" stroke="#263238" stroke-miterlimit="10"/>
<path d="M508.703 507.376L507.642 499.368L499.694 498.102L493.073 502.818L487.14 506.074V507.376H508.703Z" fill="#263238" stroke="#263238" stroke-miterlimit="10"/>
<path d="M543.074 508.003L542.085 500.562L534.137 499.284L527.517 504L521.583 507.268V508.003H543.074Z" fill="#263238" stroke="#263238" stroke-miterlimit="10"/>
<path d="M474.428 272.556L469.532 269.722C469.532 269.722 467.627 269.493 468.447 271.615L473.343 275.39" fill="white"/>
<path d="M474.428 272.556L469.532 269.722C469.532 269.722 467.627 269.493 468.447 271.615L473.343 275.39" stroke="#263238" stroke-linecap="round" stroke-linejoin="round"/>
<path d="M473.705 279.925C473.474 279.343 473.134 278.811 472.704 278.357L471.787 277.368L466.806 271.193C466.806 271.193 465.263 270.156 465.6 272.399L468.688 278.429L463.2 273.28C463.2 273.28 462.163 272.423 462.163 273.629C462.163 274.835 467.144 280.154 467.144 280.154L461.645 277.573C461.645 277.573 460.439 278.429 461.307 279.286C462.175 280.142 466.794 281.866 466.794 281.866L462.682 281.698C462.682 281.698 461.476 282.723 462.332 283.072C463.188 283.422 468 284.435 468 284.435C468.612 284.955 469.31 285.363 470.063 285.641L471.269 287.872L475.888 285.545L473.705 279.925Z" fill="white" stroke="#263238" stroke-linecap="round" stroke-linejoin="round"/>
<path d="M523.018 333.459L495.497 339.911C494.088 340.159 492.637 339.912 491.39 339.21C490.143 338.509 489.178 337.397 488.659 336.064L471.292 287.824L475.911 285.496L495.099 321.037C495.534 321.85 496.219 322.501 497.053 322.895C497.888 323.288 498.826 323.402 499.73 323.22L520.775 317.275" fill="white"/>
<path d="M523.018 333.459L495.497 339.911C494.088 340.159 492.637 339.912 491.39 339.21C490.143 338.509 489.178 337.397 488.659 336.064L471.292 287.824L475.911 285.496L495.099 321.037C495.534 321.85 496.219 322.501 497.053 322.895C497.888 323.288 498.826 323.402 499.73 323.22L520.775 317.275" stroke="#263238" stroke-miterlimit="10"/>
<path d="M478.505 290.043L473.15 292.72" stroke="#263238" stroke-width="0.75" stroke-miterlimit="10"/>
<path d="M519.593 281.722C519.593 281.722 516.662 284.652 518.122 286.847C518.986 288.115 519.645 289.511 520.075 290.984C520.075 290.984 518.869 293.914 519.834 293.914C520.799 293.914 520.316 291.719 522.029 292.214C523.742 292.708 525.442 295.627 523.983 296.604C522.891 297.214 521.734 297.699 520.534 298.051C520.381 298.098 520.245 298.188 520.142 298.311C520.04 298.434 519.976 298.584 519.958 298.743C519.94 298.902 519.969 299.063 520.041 299.205C520.114 299.348 520.226 299.467 520.365 299.546C521.951 300.618 523.778 301.281 525.683 301.476C527.241 301.509 528.797 301.347 530.314 300.993C530.314 300.993 535.138 294.409 538.611 292.696C542.085 290.984 540.565 283.181 540.565 282.204C540.565 281.227 537.152 279.032 537.152 279.032C537.152 279.032 538.129 276.837 533.739 271.965C529.349 267.093 521.052 266.104 520.811 267.816C520.726 268.27 520.773 268.738 520.946 269.165C521.119 269.593 521.411 269.962 521.788 270.228C521.788 270.228 514.467 267.057 511.054 270.47C507.641 273.883 519.593 281.722 519.593 281.722Z" fill="#263238" stroke="#263238" stroke-miterlimit="10"/>
<path d="M519.593 281.722C519.593 281.722 525.526 288.958 534.318 289.657" stroke="white" stroke-width="0.5" stroke-linecap="round" stroke-linejoin="round"/>
<path d="M517.495 283.929C517.495 283.929 520.256 291.961 531.677 294.252" stroke="white" stroke-width="0.5" stroke-linecap="round" stroke-linejoin="round"/>
</svg>
