<svg width="193" height="193" viewBox="0 0 193 193" fill="none" xmlns="http://www.w3.org/2000/svg">
<g clip-path="url(#clip0_10_1466)">
<path d="M74.9948 140.828C77.8698 141.07 80.7526 141.257 83.6199 141.569C87.4506 141.99 89.2766 140.673 90.0847 136.76C90.0847 135.958 90.0847 135.155 90.0847 134.352C89.2611 131.25 90.7374 128.554 91.6077 125.764C92.0662 124.299 93.2939 124.135 94.4128 124.657C96.0679 125.429 99.2692 124.307 99.2692 126.395C99.2692 128.725 100.575 130.518 100.567 132.677L100.715 132.817C100.971 132.77 101.313 132.599 101.468 132.7C107.28 136.534 112.906 132.614 118.571 132.162C122.331 131.866 126.053 131.858 129.768 132.076C134.834 132.373 139.885 131.921 144.819 131.227C152.418 130.159 157.966 125.483 161.727 118.929C162.597 117.417 163.662 115.983 164.415 114.323C169.132 103.911 167.228 93.4215 164.858 83.0251C164.05 79.4714 163.778 75.5435 161.268 72.5041C157.228 65.0693 151.105 59.8711 143.498 56.5277C137.165 53.7455 130.871 50.7607 124.018 49.3267C118.765 48.2278 115.439 44.1051 115.385 38.8134C115.369 37.0288 116.706 36.0546 117.669 34.9168C121.966 29.8355 122.3 26.7649 119.006 21.1303C117.18 20.2497 115.354 19.369 113.536 18.4962C111.966 17.8883 108.928 19.5327 109.409 15.7919C109.876 12.1914 108.057 9.88453 104.421 9.70528C102.098 9.58838 99.7277 9.4403 97.451 9.77542C92.2915 10.5314 88.5928 7.49197 84.5523 5.24748C84.156 5.09941 83.7675 4.95913 83.3712 4.81885C82.3688 4.90457 81.4364 4.74871 80.7215 3.9382C79.5715 3.67322 78.4215 3.40825 77.2715 3.14328C75.4066 3.3459 73.7982 2.74582 72.3762 1.54564C70.861 1.31963 69.3458 1.08583 67.8306 0.859825C67.4809 0.797478 67.1235 0.727338 66.7738 0.664991C60.1768 0.641611 53.5876 -0.722226 46.9906 0.52471C46.3923 2.45746 45.1879 1.92751 43.9602 1.26508C42.6704 1.77944 41.3339 2.01324 39.943 1.84958C38.7308 3.4706 36.5551 3.57191 35.1487 4.86561C34.1541 5.78522 32.8098 6.55677 33.1051 8.2791C34.6281 8.01412 36.2676 8.0375 37.6507 7.44521C47.8065 3.04196 58.2498 3.8213 68.8485 5.17734C81.3121 6.77498 92.5946 10.5392 101.188 20.351C102.75 22.1357 105.089 22.0499 107.358 21.8161C109.495 21.5901 111.772 21.0134 113.489 23.0553C117.895 23.5697 119.278 26.4142 116.783 29.9212C115.183 32.1735 112.797 33.4049 110.396 34.5817C109.899 37.6834 111.057 40.4033 112.316 43.1076C112.805 44.1597 113.908 45.5235 113.598 46.2405C111.989 49.9346 114.957 49.9657 116.885 50.5658C124.709 52.974 132.697 54.7898 139.947 58.9437C148.253 63.6976 155.907 69.0517 159.761 78.2166C163.133 86.2282 163.934 94.684 163.475 103.366C162.69 118.274 154.221 127.299 139.667 129.123C132.285 130.05 124.966 128.507 117.615 129.474C114.538 129.879 111.741 131.437 108.563 131.328C105.89 131.235 104.429 129.746 104.126 127.346C103.784 124.579 106.193 124.836 107.871 124.603C113.24 123.855 118.664 123.395 123.994 122.436C126.038 122.07 129.892 122.132 129.503 119.833C129.162 117.791 125.68 119.459 123.66 119.802C117.211 120.893 112.292 117.378 111.554 110.957C109.666 94.497 126.815 78.6842 142.83 82.1055C143.335 82.2146 143.847 82.3159 144.36 82.3082C144.982 82.3004 145.736 82.3393 145.945 81.5522C146.147 80.7884 145.604 80.3208 144.99 80.087C142.83 79.2765 140.739 78.3335 138.331 78.2478C129.962 77.9517 123.567 81.9029 117.568 87.218C108.702 95.0737 105.229 109.865 111.103 118.469C112.533 120.566 111.282 121.322 109.409 121.446C105.928 121.68 102.44 121.867 98.9507 121.883C93.8223 121.898 93.8378 121.828 95.1277 116.817C95.4229 115.687 95.8192 114.354 94.203 113.941C92.6489 113.544 92.4003 114.705 92.0273 115.936C91.4679 117.776 91.1104 119.677 89.9915 121.361C87.6526 124.868 86.355 128.718 86.254 133.004C86.1141 138.927 85.5857 139.285 79.9367 138.007C79.4317 137.89 78.9499 137.703 78.4448 137.571C73.8448 136.402 73.5185 135.256 75.9894 131.18C79.2529 125.787 81.6928 120.114 80.1543 113.544C79.8513 112.258 79.5249 110.754 77.932 110.777C76.137 110.801 76.8208 112.468 76.6499 113.497C76.2225 116.092 75.1813 117.098 72.8114 115.157C72.3141 114.752 71.7158 114.471 71.1563 114.152C56.517 105.828 50.2309 92.5564 50.5184 76.3774C50.6194 70.8675 51.2177 65.4277 50.2542 59.949C50.0288 58.6709 50.394 57.5798 52.0491 57.6344C52.7795 57.6578 53.7586 58.1254 54.0305 57.1122C54.318 56.0601 53.2768 55.5068 52.6163 54.9924C47.9542 51.3452 43.09 47.9473 38.5754 44.1285C26.9433 34.2933 26.8578 31.4565 29.8571 20.2341C30.5176 17.7636 31.3956 14.4826 35.3352 16.9609C36.0967 17.4441 36.8737 17.4675 37.2312 16.5245C37.5808 15.5893 37.2622 14.2722 36.3531 14.2878C32.3048 14.3657 32.9652 11.1782 32.3436 8.8558C28.373 10.1027 27.899 13.5006 27.7669 16.844C27.6581 19.5873 27.0987 22.0967 26.2983 24.7231C24.7753 29.703 26.174 34.4414 29.2122 38.5641C33.074 43.8012 38.047 47.9005 43.3541 51.5712C45.1569 52.8181 45.8173 54.4313 46.54 56.5121C50.2464 67.228 47.7754 78.2556 48.6146 89.0962C51.241 93.5228 50.8991 99.1418 54.2947 103.264C54.6211 103.662 54.7687 104.2 55.1028 104.582C57.1542 106.951 59.9437 108.993 58.5218 112.819C56.6025 118.002 55.9731 123.901 50.6116 127.182C48.8633 132.965 52.4065 137.15 59.2599 137.127C60.7363 137.127 62.2515 137.181 63.8133 136.745C65.9968 136.137 66.7816 135.155 66.564 132.942C66.1134 128.445 68.087 124.704 70.4026 121.049C71.5293 119.272 73.0289 119.397 74.4043 120.059C75.6864 120.675 76.1914 121.813 75.8729 123.597C75.3134 126.808 73.6661 129.435 71.8634 131.843C69.8975 134.453 69.5012 136.3 72.5161 138.179C72.9823 138.467 73.1299 139.27 73.4252 139.831C74.109 139.917 74.7306 140.119 74.9948 140.86V140.828ZM59.089 133.113C56.587 133.401 55.1417 132.856 54.1238 131.578C53.0981 130.292 54.2093 129.17 54.7299 128.032C56.6491 123.855 59.3143 120.012 60.3245 115.422C60.511 114.58 60.8606 113.349 61.9096 113.544C63.9688 113.926 65.6394 115.282 67.1313 116.685C68.5299 117.994 67.3411 119.319 66.7117 120.527C65.3907 123.052 63.9377 125.585 63.7978 128.453C63.6113 132.193 61.5677 133.355 59.0812 133.113H59.089ZM100.839 12.2147C102.44 12.5421 104.802 11.49 104.949 14.3345C105.035 15.9789 103.722 17.109 102.276 17.0154C100.124 16.8752 98.3057 15.0671 97.8939 13.3604C97.4821 11.638 99.7976 12.62 100.839 12.2147Z" fill="#7E3E0F"/>
<path d="M78.2545 19.8517C77.3353 19.8049 76.4783 19.6801 76.0265 20.4677C75.5357 21.3176 76.3147 21.84 76.7198 22.4715C79.7737 27.2279 81.5577 28.0777 84.4479 26.2142C86.5201 24.8809 86.8006 23.5476 84.6271 22.1363C82.6483 20.8575 80.4358 20.1714 78.2545 19.8517Z" fill="#7E3E0F"/>
<path d="M108.372 32.4521C110.001 31.3838 111.379 29.8166 110.164 28.0388C108.598 25.7464 109.105 24.9823 111.543 24.4599C112.19 24.3195 112.704 23.5398 113.28 23.0564C112.268 22.9628 111.255 22.7913 110.242 22.7991C108.146 22.8147 105.451 25.1538 105.661 25.4034C107.406 27.5164 104.15 31.5398 108.372 32.4521Z" fill="#7E3E0F"/>
</g>
<path d="M13.1681 185.56C8.89882 185.56 5.63014 184.459 3.36207 182.255C1.12069 180.025 0 176.588 0 171.944C0 167.432 1.08067 164.021 3.242 161.713C5.40333 159.378 8.71204 158.21 13.1681 158.21C14.5823 158.21 16.0099 158.381 17.4508 158.722C18.8916 159.063 20.2925 159.535 21.6533 160.139V165.687C20.2658 164.795 18.9317 164.153 17.6509 163.759C16.3701 163.366 15.1693 163.169 14.0487 163.169C12.4744 163.169 11.1402 163.444 10.0462 163.995C8.97887 164.546 8.15169 165.464 7.56466 166.75C7.00432 168.035 6.72414 169.767 6.72414 171.944C6.72414 174.122 7.00432 175.84 7.56466 177.1C8.15169 178.359 9.00555 179.264 10.1262 179.815C11.2736 180.34 12.6745 180.602 14.3288 180.602C15.3161 180.602 16.4368 180.418 17.6909 180.051C18.945 179.684 20.2658 179.054 21.6533 178.162V183.711C20.9062 184.078 20.0524 184.406 19.0918 184.695C18.1579 184.957 17.1706 185.167 16.1299 185.324C15.116 185.482 14.1287 185.56 13.1681 185.56Z" fill="#7E3E0F"/>
<path d="M40.1801 185.639C38.9526 185.639 37.7919 185.521 36.6979 185.285C35.6306 185.075 34.6834 184.721 33.8562 184.222C33.0557 183.698 32.4286 183.003 31.975 182.137C31.5214 181.245 31.2946 180.143 31.2946 178.831C31.2946 177.598 31.5481 176.522 32.0551 175.604C32.5887 174.686 33.3892 173.978 34.4565 173.479C35.5239 172.981 36.8714 172.731 38.499 172.731C39.4063 172.731 40.2868 172.823 41.1407 173.007C41.9945 173.191 42.755 173.44 43.4221 173.755C44.1158 174.069 44.6628 174.411 45.0631 174.778L45.3032 177.611C44.7696 177.296 44.1292 177.047 43.382 176.864C42.6349 176.68 41.8344 176.588 40.9806 176.588C39.6731 176.588 38.7125 176.785 38.0988 177.178C37.5118 177.546 37.2182 178.136 37.2182 178.949C37.2182 179.448 37.365 179.894 37.6585 180.287C37.952 180.681 38.3389 180.982 38.8192 181.192C39.3262 181.402 39.8465 181.507 40.3802 181.507C41.741 181.507 42.6883 181.415 43.2219 181.232C43.7823 181.048 44.0625 180.681 44.0625 180.13V172.81C44.0625 171.603 43.6622 170.738 42.8617 170.213C42.0879 169.662 40.9806 169.386 39.5397 169.386C38.3656 169.386 37.1782 169.596 35.9775 170.016C34.8034 170.41 33.8428 170.895 33.0957 171.472V166.278C33.7895 165.858 34.8568 165.464 36.2977 165.097C37.7653 164.73 39.4063 164.546 41.2207 164.546C41.8611 164.546 42.5682 164.599 43.342 164.704C44.1158 164.808 44.8896 165.005 45.6635 165.294C46.4373 165.556 47.1444 165.95 47.7848 166.474C48.4518 166.999 48.9855 167.668 49.3857 168.481C49.786 169.295 49.9861 170.305 49.9861 171.512L49.9461 180.917C49.9461 182.045 49.5592 182.963 48.7854 183.672C48.0116 184.354 46.8909 184.852 45.4233 185.167C43.9824 185.482 42.2347 185.639 40.1801 185.639Z" fill="#7E3E0F"/>
<path d="M72.2104 185.639C71.8102 185.639 71.2232 185.6 70.4494 185.521C69.6755 185.442 68.875 185.272 68.0479 185.01C67.2207 184.721 66.5136 184.288 65.9266 183.711L67.1273 181.861V192.172H61.2837V169.347C61.2837 168.481 61.5372 167.747 62.0442 167.143C62.5512 166.54 63.2449 166.042 64.1255 165.648C65.006 165.254 66.02 164.966 67.1673 164.782C68.3414 164.572 69.5955 164.467 70.9296 164.467C72.9576 164.467 74.732 164.808 76.2529 165.491C77.8006 166.146 79.0013 167.261 79.8551 168.836C80.7357 170.41 81.176 172.561 81.176 175.289C81.176 177.336 80.8157 179.146 80.0953 180.72C79.3749 182.268 78.3475 183.475 77.0134 184.341C75.7059 185.206 74.1049 185.639 72.2104 185.639ZM70.4494 180.917C71.5167 180.917 72.3972 180.733 73.091 180.366C73.7847 179.999 74.3051 179.395 74.6519 178.556C75.0255 177.69 75.2123 176.536 75.2123 175.093C75.2123 173.886 75.0789 172.863 74.812 172.023C74.5452 171.184 74.0783 170.541 73.4112 170.095C72.7708 169.623 71.8636 169.386 70.6895 169.386C69.4087 169.386 68.4881 169.518 67.9278 169.78C67.3941 170.016 67.1273 170.331 67.1273 170.724V180.09C67.6343 180.379 68.1946 180.589 68.8083 180.72C69.4221 180.851 69.9691 180.917 70.4494 180.917Z" fill="#7E3E0F"/>
<path d="M88.6309 184.962V159.039H99.2957C103.806 159.039 107.122 160.14 109.244 162.342C111.367 164.519 112.428 167.745 112.428 172.02C112.428 176.269 111.367 179.495 109.244 181.697C107.122 183.874 103.806 184.962 99.2957 184.962H88.6309ZM95.0775 180.104H98.5396C100.927 180.104 102.731 179.456 103.952 178.161C105.198 176.865 105.822 174.818 105.822 172.02C105.822 169.17 105.198 167.11 103.952 165.84C102.731 164.545 100.927 163.897 98.5396 163.897H95.0775V180.104Z" fill="#0C3459"/>
<path d="M131.765 185.545C128.369 185.545 125.809 184.664 124.085 182.902C122.387 181.114 121.538 178.497 121.538 175.051C121.538 171.346 122.4 168.69 124.125 167.084C125.876 165.452 128.422 164.635 131.765 164.635C134.02 164.635 135.904 165.011 137.416 165.762C138.955 166.488 140.109 167.615 140.878 169.144C141.674 170.673 142.072 172.642 142.072 175.051C142.072 178.497 141.183 181.114 139.406 182.902C137.628 184.664 135.081 185.545 131.765 185.545ZM131.765 180.92C132.747 180.92 133.556 180.7 134.193 180.259C134.856 179.793 135.347 179.132 135.665 178.277C136.01 177.396 136.182 176.321 136.182 175.051C136.182 173.6 136.01 172.46 135.665 171.631C135.347 170.776 134.856 170.167 134.193 169.805C133.529 169.416 132.72 169.222 131.765 169.222C130.757 169.222 129.935 169.416 129.298 169.805C128.661 170.193 128.184 170.815 127.865 171.67C127.573 172.499 127.428 173.626 127.428 175.051C127.428 177.021 127.772 178.497 128.462 179.482C129.178 180.441 130.279 180.92 131.765 180.92Z" fill="#0C3459"/>
<path d="M161.565 185.467C160.132 185.467 158.779 185.26 157.506 184.846C156.232 184.431 155.105 183.809 154.123 182.98C153.142 182.151 152.372 181.101 151.815 179.832C151.258 178.562 150.979 177.085 150.979 175.401C150.979 173.613 151.245 172.059 151.775 170.737C152.306 169.39 153.035 168.276 153.964 167.395C154.919 166.514 156.033 165.853 157.307 165.413C158.58 164.972 159.986 164.752 161.525 164.752C162.612 164.752 163.727 164.869 164.867 165.102C166.035 165.309 167.056 165.607 167.932 165.996V170.97C167.003 170.556 166.088 170.219 165.186 169.96C164.31 169.675 163.408 169.532 162.48 169.532C160.808 169.532 159.455 169.947 158.421 170.776C157.413 171.579 156.909 172.901 156.909 174.74C156.909 176.684 157.36 178.148 158.262 179.132C159.164 180.117 160.663 180.609 162.758 180.609C163.74 180.609 164.682 180.441 165.584 180.104C166.512 179.767 167.308 179.417 167.971 179.055V183.991C167.043 184.457 166.075 184.82 165.066 185.079C164.058 185.338 162.891 185.467 161.565 185.467Z" fill="#0C3459"/>
<path d="M184.046 185.545C182.614 185.545 181.38 185.39 180.345 185.079C179.337 184.794 178.382 184.47 177.48 184.107V179.016C178.037 179.378 178.661 179.754 179.351 180.143C180.04 180.506 180.796 180.804 181.619 181.037C182.468 181.27 183.357 181.387 184.285 181.387C185.24 181.387 185.903 181.231 186.275 180.92C186.673 180.583 186.872 180.182 186.872 179.715C186.872 179.275 186.673 178.925 186.275 178.666C185.877 178.381 185.36 178.148 184.723 177.966C184.086 177.785 183.41 177.617 182.693 177.461C182.057 177.332 181.42 177.137 180.783 176.878C180.146 176.593 179.576 176.217 179.072 175.751C178.568 175.285 178.157 174.715 177.838 174.041C177.547 173.341 177.401 172.499 177.401 171.515C177.401 170.245 177.653 169.196 178.157 168.366C178.661 167.511 179.324 166.825 180.146 166.307C180.969 165.788 181.858 165.426 182.813 165.218C183.768 164.985 184.696 164.882 185.598 164.907C187.243 164.959 188.543 165.141 189.498 165.452C190.48 165.737 191.368 166.112 192.164 166.579V171.126C191.262 170.634 190.36 170.18 189.458 169.766C188.583 169.325 187.575 169.105 186.434 169.105C185.399 169.105 184.656 169.26 184.205 169.571C183.754 169.882 183.529 170.297 183.529 170.815C183.529 171.307 183.675 171.696 183.967 171.981C184.285 172.266 184.696 172.499 185.2 172.681C185.704 172.836 186.262 172.991 186.872 173.147C187.535 173.302 188.211 173.497 188.901 173.73C189.617 173.937 190.281 174.248 190.891 174.663C191.528 175.051 192.032 175.608 192.403 176.334C192.801 177.034 193 177.966 193 179.132C192.973 180.713 192.536 181.982 191.687 182.941C190.838 183.874 189.737 184.548 188.384 184.962C187.057 185.351 185.612 185.545 184.046 185.545Z" fill="#0C3459"/>
<defs>
<clipPath id="clip0_10_1466">
<rect width="142.003" height="141.722" fill="white" transform="matrix(-1 0 0 1 167.322 0)"/>
</clipPath>
</defs>
</svg>
