<svg width="157" height="156" viewBox="0 0 157 156" fill="none" xmlns="http://www.w3.org/2000/svg">
<g clip-path="url(#clip0_16_620)">
<path d="M60.8796 114.321C63.2135 114.517 65.5537 114.669 67.8812 114.922C70.9909 115.263 72.4732 114.194 73.1292 111.018C73.1292 110.367 73.1292 109.715 73.1292 109.063C72.4606 106.545 73.6591 104.357 74.3655 102.092C74.7377 100.902 75.7343 100.769 76.6426 101.193C77.9862 101.82 80.5849 100.909 80.5849 102.604C80.5849 104.496 81.6446 105.951 81.6383 107.703L81.7582 107.817C81.9663 107.779 82.2439 107.64 82.37 107.722C87.0882 110.835 91.655 107.653 96.2533 107.286C99.3062 107.045 102.328 107.039 105.343 107.216C109.455 107.456 113.555 107.09 117.561 106.526C123.73 105.66 128.233 101.864 131.286 96.5434C131.993 95.3161 132.857 94.152 133.469 92.8045C137.298 84.3523 135.752 75.837 133.828 67.3975C133.172 64.5127 132.952 61.3241 130.914 58.8568C127.634 52.8214 122.664 48.6017 116.488 45.8877C111.348 43.6291 106.238 41.2061 100.675 40.042C96.411 39.15 93.7113 35.8033 93.6672 31.5077C93.6545 30.0589 94.7395 29.2681 95.5216 28.3445C99.0098 24.2196 99.281 21.727 96.6065 17.153C95.1242 16.4381 93.6419 15.7233 92.1659 15.0147C90.8918 14.5212 88.4254 15.8561 88.8165 12.8194C89.195 9.89661 87.719 8.02399 84.767 7.87848C82.881 7.78358 80.9571 7.66338 79.1089 7.93542C74.9206 8.54908 71.9181 6.08177 68.6381 4.25976C68.3164 4.13956 68.0011 4.02568 67.6794 3.91181C66.8657 3.9814 66.1087 3.85487 65.5284 3.19692C64.5949 2.98182 63.6613 2.76672 62.7278 2.55163C61.214 2.71611 59.9082 2.22898 58.7539 1.25471C57.5239 1.07124 56.2939 0.881448 55.0639 0.697982C54.7801 0.647371 54.4899 0.590433 54.2061 0.539821C48.8508 0.520842 43.5019 -0.586283 38.1466 0.425946C37.6609 1.9949 36.6832 1.5647 35.6866 1.02696C34.6395 1.4445 33.5546 1.63429 32.4255 1.50144C31.4415 2.81734 29.6754 2.89958 28.5337 3.94977C27.7263 4.69628 26.635 5.3226 26.8747 6.72074C28.1111 6.50564 29.442 6.52462 30.5648 6.04381C38.8089 2.46938 47.2865 3.10202 55.8902 4.20282C66.0078 5.49974 75.1666 8.55541 82.143 16.5204C83.4108 17.9691 85.3094 17.8995 87.1513 17.7097C88.8859 17.5263 90.7341 17.0581 92.1281 18.7157C95.7045 19.1332 96.8273 21.4423 94.8025 24.2892C93.5032 26.1176 91.5667 27.1171 89.6176 28.0724C89.2139 30.5904 90.1538 32.7983 91.1756 34.9935C91.573 35.8476 92.4687 36.9547 92.2164 37.5368C90.9107 40.5355 93.3202 40.5608 94.8845 41.0479C101.236 43.0028 107.721 44.4769 113.606 47.8489C120.349 51.708 126.562 56.0542 129.691 63.4941C132.428 69.9977 133.078 76.8619 132.706 83.9095C132.069 96.012 125.193 103.338 113.379 104.818C107.386 105.571 101.445 104.319 95.4775 105.103C92.9796 105.432 90.7088 106.697 88.129 106.609C85.9591 106.533 84.7733 105.324 84.5273 103.376C84.2497 101.13 86.2051 101.339 87.5676 101.149C91.9262 100.542 96.329 100.168 100.656 99.3903C102.315 99.0929 105.444 99.1435 105.128 97.2773C104.851 95.6197 102.025 96.9736 100.385 97.2519C95.1495 98.1376 91.1567 95.2844 90.5574 90.0714C89.0247 76.71 102.946 63.8737 115.946 66.651C116.356 66.7396 116.772 66.8218 117.189 66.8155C117.693 66.8092 118.305 66.8408 118.475 66.2018C118.639 65.5818 118.198 65.2022 117.7 65.0125C115.946 64.3545 114.249 63.589 112.294 63.5194C105.5 63.279 100.309 66.4865 95.4396 70.8011C88.2425 77.1782 85.423 89.1857 90.1916 96.1701C91.3522 97.8719 90.3367 98.4856 88.8165 98.5868C85.9907 98.7766 83.1585 98.9284 80.3263 98.9411C76.1632 98.9537 76.1758 98.8968 77.2229 94.8289C77.4626 93.9116 77.7843 92.8298 76.4723 92.4945C75.2108 92.1718 75.0089 93.1145 74.7062 94.114C74.252 95.6071 73.9618 97.1507 73.0535 98.5172C71.1549 101.364 70.1015 104.489 70.0195 107.969C69.906 112.777 69.4771 113.068 64.8913 112.03C64.4813 111.936 64.0903 111.784 63.6803 111.676C59.9461 110.727 59.6812 109.797 61.687 106.489C64.3363 102.111 66.3169 97.505 65.068 92.1718C64.822 91.128 64.557 89.907 63.264 89.9259C61.8069 89.9449 62.362 91.2988 62.2232 92.1339C61.8763 94.2406 61.031 95.0567 59.1072 93.4814C58.7035 93.1524 58.2178 92.9247 57.7636 92.6653C45.8799 85.9087 40.7769 75.1347 41.0103 62.0011C41.0923 57.5283 41.578 53.1124 40.7959 48.665C40.6129 47.6274 40.9094 46.7417 42.2529 46.786C42.8459 46.805 43.6406 47.1846 43.8614 46.3621C44.0948 45.5081 43.2496 45.0589 42.7134 44.6414C38.9288 41.6806 34.9801 38.9223 31.3154 35.8223C21.8727 27.8384 21.8033 25.5355 24.2381 16.4255C24.7743 14.42 25.487 11.7566 28.6851 13.7684C29.3032 14.1606 29.934 14.1796 30.2241 13.4141C30.508 12.6549 30.2494 11.5858 29.5114 11.5984C26.225 11.6617 26.7612 9.07417 26.2566 7.1889C23.0333 8.20113 22.6486 10.9595 22.5413 13.6735C22.453 15.9004 21.9989 17.9375 21.3492 20.0695C20.1129 24.1121 21.2483 27.9586 23.7146 31.3052C26.8495 35.5566 30.8865 38.8843 35.1946 41.8641C36.658 42.8763 37.1942 44.1858 37.7808 45.875C40.7896 54.5738 38.7837 63.5257 39.4649 72.3258C41.5969 75.9192 41.3194 80.4806 44.0759 83.8273C44.3408 84.1499 44.4607 84.5864 44.7319 84.8964C46.3971 86.8197 48.6616 88.4772 47.5073 91.5835C45.9493 95.7905 45.4383 100.58 41.086 103.243C39.6668 107.937 42.5431 111.335 48.1065 111.316C49.305 111.316 50.535 111.36 51.8028 111.006C53.5753 110.512 54.2124 109.715 54.0358 107.918C53.6699 104.268 55.2721 101.231 57.1518 98.2642C58.0664 96.8217 59.2838 96.923 60.4003 97.4607C61.441 97.9605 61.851 98.8842 61.5924 100.333C61.1383 102.939 59.801 105.071 58.3376 107.026C56.7418 109.146 56.4201 110.645 58.8675 112.17C59.2459 112.404 59.3658 113.055 59.6055 113.511C60.1606 113.58 60.6652 113.745 60.8796 114.346V114.321ZM47.9677 108.057C45.9367 108.292 44.7634 107.849 43.9371 106.811C43.1045 105.767 44.0065 104.856 44.4291 103.933C45.9871 100.542 48.1507 97.4228 48.9707 93.6965C49.1221 93.0132 49.4059 92.0137 50.2574 92.1718C51.929 92.4818 53.2851 93.5826 54.4962 94.7214C55.6316 95.7842 54.6665 96.8597 54.1556 97.8403C53.0833 99.8901 51.9038 101.946 51.7902 104.274C51.6388 107.311 49.9799 108.254 47.9614 108.057H47.9677ZM81.8591 9.91559C83.1585 10.1813 85.076 9.32723 85.1959 11.6364C85.2653 12.9713 84.1993 13.8886 83.026 13.8127C81.2788 13.6988 79.8028 12.2311 79.4685 10.8456C79.1342 9.44743 81.0139 10.2446 81.8591 9.91559Z" fill="white"/>
<path d="M63.5258 16.1151C62.7796 16.0771 62.0839 15.9758 61.7171 16.6151C61.3187 17.305 61.9511 17.7291 62.28 18.2418C64.759 22.1028 66.2072 22.7928 68.5534 21.28C70.2356 20.1976 70.4632 19.1153 68.6988 17.9696C67.0925 16.9316 65.2965 16.3746 63.5258 16.1151Z" fill="white"/>
<path d="M87.9744 26.3438C89.2961 25.4766 90.4154 24.2044 89.4289 22.7613C88.1578 20.9004 88.5688 20.2801 90.5482 19.856C91.0731 19.742 91.4905 19.1091 91.9585 18.7167C91.1364 18.6407 90.3143 18.5014 89.4921 18.5078C87.791 18.5204 85.6029 20.4193 85.7736 20.6219C87.1902 22.3372 84.5468 25.6032 87.9744 26.3438Z" fill="white"/>
</g>
<path d="M10.6895 150.633C7.22382 150.633 4.57039 149.739 2.72924 147.95C0.909746 146.14 0 143.35 0 139.58C0 135.917 0.877255 133.148 2.63177 131.274C4.38628 129.379 7.07219 128.431 10.6895 128.431C11.8375 128.431 12.9964 128.57 14.166 128.846C15.3357 129.123 16.4729 129.507 17.5776 129.996V134.501C16.4512 133.777 15.3682 133.255 14.3285 132.935C13.2888 132.616 12.3141 132.456 11.4043 132.456C10.1263 132.456 9.04331 132.68 8.15522 133.127C7.2888 133.574 6.61732 134.32 6.14078 135.363C5.68591 136.407 5.45848 137.812 5.45848 139.58C5.45848 141.348 5.68591 142.743 6.14078 143.765C6.61732 144.787 7.31046 145.522 8.2202 145.969C9.15161 146.395 10.2888 146.608 11.6318 146.608C12.4332 146.608 13.3429 146.459 14.361 146.161C15.379 145.863 16.4512 145.352 17.5776 144.627V149.132C16.9711 149.43 16.278 149.696 15.4982 149.93C14.74 150.143 13.9386 150.314 13.0938 150.442C12.2707 150.569 11.4693 150.633 10.6895 150.633Z" fill="white"/>
<path d="M32.6171 150.697C31.6207 150.697 30.6785 150.601 29.7904 150.41C28.9239 150.239 28.155 149.952 27.4835 149.547C26.8337 149.121 26.3247 148.557 25.9564 147.854C25.5882 147.13 25.4041 146.235 25.4041 145.171C25.4041 144.17 25.6099 143.296 26.0214 142.551C26.4546 141.806 27.1045 141.231 27.9709 140.826C28.8373 140.421 29.9312 140.219 31.2525 140.219C31.9889 140.219 32.7037 140.294 33.3969 140.443C34.09 140.592 34.7073 140.794 35.2488 141.05C35.812 141.305 36.2561 141.582 36.581 141.88L36.7759 144.18C36.3427 143.925 35.8228 143.722 35.2164 143.573C34.6099 143.424 33.96 143.35 33.2669 143.35C32.2055 143.35 31.4257 143.509 30.9276 143.829C30.451 144.127 30.2128 144.606 30.2128 145.266C30.2128 145.671 30.3319 146.033 30.5702 146.353C30.8084 146.672 31.1225 146.917 31.5124 147.087C31.9239 147.258 32.3463 147.343 32.7795 147.343C33.8842 147.343 34.6532 147.268 35.0864 147.119C35.5413 146.97 35.7687 146.672 35.7687 146.225V140.283C35.7687 139.303 35.4438 138.6 34.794 138.175C34.1658 137.727 33.2669 137.504 32.0972 137.504C31.1442 137.504 30.1803 137.674 29.2055 138.015C28.2525 138.334 27.4727 138.728 26.8662 139.197V134.98C27.4294 134.639 28.2958 134.32 29.4655 134.022C30.6568 133.723 31.9889 133.574 33.4618 133.574C33.9817 133.574 34.5557 133.617 35.1839 133.702C35.812 133.787 36.4402 133.947 37.0683 134.181C37.6965 134.394 38.2705 134.714 38.7904 135.14C39.3319 135.566 39.7651 136.109 40.09 136.769C40.4149 137.429 40.5774 138.249 40.5774 139.229L40.5449 146.864C40.5449 147.779 40.2308 148.525 39.6026 149.1C38.9745 149.654 38.0647 150.058 36.8734 150.314C35.7037 150.569 34.2849 150.697 32.6171 150.697Z" fill="white"/>
<path d="M58.6185 150.697C58.2935 150.697 57.817 150.665 57.1889 150.601C56.5607 150.537 55.9109 150.399 55.2394 150.186C54.5679 149.952 53.9939 149.6 53.5174 149.132L54.4921 147.63V156H49.7484V137.472C49.7484 136.769 49.9542 136.173 50.3658 135.683C50.7773 135.193 51.3405 134.788 52.0553 134.469C52.7701 134.149 53.5932 133.915 54.5246 133.766C55.4777 133.596 56.4957 133.51 57.5787 133.51C59.2249 133.51 60.6654 133.787 61.9 134.341C63.1563 134.873 64.1311 135.779 64.8242 137.056C65.539 138.334 65.8964 140.081 65.8964 142.295C65.8964 143.957 65.604 145.426 65.0192 146.704C64.4343 147.96 63.6004 148.94 62.5174 149.643C61.456 150.346 60.1564 150.697 58.6185 150.697ZM57.1889 146.864C58.0553 146.864 58.7701 146.715 59.3333 146.416C59.8964 146.118 60.3188 145.628 60.6004 144.947C60.9036 144.244 61.0553 143.307 61.0553 142.136C61.0553 141.156 60.947 140.325 60.7304 139.644C60.5138 138.962 60.1347 138.441 59.5932 138.079C59.0733 137.695 58.3369 137.504 57.3838 137.504C56.3441 137.504 55.5968 137.61 55.1419 137.823C54.7087 138.015 54.4921 138.27 54.4921 138.59V146.193C54.9037 146.427 55.3585 146.597 55.8567 146.704C56.3549 146.81 56.799 146.864 57.1889 146.864Z" fill="white"/>
<path d="M71.9492 150.147V129.103H80.6066C84.2677 129.103 86.9597 129.997 88.6825 131.785C90.4054 133.551 91.2668 136.17 91.2668 139.641C91.2668 143.09 90.4054 145.709 88.6825 147.497C86.9597 149.263 84.2677 150.147 80.6066 150.147H71.9492ZM77.1824 146.203H79.9928C81.9311 146.203 83.3955 145.677 84.3861 144.625C85.3983 143.574 85.9044 141.912 85.9044 139.641C85.9044 137.327 85.3983 135.655 84.3861 134.624C83.3955 133.572 81.9311 133.047 79.9928 133.047H77.1824V146.203Z" fill="white"/>
<path d="M106.964 150.62C104.208 150.62 102.13 149.905 100.73 148.475C99.3515 147.023 98.6623 144.899 98.6623 142.101C98.6623 139.094 99.3622 136.938 100.762 135.634C102.183 134.309 104.251 133.646 106.964 133.646C108.795 133.646 110.324 133.951 111.552 134.561C112.801 135.15 113.737 136.065 114.362 137.306C115.008 138.547 115.331 140.145 115.331 142.101C115.331 144.899 114.61 147.023 113.167 148.475C111.724 149.905 109.656 150.62 106.964 150.62ZM106.964 146.866C107.761 146.866 108.418 146.687 108.935 146.329C109.473 145.951 109.872 145.414 110.13 144.72C110.41 144.005 110.55 143.132 110.55 142.101C110.55 140.924 110.41 139.998 110.13 139.325C109.872 138.631 109.473 138.137 108.935 137.842C108.397 137.527 107.74 137.369 106.964 137.369C106.146 137.369 105.478 137.527 104.962 137.842C104.445 138.158 104.057 138.662 103.799 139.357C103.562 140.03 103.443 140.945 103.443 142.101C103.443 143.7 103.723 144.899 104.283 145.698C104.865 146.476 105.758 146.866 106.964 146.866Z" fill="white"/>
<path d="M131.155 150.557C129.992 150.557 128.894 150.389 127.86 150.052C126.826 149.716 125.911 149.211 125.114 148.538C124.317 147.865 123.693 147.013 123.24 145.982C122.788 144.951 122.562 143.753 122.562 142.385C122.562 140.934 122.777 139.672 123.208 138.599C123.639 137.506 124.231 136.601 124.985 135.886C125.76 135.171 126.665 134.635 127.698 134.277C128.732 133.919 129.873 133.741 131.122 133.741C132.005 133.741 132.91 133.835 133.836 134.025C134.784 134.193 135.613 134.435 136.323 134.75V138.789C135.57 138.452 134.827 138.179 134.094 137.968C133.384 137.737 132.652 137.621 131.898 137.621C130.541 137.621 129.443 137.958 128.603 138.631C127.784 139.283 127.375 140.356 127.375 141.849C127.375 143.427 127.741 144.615 128.474 145.414C129.206 146.213 130.423 146.613 132.124 146.613C132.921 146.613 133.685 146.476 134.417 146.203C135.171 145.93 135.817 145.646 136.356 145.351V149.358C135.602 149.737 134.816 150.031 133.998 150.241C133.179 150.452 132.232 150.557 131.155 150.557Z" fill="white"/>
<path d="M149.405 150.62C148.242 150.62 147.241 150.494 146.401 150.241C145.582 150.01 144.807 149.747 144.075 149.453V145.32C144.527 145.614 145.033 145.919 145.593 146.235C146.153 146.529 146.767 146.771 147.434 146.96C148.123 147.149 148.845 147.244 149.599 147.244C150.374 147.244 150.912 147.118 151.214 146.866C151.537 146.592 151.698 146.266 151.698 145.887C151.698 145.53 151.537 145.246 151.214 145.036C150.891 144.804 150.471 144.615 149.954 144.468C149.437 144.32 148.888 144.184 148.307 144.058C147.79 143.952 147.273 143.795 146.756 143.584C146.239 143.353 145.776 143.048 145.367 142.669C144.958 142.291 144.624 141.828 144.365 141.281C144.129 140.713 144.01 140.03 144.01 139.23C144.01 138.2 144.215 137.348 144.624 136.675C145.033 135.981 145.571 135.423 146.239 135.003C146.907 134.582 147.628 134.288 148.403 134.119C149.179 133.93 149.932 133.846 150.665 133.867C152 133.909 153.055 134.056 153.83 134.309C154.627 134.54 155.349 134.845 155.995 135.224V138.915C155.263 138.515 154.53 138.147 153.798 137.811C153.087 137.453 152.269 137.274 151.343 137.274C150.503 137.274 149.9 137.4 149.534 137.653C149.168 137.905 148.985 138.242 148.985 138.662C148.985 139.062 149.103 139.378 149.34 139.609C149.599 139.84 149.932 140.03 150.342 140.177C150.751 140.303 151.203 140.429 151.698 140.555C152.237 140.682 152.786 140.839 153.346 141.029C153.927 141.197 154.466 141.449 154.961 141.786C155.478 142.101 155.887 142.554 156.189 143.143C156.512 143.71 156.673 144.468 156.673 145.414C156.652 146.697 156.296 147.728 155.607 148.506C154.918 149.263 154.024 149.81 152.926 150.147C151.849 150.462 150.675 150.62 149.405 150.62Z" fill="white"/>
<defs>
<clipPath id="clip0_16_620">
<rect width="115.274" height="115.046" fill="white" transform="matrix(-1 0 0 1 135.828 0)"/>
</clipPath>
</defs>
</svg>
