<svg width="626" height="740" viewBox="0 0 626 740" fill="none" xmlns="http://www.w3.org/2000/svg">
<rect width="626" height="740" rx="12" fill="#D0EBFA"/>
<g opacity="0.6">
<path d="M489.677 174.2C430.079 140.139 377.296 168.18 350.892 198.04C324.488 227.899 304.815 258.059 271.669 263.597C238.523 269.136 188.232 255.085 150.763 281.477C113.295 307.869 113.439 377.965 143.106 417.709C172.772 457.453 249.527 476.453 338.081 489.227C369.856 494.04 402.283 492.24 433.33 483.941L473.555 469.337C493.205 460.367 509.675 450.266 523.618 442.066C544.832 429.545 552.309 399.023 556.367 376.665C562.257 343.161 561.746 308.843 554.862 275.529C545.976 233.558 525.713 194.777 489.677 174.2Z" fill="#668DEB"/>
<path d="M489.677 174.2C430.079 140.139 377.296 168.18 350.892 198.04C324.488 227.899 304.815 258.059 271.669 263.597C238.523 269.136 188.232 255.085 150.763 281.477C113.295 307.869 113.439 377.965 143.106 417.709C172.772 457.453 249.527 476.453 338.081 489.227C369.856 494.04 402.283 492.24 433.33 483.941L473.555 469.337C493.205 460.367 509.675 450.266 523.618 442.066C544.832 429.545 552.309 399.023 556.367 376.665C562.257 343.161 561.746 308.843 554.862 275.529C545.976 233.558 525.713 194.777 489.677 174.2Z" fill="#C5E2F9"/>
<path opacity="0.8" d="M580.784 215.919C579.436 193.669 564.241 186.373 554.609 196.968C552.321 199.553 550.788 202.717 550.178 206.115C549.569 209.513 549.906 213.013 551.154 216.232C554.537 225.37 560.352 241.588 563.82 254.278C568.925 273.013 567.215 287.485 573.175 279.827C579.135 272.17 582.482 244.02 580.784 215.919Z" fill="#668DEB"/>
<path d="M580.784 215.919C579.436 193.669 564.241 186.373 554.609 196.968C552.321 199.553 550.788 202.717 550.178 206.115C549.569 209.513 549.906 213.013 551.154 216.232C554.537 225.37 560.352 241.588 563.82 254.278C568.925 273.013 567.215 287.485 573.175 279.827C579.135 272.17 582.482 244.02 580.784 215.919Z" fill="#C5E2F9"/>
<path d="M323.657 212.512C333.012 210.814 344.932 188.672 360.259 179.305C375.586 169.938 361.968 163.124 347.52 169.938C347.52 169.938 336.444 172.491 327.931 189.527C319.419 206.564 314.29 214.209 323.657 212.512Z" fill="#668DEB"/>
<path d="M323.657 212.512C333.012 210.814 344.932 188.672 360.259 179.305C375.586 169.938 361.968 163.124 347.52 169.938C347.52 169.938 336.444 172.491 327.931 189.527C319.419 206.564 314.29 214.209 323.657 212.512Z" fill="#C5E2F9"/>
<path d="M308.332 200.592C315.929 197.546 324.212 176.861 315.556 177.921C314.462 178.079 313.427 178.517 312.552 179.192C311.677 179.867 310.991 180.756 310.559 181.774C307.79 187.926 301.493 203.325 308.332 200.592Z" fill="#668DEB"/>
<path d="M308.332 200.592C315.929 197.546 324.212 176.861 315.556 177.921C314.462 178.079 313.427 178.517 312.552 179.192C311.677 179.867 310.991 180.756 310.559 181.774C307.79 187.926 301.493 203.325 308.332 200.592Z" fill="#C5E2F9"/>
<g opacity="0.8" filter="url(#filter0_f)">
<path d="M337.726 593.908C472.259 593.908 581.319 589.855 581.319 584.854C581.319 579.854 472.259 575.8 337.726 575.8C203.193 575.8 94.1328 579.854 94.1328 584.854C94.1328 589.855 203.193 593.908 337.726 593.908Z" fill="#668DEB" fill-opacity="0.2"/>
</g>
<path d="M449.318 236.356C448.839 236.356 448.38 236.546 448.041 236.885C447.702 237.224 447.512 237.683 447.512 238.162V247.421H414.51V238.162C414.51 237.683 414.32 237.224 413.981 236.885C413.643 236.546 413.183 236.356 412.704 236.356C412.225 236.356 411.766 236.546 411.427 236.885C411.089 237.224 410.898 237.683 410.898 238.162V471.377C410.898 471.856 411.089 472.315 411.427 472.654C411.766 472.993 412.225 473.183 412.704 473.183C413.183 473.183 413.643 472.993 413.981 472.654C414.32 472.315 414.51 471.856 414.51 471.377V419.207H447.512V471.377C447.512 471.856 447.702 472.315 448.041 472.654C448.38 472.993 448.839 473.183 449.318 473.183C449.797 473.183 450.256 472.993 450.595 472.654C450.934 472.315 451.124 471.856 451.124 471.377V238.126C451.115 237.653 450.92 237.203 450.582 236.872C450.245 236.541 449.791 236.356 449.318 236.356V236.356ZM447.512 415.632H414.51V403.929H447.512V415.632ZM447.512 400.305H414.51V388.614H447.512V400.305ZM447.512 384.99H414.51V373.335H447.512V384.99ZM447.512 369.687H414.51V358.08H447.512V369.687ZM447.512 354.396H414.51V342.922H447.512V354.396ZM447.512 339.154H414.51V327.607H447.512V339.154ZM447.512 323.983H414.51V312.328H447.512V323.983ZM447.512 308.668H414.51V297.014H447.512V308.668ZM447.512 293.389H414.51V281.699H447.512V293.389ZM447.512 278.075H414.51V266.36H447.512V278.075ZM447.512 262.748H414.51V251.033H447.512V262.748Z" fill="white"/>
<path d="M159.19 424.307C159.19 424.307 186.22 387.308 173.036 378.555C159.322 369.513 152.881 396.904 149.979 410.353C143.791 439.056 145.537 445.149 149.69 438.84L159.19 424.307Z" fill="#668DEB"/>
<path opacity="0.5" d="M159.19 424.307C159.19 424.307 186.22 387.308 173.036 378.555C159.322 369.513 152.881 396.904 149.979 410.353C143.791 439.056 145.537 445.149 149.69 438.84L159.19 424.307Z" fill="white"/>
<path d="M169.328 447.063C169.328 447.063 206.905 420.84 197.261 408.342C187.232 395.327 172.242 419.178 165.126 430.929C149.944 456.069 149.631 462.402 155.603 457.779L169.328 447.063Z" fill="#668DEB"/>
<path opacity="0.5" d="M169.328 447.063C169.328 447.063 206.905 420.84 197.261 408.342C187.232 395.327 172.242 419.178 165.126 430.929C149.944 456.069 149.631 462.402 155.603 457.779L169.328 447.063Z" fill="white"/>
<path d="M170.148 477.476C170.148 477.476 202.656 462.871 197.105 451.915C191.326 440.513 176.408 456.55 169.269 464.521C154.014 481.545 152.858 486.337 158.096 483.677L170.148 477.476Z" fill="#668DEB"/>
<path opacity="0.5" d="M170.148 477.476C170.148 477.476 202.656 462.871 197.105 451.915C191.326 440.513 176.408 456.55 169.269 464.521C154.014 481.545 152.858 486.337 158.096 483.677L170.148 477.476Z" fill="white"/>
<path d="M172.075 508.021C172.075 508.021 204.583 493.417 199.045 482.461C193.253 471.071 178.348 487.096 171.196 495.078C155.953 512.103 154.786 516.895 160.035 514.222L172.075 508.021Z" fill="#668DEB"/>
<path opacity="0.5" d="M172.075 508.021C172.075 508.021 204.583 493.417 199.045 482.461C193.253 471.071 178.348 487.096 171.196 495.078C155.953 512.103 154.786 516.895 160.035 514.222L172.075 508.021Z" fill="white"/>
<path d="M133.943 439.767C133.943 439.767 98.2079 411.075 88.925 423.838C79.293 437.082 106.335 444.823 119.639 448.339C148.029 455.84 154.194 454.359 148.078 449.928L133.943 439.767Z" fill="#668DEB"/>
<path opacity="0.5" d="M133.943 439.767C133.943 439.767 98.2079 411.075 88.925 423.838C79.293 437.082 106.335 444.823 119.639 448.339C148.029 455.84 154.194 454.359 148.078 449.928L133.943 439.767Z" fill="white"/>
<path d="M135.003 463.738C135.003 463.738 94.2836 442.717 87.7218 457.08C80.8951 472.022 108.948 474.189 122.638 474.984C151.955 476.693 157.71 474.021 150.835 470.89L135.003 463.738Z" fill="#668DEB"/>
<path opacity="0.5" d="M135.003 463.738C135.003 463.738 94.2836 442.717 87.7218 457.08C80.8951 472.022 108.948 474.189 122.638 474.984C151.955 476.693 157.71 474.021 150.835 470.89L135.003 463.738Z" fill="white"/>
<path d="M139.928 490.612C139.928 490.612 105.012 473.756 99.7983 486.073C94.3683 498.871 118.135 500.051 129.778 500.4C154.604 501.171 159.408 498.763 153.521 496.355L139.928 490.612Z" fill="#668DEB"/>
<path opacity="0.5" d="M139.928 490.612C139.928 490.612 105.012 473.756 99.7983 486.073C94.3683 498.871 118.135 500.051 129.778 500.4C154.604 501.171 159.408 498.763 153.521 496.355L139.928 490.612Z" fill="white"/>
<path d="M141.636 512.32C141.636 512.32 108.695 491.852 102.205 503.543C95.4507 515.691 118.965 519.387 130.499 520.977C155.109 524.372 160.13 522.506 154.579 519.411L141.636 512.32Z" fill="#668DEB"/>
<path opacity="0.5" d="M141.636 512.32C141.636 512.32 108.695 491.852 102.205 503.543C95.4507 515.691 118.965 519.387 130.499 520.977C155.109 524.372 160.13 522.506 154.579 519.411L141.636 512.32Z" fill="white"/>
<path d="M138.519 403.418C138.519 403.418 132.33 349.683 112.031 355.174C90.9486 360.905 108.599 388.091 117.557 401.239C136.592 429.22 143.6 432.302 142.095 423.561L138.519 403.418Z" fill="#668DEB"/>
<path opacity="0.5" d="M138.519 403.418C138.519 403.418 132.33 349.683 112.031 355.174C90.9486 360.905 108.599 388.091 117.557 401.239C136.592 429.22 143.6 432.302 142.095 423.561L138.519 403.418Z" fill="white"/>
<path d="M116.184 374.751C116.184 374.751 147.078 432.639 151.87 459.512C157.384 490.383 158.275 524.865 154.471 551.883" stroke="#668DEB" stroke-width="1.25197" stroke-linecap="round" stroke-linejoin="round"/>
<path d="M146.996 441.633L162.13 395.279" stroke="#668DEB" stroke-width="1.25197" stroke-linecap="round" stroke-linejoin="round"/>
<path d="M151.871 459.512L180.358 423.693" stroke="#668DEB" stroke-width="1.25197" stroke-linecap="round" stroke-linejoin="round"/>
<path d="M150.054 452.999L108.805 435.673" stroke="#668DEB" stroke-width="1.25197" stroke-linecap="round" stroke-linejoin="round"/>
<path d="M155.445 483.773L186.46 460.006" stroke="#668DEB" stroke-width="1.25197" stroke-linecap="round" stroke-linejoin="round"/>
<path d="M153.798 473.575L121.398 466.833" stroke="#668DEB" stroke-width="1.25197" stroke-linecap="round" stroke-linejoin="round"/>
<path d="M155.349 498.389L130.258 494.416" stroke="#668DEB" stroke-width="1.25197" stroke-linecap="round" stroke-linejoin="round"/>
<path d="M157.469 514.451L174.349 499.329" stroke="#668DEB" stroke-width="1.25197" stroke-linecap="round" stroke-linejoin="round"/>
<path d="M157.133 521.253L128.297 514.005" stroke="#668DEB" stroke-width="1.25197" stroke-linecap="round" stroke-linejoin="round"/>
<path d="M135.773 530.079H169.859V537.134H166.885L160.732 575.626H144.9L138.747 537.134H135.773V530.079Z" fill="#668DEB"/>
<path opacity="0.5" d="M135.773 530.079H169.859V537.134H166.885L160.732 575.626H144.9L138.747 537.134H135.773V530.079Z" fill="white"/>
<path d="M191.901 166.603C190.423 165.283 188.618 164.382 186.675 163.995C184.731 163.607 182.719 163.747 180.848 164.4C174.226 166.603 167.881 176.175 169.482 184.278C170.602 189.889 175.803 198.16 177.38 201.314C178.958 204.469 176.742 209.803 171.734 220.879C166.725 231.956 164.787 242.347 179.307 251.497C193.827 260.648 210.262 246.127 218.69 235.713C227.118 225.298 212.369 201.314 211.104 191.165C209.84 181.015 207.673 161.558 191.901 166.603Z" fill="#263238"/>
<path d="M226.034 236.411C222.421 240.026 218.056 242.8 213.248 244.535C208.441 246.271 203.311 246.926 198.222 246.452L194.742 260.961L201.364 294.083L244.6 271.676L234.811 246.392L226.034 236.411Z" fill="#668DEB" stroke="#263238" stroke-linecap="round" stroke-linejoin="round"/>
<path opacity="0.3" d="M226.034 236.411C222.421 240.026 218.056 242.8 213.248 244.535C208.441 246.271 203.311 246.926 198.222 246.452L194.742 260.961L201.364 294.083L244.6 271.676L234.811 246.392L226.034 236.411Z" fill="#263238"/>
<path d="M226.035 236.411L219.413 192.537L199.788 196.559L189.999 202.868C189.999 202.868 178.32 212.03 178.32 212.969C178.32 213.908 198.078 246.97 198.078 246.97C203.218 247.274 208.365 246.491 213.182 244.672C218 242.852 222.379 240.038 226.035 236.411Z" fill="white"/>
<path d="M226.035 236.411L219.413 192.537L199.788 196.559L189.999 202.868C189.999 202.868 178.32 212.03 178.32 212.969C178.32 213.908 198.078 246.97 198.078 246.97C203.218 247.274 208.365 246.491 213.182 244.672C218 242.852 222.379 240.038 226.035 236.411Z" stroke="#263238" stroke-linecap="round" stroke-linejoin="round"/>
<path opacity="0.5" d="M199.701 234.533C199.701 234.533 213.535 224.275 212.259 227.309C210.983 230.343 201.423 237.916 198.858 238.145C196.294 238.374 199.701 234.533 199.701 234.533Z" fill="#668DEB"/>
<path d="M200.121 215.052L200.663 215.618L204.034 219.182L204.901 232.871L209.031 232.221L205.768 219.399L210.993 230.259L215.34 225.912L205.997 217.436L205.768 210.706L200.988 208.31" fill="#263238"/>
<path d="M192.528 198.798C192.528 198.798 188.422 200.688 188.422 204.469C188.422 208.25 192.865 217.243 195.646 219.134C198.427 221.024 203.195 212.367 203.195 212.367C203.195 212.367 210.419 215.835 212.345 212.68C214.272 209.526 207.927 199.111 203.833 196.27C199.739 193.428 192.528 198.798 192.528 198.798Z" fill="white" stroke="#263238" stroke-linecap="round" stroke-linejoin="round"/>
<path d="M189.059 195.006C190.187 197.89 191.136 200.841 191.9 203.843C192.526 206.997 201.05 212.367 201.99 212.68C202.929 212.993 203.567 202.579 203.567 202.579L201.05 190.274L189.059 195.006Z" fill="white"/>
<g style="mix-blend-mode:multiply" opacity="0.5">
<path d="M201.314 191.586C200.784 191.438 200.245 191.325 199.7 191.249L190.995 194.319L189.852 197.305C190.429 198.919 191.164 201.086 191.609 202.844C193.037 203.994 194.761 204.716 196.582 204.926C199.195 205.107 201.494 203.084 203.12 200.604L201.314 191.586Z" fill="#668DEB"/>
</g>
<path d="M189.059 195.006C190.187 197.89 191.136 200.841 191.9 203.843C192.526 206.997 201.05 212.367 201.99 212.68C202.929 212.993 203.567 202.579 203.567 202.579L201.05 190.274L189.059 195.006Z" stroke="#263238" stroke-linecap="round" stroke-linejoin="round"/>
<path d="M183.374 189.636C183.374 189.636 179.895 186.806 179.895 189.636C179.895 192.465 183.061 194.054 185.577 194.054" fill="white"/>
<path d="M183.374 189.636C183.374 189.636 179.895 186.806 179.895 189.636C179.895 192.465 183.061 194.054 185.577 194.054" stroke="#263238" stroke-linecap="round" stroke-linejoin="round"/>
<path d="M201.988 180.485C201.988 180.485 204.204 177.018 204.83 180.81C205.118 183.279 204.441 185.764 202.939 187.745L201.988 180.485Z" fill="white" stroke="#263238" stroke-linecap="round" stroke-linejoin="round"/>
<g opacity="0.5">
<path d="M183.374 189.636C183.374 189.636 179.895 186.806 179.895 189.636C179.895 192.465 183.061 194.054 185.577 194.054" fill="#668DEB"/>
<path d="M183.374 189.636C183.374 189.636 179.895 186.806 179.895 189.636C179.895 192.465 183.061 194.054 185.577 194.054" stroke="#263238" stroke-linecap="round" stroke-linejoin="round"/>
</g>
<path opacity="0.5" d="M201.988 180.485C201.988 180.485 204.204 177.018 204.83 180.81C205.118 183.279 204.441 185.764 202.939 187.745L201.988 180.485Z" fill="#668DEB" stroke="#263238" stroke-linecap="round" stroke-linejoin="round"/>
<path d="M179.461 180.509C179.461 180.509 182.17 191.791 187.985 197.365C193.801 202.94 200.025 202.988 202.18 193.055C203.95 184.868 199.556 173.948 199.556 173.948C199.556 173.948 185.373 162.269 179.461 180.509Z" fill="white"/>
<g style="mix-blend-mode:multiply" opacity="0.5">
<path d="M189.562 170.275L191.766 175.814C191.766 175.814 195.233 175.043 197.184 179.233C199.134 183.423 201.097 189.563 199.977 194.319C198.906 198.846 196.365 200.339 192.452 200.448C196.714 202.266 200.579 200.448 202.18 193.031C203.95 184.844 199.556 173.923 199.556 173.923C199.556 173.923 194.752 169.986 189.562 170.275Z" fill="#668DEB"/>
</g>
<path d="M179.461 180.509C179.461 180.509 182.17 191.791 187.985 197.365C193.801 202.94 200.025 202.988 202.18 193.055C203.95 184.868 199.556 173.948 199.556 173.948C199.556 173.948 185.373 162.269 179.461 180.509Z" stroke="#263238" stroke-linecap="round" stroke-linejoin="round"/>
<path d="M190.225 186.469C190.562 187.107 190.502 187.794 190.093 188.01C189.683 188.227 189.081 187.878 188.756 187.24C188.431 186.602 188.479 185.927 188.889 185.711C189.298 185.494 189.9 185.843 190.225 186.469Z" fill="#263238"/>
<path d="M196.511 184.519C196.752 185.193 196.595 185.867 196.162 186.012C195.728 186.156 195.175 185.747 194.958 185.072C194.741 184.398 194.874 183.724 195.307 183.58C195.74 183.435 196.27 183.868 196.511 184.519Z" fill="#263238"/>
<path d="M196.946 180.907C196.454 180.576 195.867 180.416 195.276 180.451C194.684 180.486 194.121 180.713 193.671 181.099C191.937 182.448 195.212 189.202 195.212 189.202C195.212 189.202 195.272 191.333 192.539 190.346" stroke="#263238" stroke-width="0.5" stroke-linecap="round" stroke-linejoin="round"/>
<path d="M196.945 192.537C196.757 192.981 196.469 193.374 196.104 193.687C195.738 194 195.304 194.224 194.837 194.341C194.37 194.458 193.882 194.464 193.412 194.36C192.942 194.256 192.503 194.044 192.129 193.741" stroke="#263238" stroke-width="0.5" stroke-linecap="round" stroke-linejoin="round"/>
<path d="M189.61 182.701C189.61 182.701 186.528 179.799 185.18 185.398" stroke="#263238" stroke-width="0.5" stroke-linecap="round" stroke-linejoin="round"/>
<path d="M199.738 170.372C196.355 167.434 193.622 167.47 192.43 167.855C191.314 167.159 190.045 166.746 188.733 166.651C179.27 165.387 178.006 172.671 178.006 179.594C178.006 186.517 171.986 194.741 176.115 195.692C177.246 195.963 178.435 195.827 179.475 195.307C180.514 194.787 181.337 193.917 181.798 192.85C181.798 192.85 186.217 185.626 186.217 180.533C186.217 175.441 191.719 175.922 191.719 175.922C191.957 175.571 192.267 175.276 192.63 175.057C192.992 174.837 193.397 174.699 193.818 174.651C194.239 174.603 194.665 174.646 195.068 174.779C195.47 174.911 195.839 175.128 196.15 175.416C198.654 177.56 198.943 180.076 200.966 180.726C202.989 181.376 206.372 178.125 206.372 178.125C204.445 175.311 202.22 172.711 199.738 170.372V170.372Z" fill="#263238"/>
<path d="M191.983 172.262C191.983 172.262 188.178 169.204 184.759 172.635C181.34 176.067 181.713 182.556 180.569 186.758C179.425 190.96 176.367 191.719 176.367 191.719" stroke="white" stroke-width="0.5" stroke-linecap="round" stroke-linejoin="round"/>
<path d="M189.322 171.118C189.322 171.118 185.217 167.049 180.051 172.202C176.114 176.151 177.872 178.739 177.102 185.229" stroke="white" stroke-width="0.5" stroke-linecap="round" stroke-linejoin="round"/>
<path d="M193.898 170.348C193.898 170.348 201.122 166.916 204.205 175.693" stroke="white" stroke-width="0.5" stroke-linecap="round" stroke-linejoin="round"/>
<path d="M178.319 212.993L167.398 256.939L199.425 266.017L201.002 260.335L179.968 250.63L187.108 225.346C187.108 225.346 186.169 220.615 181.088 215.257" fill="white"/>
<g style="mix-blend-mode:multiply" opacity="0.5">
<path d="M201.05 260.371L180.016 250.666L187.156 225.382C186.597 223.284 185.689 221.293 184.471 219.495L183.785 218.977V225.96C183.785 230.427 178.198 244.671 176.236 248.018C174.273 251.365 171.215 255.555 171.215 255.555L177.355 252.761L200.629 262.08L201.05 260.371Z" fill="#668DEB"/>
</g>
<path d="M178.319 212.993L167.398 256.939L199.425 266.017L201.002 260.335L179.968 250.63L187.108 225.346C187.108 225.346 186.169 220.615 181.088 215.257" stroke="#263238" stroke-linecap="round" stroke-linejoin="round"/>
<path d="M268.366 226.189L244.118 221.096L219.352 192.477L223.012 215.498L238.206 229.97L268.74 231.366L268.366 226.189Z" fill="white"/>
<g style="mix-blend-mode:multiply" opacity="0.5">
<path d="M219.352 192.477L222.301 210.85L224.18 216.593L224.42 216.81C225.131 216.076 229.14 211.91 230.163 211.91C231.187 211.91 242.733 221.963 241.06 222.746L239.374 223.576L268.138 228.32L268.342 226.117L244.142 221.036L219.352 192.477Z" fill="#668DEB"/>
</g>
<path d="M268.366 226.189L244.118 221.096L219.352 192.477L223.012 215.498L238.206 229.97L268.74 231.366L268.366 226.189Z" stroke="#263238" stroke-linecap="round" stroke-linejoin="round"/>
<path d="M494.731 469.867L185.941 424.62C184.959 424.475 184.075 423.945 183.484 423.148C182.892 422.351 182.641 421.352 182.786 420.37L208.504 244.935C208.574 244.45 208.74 243.983 208.991 243.562C209.243 243.14 209.575 242.772 209.968 242.479C210.362 242.186 210.81 241.974 211.286 241.854C211.761 241.734 212.256 241.709 212.742 241.781L218.593 242.636C219.334 242.747 220.092 242.632 220.766 242.305C221.441 241.979 222.001 241.456 222.374 240.806L230.139 227.381C230.375 226.96 230.695 226.591 231.079 226.298C232.897 224.983 235.156 224.43 237.376 224.756L315.214 236.17C316.96 236.421 318.587 237.203 319.874 238.41C320.217 238.754 320.487 239.163 320.668 239.614L327.591 256.759C327.834 257.365 328.232 257.897 328.746 258.301C329.259 258.704 329.87 258.966 330.517 259.058L521.532 287.063C522.513 287.206 523.398 287.733 523.991 288.527C524.585 289.322 524.839 290.32 524.698 291.301L498.981 466.724C498.832 467.704 498.301 468.584 497.505 469.173C496.708 469.762 495.711 470.012 494.731 469.867V469.867Z" fill="#263238" stroke="#263238" stroke-miterlimit="10"/>
<path d="M498.015 469.012H191.946C191.058 469.012 190.178 468.837 189.357 468.497C188.536 468.157 187.79 467.658 187.162 467.03C186.533 466.402 186.035 465.656 185.695 464.835C185.355 464.014 185.18 463.134 185.18 462.245V290.988C185.18 289.194 185.893 287.473 187.162 286.204C188.431 284.935 190.152 284.222 191.946 284.222H192.777C194.132 284.219 195.455 283.812 196.576 283.053C197.698 282.293 198.568 281.216 199.074 279.96L203.733 268.245C204.254 266.893 205.206 265.75 206.442 264.994C207.77 264.21 209.283 263.794 210.825 263.79H289.494C290.552 263.789 291.6 263.981 292.589 264.356C293.962 264.909 295.107 265.911 295.839 267.197L303.846 280.839C304.443 281.858 305.296 282.703 306.32 283.29C307.344 283.877 308.505 284.186 309.685 284.186H498.015C499.81 284.186 501.531 284.899 502.8 286.168C504.069 287.437 504.782 289.158 504.782 290.952V462.245C504.782 463.134 504.607 464.014 504.266 464.835C503.926 465.656 503.428 466.402 502.8 467.03C502.171 467.658 501.425 468.157 500.604 468.497C499.784 468.837 498.904 469.012 498.015 469.012V469.012Z" fill="#668DEB"/>
<path opacity="0.1" d="M498.015 469.012H191.946C191.058 469.012 190.178 468.837 189.357 468.497C188.536 468.157 187.79 467.658 187.162 467.03C186.533 466.402 186.035 465.656 185.695 464.835C185.355 464.014 185.18 463.134 185.18 462.245V290.988C185.18 289.194 185.893 287.473 187.162 286.204C188.431 284.935 190.152 284.222 191.946 284.222H192.777C194.132 284.219 195.455 283.812 196.576 283.053C197.698 282.293 198.568 281.216 199.074 279.96L203.733 268.245C204.254 266.893 205.206 265.75 206.442 264.994C207.77 264.21 209.283 263.794 210.825 263.79H289.494C290.552 263.789 291.6 263.981 292.589 264.356C293.962 264.909 295.107 265.911 295.839 267.197L303.846 280.839C304.443 281.858 305.296 282.703 306.32 283.29C307.344 283.877 308.505 284.186 309.685 284.186H498.015C499.81 284.186 501.531 284.899 502.8 286.168C504.069 287.437 504.782 289.158 504.782 290.952V462.245C504.782 463.134 504.607 464.014 504.266 464.835C503.926 465.656 503.428 466.402 502.8 467.03C502.171 467.658 501.425 468.157 500.604 468.497C499.784 468.837 498.904 469.012 498.015 469.012V469.012Z" fill="#263238"/>
<path d="M498.015 469.012H191.946C191.058 469.012 190.178 468.837 189.357 468.497C188.536 468.157 187.79 467.658 187.162 467.03C186.533 466.402 186.035 465.656 185.695 464.835C185.355 464.014 185.18 463.134 185.18 462.245V290.988C185.18 289.194 185.893 287.473 187.162 286.204C188.431 284.935 190.152 284.222 191.946 284.222H192.777C194.132 284.219 195.455 283.812 196.576 283.053C197.698 282.293 198.568 281.216 199.074 279.96L203.733 268.245C204.254 266.893 205.206 265.75 206.442 264.994C207.77 264.21 209.283 263.794 210.825 263.79H289.494C290.552 263.789 291.6 263.981 292.589 264.356C293.962 264.909 295.107 265.911 295.839 267.197L303.846 280.839C304.443 281.858 305.296 282.703 306.32 283.29C307.344 283.877 308.505 284.186 309.685 284.186H498.015C499.81 284.186 501.531 284.899 502.8 286.168C504.069 287.437 504.782 289.158 504.782 290.952V462.245C504.782 463.134 504.607 464.014 504.266 464.835C503.926 465.656 503.428 466.402 502.8 467.03C502.171 467.658 501.425 468.157 500.604 468.497C499.784 468.837 498.904 469.012 498.015 469.012V469.012Z" stroke="#263238" stroke-miterlimit="10"/>
<path d="M271.667 283.644H222.688C221.519 283.644 220.398 283.18 219.572 282.353C218.746 281.527 218.281 280.406 218.281 279.237V279.237C218.28 278.658 218.392 278.083 218.613 277.547C218.834 277.011 219.158 276.524 219.568 276.114C219.977 275.703 220.463 275.378 220.999 275.155C221.534 274.933 222.108 274.819 222.688 274.819H271.667C272.839 274.819 273.962 275.284 274.791 276.113C275.62 276.942 276.085 278.065 276.085 279.237V279.237C276.085 279.817 275.971 280.391 275.749 280.927C275.526 281.462 275.201 281.948 274.79 282.358C274.38 282.767 273.893 283.091 273.357 283.312C272.821 283.533 272.246 283.646 271.667 283.644V283.644Z" fill="white"/>
<path d="M498.015 498.895H191.946C190.152 498.895 188.431 498.182 187.162 496.913C185.893 495.644 185.18 493.923 185.18 492.129V320.872C185.18 319.077 185.893 317.356 187.162 316.087C188.431 314.818 190.152 314.105 191.946 314.105H192.777C194.132 314.104 195.456 313.698 196.578 312.938C197.7 312.179 198.569 311.101 199.074 309.843L203.733 298.14C204.251 296.786 205.204 295.643 206.442 294.889C207.768 294.1 209.282 293.684 210.825 293.685H289.494C290.552 293.684 291.6 293.876 292.589 294.251C293.965 294.805 295.112 295.812 295.839 297.105L303.846 310.758C304.443 311.777 305.296 312.622 306.32 313.209C307.344 313.796 308.505 314.105 309.685 314.105H498.015C499.81 314.105 501.531 314.818 502.8 316.087C504.069 317.356 504.782 319.077 504.782 320.872V492.129C504.782 493.923 504.069 495.644 502.8 496.913C501.531 498.182 499.81 498.895 498.015 498.895V498.895Z" fill="#263238" stroke="#263238" stroke-miterlimit="10"/>
<path d="M295.13 248.331L246.537 242.311C245.376 242.163 244.321 241.563 243.601 240.64C242.882 239.718 242.556 238.548 242.696 237.386C242.843 236.224 243.446 235.168 244.371 234.45C245.297 233.732 246.47 233.411 247.632 233.558L296.214 239.578C297.376 239.722 298.433 240.322 299.153 241.245C299.873 242.168 300.197 243.34 300.054 244.502V244.502C299.983 245.077 299.799 245.632 299.513 246.136C299.226 246.64 298.844 247.082 298.386 247.438C297.929 247.793 297.406 248.055 296.847 248.208C296.288 248.362 295.705 248.403 295.13 248.331V248.331Z" fill="#668DEB"/>
<path opacity="0.5" d="M295.13 248.331L246.537 242.311C245.376 242.163 244.321 241.563 243.601 240.64C242.882 239.718 242.556 238.548 242.696 237.386C242.843 236.224 243.446 235.168 244.371 234.45C245.297 233.732 246.47 233.411 247.632 233.558L296.214 239.578C297.376 239.722 298.433 240.322 299.153 241.245C299.873 242.168 300.197 243.34 300.054 244.502V244.502C299.983 245.077 299.799 245.632 299.513 246.136C299.226 246.64 298.844 247.082 298.386 247.438C297.929 247.793 297.406 248.055 296.847 248.208C296.288 248.362 295.705 248.403 295.13 248.331V248.331Z" fill="white"/>
<path d="M271.667 313.539H222.688C222.108 313.539 221.534 313.425 220.999 313.203C220.463 312.98 219.977 312.655 219.568 312.244C219.158 311.834 218.834 311.347 218.613 310.811C218.392 310.275 218.28 309.7 218.281 309.121V309.121C218.281 307.951 218.745 306.829 219.571 306C220.397 305.172 221.518 304.705 222.688 304.702H271.667C272.839 304.702 273.962 305.167 274.791 305.996C275.62 306.825 276.085 307.949 276.085 309.121V309.121C276.085 310.292 275.62 311.416 274.791 312.245C273.962 313.074 272.839 313.539 271.667 313.539V313.539Z" fill="#668DEB"/>
<path opacity="0.5" d="M271.667 313.539H222.688C222.108 313.539 221.534 313.425 220.999 313.203C220.463 312.98 219.977 312.655 219.568 312.244C219.158 311.834 218.834 311.347 218.613 310.811C218.392 310.275 218.28 309.7 218.281 309.121V309.121C218.281 307.951 218.745 306.829 219.571 306C220.397 305.172 221.518 304.705 222.688 304.702H271.667C272.839 304.702 273.962 305.167 274.791 305.996C275.62 306.825 276.085 307.949 276.085 309.121V309.121C276.085 310.292 275.62 311.416 274.791 312.245C273.962 313.074 272.839 313.539 271.667 313.539V313.539Z" fill="white"/>
<path d="M508.022 365.612H181.931C178.427 365.612 175.586 368.453 175.586 371.957V569.281C175.586 572.785 178.427 575.626 181.931 575.626H508.022C511.527 575.626 514.367 572.785 514.367 569.281V371.957C514.367 368.453 511.527 365.612 508.022 365.612Z" fill="white"/>
<g style="mix-blend-mode:multiply">
<path d="M514.366 422.14C476.813 457.238 434.146 486.426 387.825 508.708C319.378 541.444 241.142 564.007 195.559 575.626H508.009C508.843 575.628 509.669 575.465 510.441 575.146C511.212 574.828 511.913 574.361 512.503 573.772C513.094 573.182 513.562 572.482 513.882 571.712C514.201 570.941 514.366 570.115 514.366 569.281V422.14Z" fill="#668DEB"/>
</g>
<path opacity="0.2" d="M514.366 422.14C476.813 457.238 434.146 486.426 387.825 508.708C319.378 541.444 241.142 564.007 195.559 575.626H508.009C508.843 575.628 509.669 575.465 510.441 575.146C511.212 574.828 511.913 574.361 512.503 573.772C513.094 573.182 513.562 572.482 513.882 571.712C514.201 570.941 514.366 570.115 514.366 569.281V422.14Z" fill="white"/>
<path d="M508.022 365.612H181.931C178.427 365.612 175.586 368.453 175.586 371.957V569.281C175.586 572.785 178.427 575.626 181.931 575.626H508.022C511.527 575.626 514.367 572.785 514.367 569.281V371.957C514.367 368.453 511.527 365.612 508.022 365.612Z" stroke="#263238" stroke-miterlimit="10"/>
<path d="M180.484 384.058V375.63C180.488 373.946 181.159 372.332 182.351 371.142C183.542 369.953 185.158 369.285 186.841 369.285H200.627" stroke="#263238" stroke-miterlimit="10"/>
<path d="M180.484 512.055V394.328" stroke="#263238" stroke-miterlimit="10"/>
<path d="M509.454 552.22V565.549C509.456 566.383 509.293 567.209 508.975 567.98C508.656 568.752 508.189 569.453 507.6 570.043C507.011 570.634 506.311 571.102 505.54 571.422C504.769 571.741 503.943 571.906 503.109 571.906H491.996" stroke="#263238" stroke-miterlimit="10"/>
<path d="M509.457 381.096V542.311" stroke="#263238" stroke-miterlimit="10"/>
<path d="M395.342 442.403H294.603C292.788 442.403 291.316 443.875 291.316 445.69V497.089C291.316 498.904 292.788 500.376 294.603 500.376H395.342C397.157 500.376 398.629 498.904 398.629 497.089V445.69C398.629 443.875 397.157 442.403 395.342 442.403Z" fill="#263238" stroke="#263238" stroke-miterlimit="10"/>
<path d="M395.342 442.403H294.603C292.788 442.403 291.316 443.875 291.316 445.69V456.743C291.316 458.558 292.788 460.03 294.603 460.03H395.342C397.157 460.03 398.629 458.558 398.629 456.743V445.69C398.629 443.875 397.157 442.403 395.342 442.403Z" fill="white" stroke="#263238" stroke-miterlimit="10"/>
<path d="M199.426 266.018L201.629 270.123L206.313 273.494C206.607 273.711 206.96 273.833 207.325 273.846C207.69 273.859 208.051 273.762 208.359 273.567L208.769 273.302C209.067 273.121 209.288 272.838 209.392 272.505C209.497 272.173 209.476 271.814 209.335 271.496L206.674 265.379L208.468 266.776C208.753 266.996 209.112 267.096 209.469 267.055C209.826 267.015 210.154 266.837 210.382 266.559V266.559C210.581 266.312 210.689 266.004 210.689 265.686C210.689 265.369 210.581 265.061 210.382 264.814L206.204 259.528L200.979 260.335L199.426 266.018Z" fill="white" stroke="#263238" stroke-miterlimit="10"/>
<path d="M208.815 273.302L204.625 267.799" stroke="#263238" stroke-width="0.5" stroke-linecap="round" stroke-linejoin="round"/>
<path d="M206.361 273.494L203.074 269.136" stroke="#263238" stroke-width="0.5" stroke-linecap="round" stroke-linejoin="round"/>
<path d="M268.367 226.189L274.917 226.574L282.887 231.667C282.887 231.667 283.333 233.22 282.225 233.437C281.118 233.654 275.134 231.451 275.134 231.451L268.74 231.366L268.367 226.189Z" fill="white" stroke="#263238" stroke-miterlimit="10"/>
<path d="M268.703 230.56L275.578 233.666C275.578 233.666 276.686 232.113 275.133 231.451L272.869 229.897" fill="white"/>
<path d="M268.703 230.56L275.578 233.666C275.578 233.666 276.686 232.113 275.133 231.451L272.869 229.897" stroke="#263238" stroke-linejoin="round"/>
<path d="M489.109 348.039L486.267 339.539L483.077 335.168C483.024 335.088 482.947 335.028 482.857 334.997C482.766 334.966 482.668 334.965 482.578 334.995C482.487 335.026 482.409 335.085 482.355 335.164C482.302 335.243 482.276 335.338 482.282 335.433V348.027L484.69 351.193L489.109 348.039Z" fill="white"/>
<path d="M535.413 385.206L511.574 386.049C510.694 386.08 509.824 385.86 509.065 385.414C508.306 384.969 507.689 384.316 507.288 383.533L489.107 348.039C489.107 348.039 485.014 350.254 484.701 351.193C484.388 352.133 498.161 386.675 502.387 397.283C502.743 398.173 503.365 398.931 504.17 399.453C504.974 399.975 505.92 400.235 506.878 400.196L533.523 399.065" fill="white"/>
<path d="M535.413 385.206L511.574 386.049C510.694 386.08 509.824 385.86 509.065 385.414C508.306 384.969 507.689 384.316 507.288 383.533L489.107 348.039C489.107 348.039 485.014 350.254 484.701 351.193C484.388 352.133 498.161 386.675 502.387 397.283C502.743 398.173 503.365 398.931 504.17 399.453C504.974 399.975 505.92 400.235 506.878 400.196L533.523 399.065" stroke="#263238" stroke-miterlimit="10"/>
<path d="M490.854 352.458L487.121 353.999" stroke="#263238" stroke-width="0.75" stroke-miterlimit="10"/>
<g opacity="0.5">
<g opacity="0.5">
<path d="M535.413 385.206L511.574 386.049C510.694 386.08 509.824 385.86 509.065 385.414C508.306 384.969 507.689 384.316 507.288 383.533L489.107 348.039C489.107 348.039 485.014 350.254 484.701 351.193C484.388 352.133 498.161 386.675 502.387 397.283C502.743 398.173 503.365 398.931 504.17 399.453C504.974 399.975 505.92 400.235 506.878 400.196L533.523 399.065" fill="#668DEB"/>
<path d="M535.413 385.206L511.574 386.049C510.694 386.08 509.824 385.86 509.065 385.414C508.306 384.969 507.689 384.316 507.288 383.533L489.107 348.039C489.107 348.039 485.014 350.254 484.701 351.193C484.388 352.133 498.161 386.675 502.387 397.283C502.743 398.173 503.365 398.931 504.17 399.453C504.974 399.975 505.92 400.235 506.878 400.196L533.523 399.065" stroke="#263238" stroke-miterlimit="10"/>
</g>
<path opacity="0.5" d="M490.854 352.458L487.121 353.999" stroke="#263238" stroke-width="0.75" stroke-miterlimit="10"/>
</g>
<path d="M489.109 348.039L486.267 339.539L483.077 335.168C483.024 335.088 482.947 335.028 482.857 334.997C482.766 334.966 482.668 334.965 482.578 334.995C482.487 335.026 482.409 335.085 482.355 335.164C482.302 335.243 482.276 335.338 482.282 335.433V348.027L484.69 351.193L489.109 348.039Z" fill="#668DEB"/>
<path opacity="0.5" d="M489.109 348.039L486.267 339.539L483.077 335.168C483.024 335.088 482.947 335.028 482.857 334.997C482.766 334.966 482.668 334.965 482.578 334.995C482.487 335.026 482.409 335.085 482.355 335.164C482.302 335.243 482.276 335.338 482.282 335.433V348.027L484.69 351.193L489.109 348.039Z" fill="white"/>
<path d="M489.109 348.039L486.267 339.539L483.077 335.168C483.024 335.088 482.947 335.028 482.857 334.997C482.766 334.966 482.668 334.965 482.578 334.995C482.487 335.026 482.409 335.085 482.355 335.164C482.302 335.243 482.276 335.338 482.282 335.433V348.027L484.69 351.193L489.109 348.039Z" stroke="#263238" stroke-miterlimit="10"/>
<path d="M542.792 362.776C541.647 364.227 540.826 365.906 540.384 367.7C540.035 370.012 540.589 378.91 540.589 378.91L528.188 380.306C528.188 380.306 529.127 371.264 529.175 369.759C529.572 367.893 530.362 366.133 531.494 364.596C532.626 363.06 534.072 361.782 535.737 360.85C539.999 358.755 543.623 359.778 542.792 362.776Z" fill="white"/>
<g style="mix-blend-mode:multiply" opacity="0.5">
<path d="M542.711 362.872C540.459 362.258 537.726 361.572 535.415 361.018C533.826 361.964 532.448 363.227 531.369 364.729C530.29 366.231 529.532 367.939 529.142 369.747C529.142 370.325 528.973 372.011 528.805 373.865C530.009 373.588 531.923 373.166 533.344 372.914C534.469 372.732 535.577 372.454 536.655 372.083L536.233 379.307H536.51L540.556 378.849C540.556 378.849 540.002 369.952 540.351 367.64C540.791 365.902 541.595 364.276 542.711 362.872V362.872Z" fill="#668DEB"/>
</g>
<path d="M542.792 362.776C541.647 364.227 540.826 365.906 540.384 367.7C540.035 370.012 540.589 378.91 540.589 378.91L528.188 380.306C528.188 380.306 529.127 371.264 529.175 369.759C529.572 367.893 530.362 366.133 531.494 364.596C532.626 363.06 534.072 361.782 535.737 360.85C539.999 358.755 543.623 359.778 542.792 362.776Z" stroke="#263238" stroke-width="1.00396" stroke-miterlimit="10"/>
<path d="M545.371 364.305C555.653 350.724 530.863 336.613 524.349 350.11C523.441 351.774 522.722 353.535 522.206 355.359C521.219 355.961 518.594 357.575 518.112 358.02C517.631 358.466 519.316 359.609 520.243 360.175C518.473 364.522 518.738 369.097 519.244 370.132C520.123 371.914 524.457 371.938 527.311 371.409C530.164 370.879 531.296 368.146 532.127 367.399C532.958 366.653 537.099 367.604 538.556 368.037C540.013 368.471 543.372 366.99 545.371 364.305Z" fill="white"/>
<g style="mix-blend-mode:multiply" opacity="0.5">
<path d="M535.198 363.005C535.198 363.005 535.414 364.028 533.343 364.859C531.272 365.69 530.863 365.064 530.249 366.508C529.988 367.458 529.461 368.314 528.729 368.973C527.997 369.632 527.091 370.068 526.119 370.229C524.158 370.601 522.176 370.855 520.184 370.987C521.821 371.902 525.072 371.83 527.408 371.409C530.249 370.891 531.393 368.146 532.224 367.399C533.054 366.653 537.196 367.604 538.653 368.037C538.995 368.106 539.347 368.106 539.688 368.037C540.232 366.828 540.558 365.532 540.652 364.209L535.198 363.005Z" fill="#668DEB"/>
</g>
<path d="M545.371 364.305C555.653 350.724 530.863 336.613 524.349 350.11C523.441 351.774 522.722 353.535 522.206 355.359C521.219 355.961 518.594 357.575 518.112 358.02C517.631 358.466 519.316 359.609 520.243 360.175C518.473 364.522 518.738 369.097 519.244 370.132C520.123 371.914 524.457 371.938 527.311 371.409C530.164 370.879 531.296 368.146 532.127 367.399C532.958 366.653 537.099 367.604 538.556 368.037C540.013 368.471 543.372 366.99 545.371 364.305Z" stroke="#263238" stroke-miterlimit="10"/>
<path d="M525.288 356.551C525.023 357.129 524.577 357.49 524.288 357.358C523.999 357.226 523.975 356.648 524.288 356.07C524.601 355.492 524.999 355.131 525.288 355.263C525.577 355.395 525.553 355.973 525.288 356.551Z" fill="#263238"/>
<path d="M525.047 352.843C525.047 352.843 526.251 351.844 526.492 354.143" stroke="#263238" stroke-width="0.5" stroke-linecap="round" stroke-linejoin="round"/>
<path d="M520 362.511C520 362.511 520 363.715 522.167 363.715" stroke="#263238" stroke-width="0.5" stroke-linecap="round" stroke-linejoin="round"/>
<path d="M517.063 441.301L516.112 453.076C516.112 453.076 509.526 499.96 509.839 505.342C510.152 510.723 510.862 566.324 510.862 566.324L518.797 567.588L527.706 505.92L540.216 443.251L517.063 441.301Z" fill="#668DEB" stroke="#263238" stroke-miterlimit="10"/>
<path opacity="0.2" d="M517.063 441.301L516.112 453.076C516.112 453.076 509.526 499.96 509.839 505.342C510.152 510.723 510.862 566.324 510.862 566.324L518.797 567.588L527.706 505.92L540.216 443.251L517.063 441.301Z" fill="#263238"/>
<path d="M527.104 484.127C527.104 484.127 524.058 502.055 521.758 510.844C519.458 519.633 519.47 528.398 519.47 537.934C519.47 547.47 516.039 565.048 516.039 565.048" stroke="#263238" stroke-width="0.75" stroke-miterlimit="10"/>
<path d="M533.161 438.411C538.386 435.666 543.997 433.848 545.598 437.496C548.777 444.792 544.972 455.881 544.972 455.881L547.874 507.027L553.184 568.732L545.249 567.456C545.249 567.456 533.065 515.383 531.162 512.204C529.26 509.026 526.262 464.442 526.262 464.442L520.242 458.963" fill="#668DEB"/>
<path d="M533.161 438.411C538.386 435.666 543.997 433.848 545.598 437.496C548.777 444.792 544.972 455.881 544.972 455.881L547.874 507.027L553.184 568.732L545.249 567.456C545.249 567.456 533.065 515.383 531.162 512.204C529.26 509.026 526.262 464.442 526.262 464.442L520.242 458.963" stroke="#263238" stroke-miterlimit="10"/>
<g opacity="0.2">
<path opacity="0.2" d="M533.161 438.411C538.386 435.666 543.997 433.848 545.598 437.496C548.777 444.792 544.972 455.881 544.972 455.881L547.874 507.027L553.184 568.732L545.249 567.456C545.249 567.456 533.065 515.383 531.162 512.204C529.26 509.026 526.262 464.442 526.262 464.442L520.242 458.963" fill="#263238"/>
</g>
<path d="M539.352 477.156C539.532 489.015 540.736 494.722 541.675 497.853C542.819 501.669 542.434 508.917 542.434 512.301C542.434 515.684 540.905 511.542 544.348 527.194C547.792 542.846 550.067 564.59 550.067 564.59" stroke="#263238" stroke-width="0.75" stroke-miterlimit="10"/>
<path d="M539.352 451.306C539.352 451.306 539.725 450.536 539.352 468.475C539.352 469.438 539.352 470.365 539.352 471.268" stroke="#263238" stroke-width="0.75" stroke-miterlimit="10"/>
<path d="M521.735 447.899L521.482 453.269L520.242 457.001L522.096 459.168" stroke="#263238" stroke-width="0.75" stroke-linecap="round" stroke-linejoin="round"/>
<path d="M519.305 451.101C519.305 451.101 522.411 454.208 530.478 453.269" stroke="#263238" stroke-width="0.75" stroke-linecap="round" stroke-linejoin="round"/>
<path d="M538.364 448.416C544.384 447.212 544.769 445.551 546.852 444.154C546.891 441.877 546.482 439.615 545.648 437.496C544.071 433.884 538.424 435.666 533.211 438.411L530.682 442.409L517.113 441.301L516.68 446.623C523.646 449.013 531.099 449.629 538.364 448.416V448.416Z" fill="#263238"/>
<path d="M518.425 444.985L518.293 447.104L521.736 447.899L522.001 445.118L518.425 444.985Z" fill="white" stroke="#263238" stroke-width="0.75" stroke-miterlimit="10"/>
<path d="M542.457 448.128L541.879 442.854L543.625 442.276L544.504 446.96" fill="#668DEB"/>
<path d="M542.457 448.128L541.879 442.854L543.625 442.276L544.504 446.96" stroke="#263238" stroke-miterlimit="10"/>
<path d="M528.996 449.885L527.828 443.733H530.754L531.922 449.006" fill="#668DEB"/>
<path d="M528.996 449.885L527.828 443.733H530.754L531.922 449.006" stroke="#263238" stroke-miterlimit="10"/>
<g opacity="0.2">
<path opacity="0.2" d="M542.457 448.128L541.879 442.854L543.625 442.276L544.504 446.96" fill="#263238"/>
<path opacity="0.2" d="M528.996 449.885L527.828 443.733H530.754L531.922 449.006" fill="#263238"/>
</g>
<path d="M515.509 394.634C515.509 394.634 514.51 401.316 511.512 412.694C508.514 424.072 505.492 437.713 505.492 437.713L507.166 444.72L512.162 437.376L515.509 394.634Z" fill="#263238" stroke="#263238" stroke-miterlimit="10"/>
<path d="M523.855 384.966C523.855 384.966 516.848 386.627 516.186 389.962C515.829 391.497 515.603 393.06 515.512 394.634L526.191 385.965L539.543 380.619L523.855 384.966Z" fill="#263238" stroke="#263238" stroke-miterlimit="10"/>
<path d="M525.769 382.389C525.769 382.389 520.074 388.83 517.811 391.479C515.547 394.128 515.535 422.554 515.535 426.732C515.535 430.91 513.272 442.252 517.052 444.527C520.833 446.803 543.962 446.045 546.237 442.252C548.513 438.459 550.018 392.996 549.645 388.83C549.361 386.961 548.625 385.19 547.5 383.671C546.375 382.152 544.896 380.93 543.191 380.113C540.555 378.897 525.769 382.389 525.769 382.389Z" fill="white"/>
<g style="mix-blend-mode:multiply" opacity="0.5">
<path d="M543.193 380.114C542.878 379.986 542.544 379.913 542.206 379.897L540.568 380.752C543.324 383.01 545.22 386.147 545.938 389.637C546.699 394.707 546.63 399.868 545.733 404.916C544.915 410.49 531.695 404.916 534.175 406.987C536.655 409.058 545.938 412.561 546.359 414.416C546.781 416.27 541.76 419.364 539.954 419.581C538.148 419.797 541.158 423.915 543.048 427.419C544.939 430.922 544.252 435.847 539.954 439.194C535.656 442.541 525.675 444.19 521.364 444.359C519.968 444.359 519.101 444.72 518.836 445.13C525.458 446.61 544.204 445.647 546.239 442.252C548.514 438.459 550.019 392.996 549.646 388.831C549.363 386.962 548.626 385.19 547.502 383.671C546.377 382.152 544.898 380.93 543.193 380.114V380.114Z" fill="#668DEB"/>
</g>
<path d="M525.769 382.389C525.769 382.389 520.074 388.83 517.811 391.479C515.547 394.128 515.535 422.554 515.535 426.732C515.535 430.91 513.272 442.252 517.052 444.527C520.833 446.803 543.962 446.045 546.237 442.252C548.513 438.459 550.018 392.996 549.645 388.83C549.361 386.961 548.625 385.19 547.5 383.671C546.375 382.152 544.896 380.93 543.191 380.113C540.555 378.897 525.769 382.389 525.769 382.389Z" stroke="#263238" stroke-miterlimit="10"/>
<path d="M537.411 411.225C531.307 409.323 525.961 404.001 525.961 404.001C527.315 410.325 530.993 415.91 536.267 419.653" fill="white"/>
<path d="M537.411 411.225C531.307 409.323 525.961 404.001 525.961 404.001C527.315 410.325 530.993 415.91 536.267 419.653" stroke="#263238" stroke-width="0.75" stroke-linecap="round" stroke-linejoin="round"/>
<path d="M542.059 375.948L523.866 380.114L522.734 385.423L543.19 380.114L542.059 375.948Z" fill="white" stroke="#263238" stroke-miterlimit="10"/>
<path d="M519.856 575.535L518.796 567.54L510.862 566.276L504.252 570.984L498.328 574.235V575.535H519.856Z" fill="#263238" stroke="#263238" stroke-miterlimit="10"/>
<path d="M554.17 576.161L553.183 568.732L545.248 567.456L538.639 572.164L532.715 575.426V576.161H554.17Z" fill="#263238" stroke="#263238" stroke-miterlimit="10"/>
<path d="M485.641 341.104L480.753 338.275C480.753 338.275 478.851 338.046 479.669 340.165L484.558 343.933" fill="white"/>
<path d="M485.641 341.104L480.753 338.275C480.753 338.275 478.851 338.046 479.669 340.165L484.558 343.933" stroke="#263238" stroke-linecap="round" stroke-linejoin="round"/>
<path d="M484.918 348.46C484.687 347.88 484.348 347.348 483.918 346.895L483.003 345.908L478.031 339.743C478.031 339.743 476.49 338.708 476.827 340.947L479.909 346.967L474.431 341.826C474.431 341.826 473.395 340.971 473.395 342.175C473.395 343.379 478.368 348.689 478.368 348.689L472.878 346.113C472.878 346.113 471.674 346.967 472.54 347.822C473.407 348.677 478.019 350.399 478.019 350.399L473.913 350.23C473.913 350.23 472.709 351.254 473.564 351.603C474.419 351.952 479.223 352.963 479.223 352.963C479.833 353.482 480.53 353.89 481.281 354.167L482.485 356.395L487.097 354.071L484.918 348.46Z" fill="white" stroke="#263238" stroke-linecap="round" stroke-linejoin="round"/>
<path d="M534.147 401.906L506.672 408.347C505.266 408.595 503.817 408.348 502.572 407.648C501.327 406.947 500.364 405.837 499.845 404.507L482.508 356.347L487.119 354.023L506.275 389.505C506.709 390.316 507.393 390.966 508.226 391.359C509.059 391.751 509.996 391.865 510.898 391.684L531.908 385.748" fill="white"/>
<path d="M534.147 401.906L506.672 408.347C505.266 408.595 503.817 408.348 502.572 407.648C501.327 406.947 500.364 405.837 499.845 404.507L482.508 356.347L487.119 354.023L506.275 389.505C506.709 390.316 507.393 390.966 508.226 391.359C509.059 391.751 509.996 391.865 510.898 391.684L531.908 385.748" stroke="#263238" stroke-miterlimit="10"/>
<path d="M489.709 358.562L484.363 361.235" stroke="#263238" stroke-width="0.75" stroke-miterlimit="10"/>
<path d="M530.73 350.254C530.73 350.254 527.804 353.18 529.261 355.371C530.124 356.637 530.782 358.031 531.212 359.501C531.212 359.501 530.008 362.427 530.971 362.427C531.934 362.427 531.452 360.236 533.162 360.729C534.872 361.223 536.569 364.137 535.113 365.112C534.023 365.721 532.868 366.206 531.669 366.557C531.516 366.603 531.381 366.693 531.279 366.816C531.177 366.939 531.113 367.089 531.095 367.248C531.077 367.406 531.106 367.567 531.178 367.709C531.25 367.852 531.362 367.97 531.501 368.05C533.085 369.12 534.909 369.781 536.81 369.976C538.365 370.009 539.919 369.847 541.434 369.494C541.434 369.494 546.25 362.92 549.717 361.211C553.185 359.501 551.668 351.711 551.668 350.736C551.668 349.761 548.26 347.569 548.26 347.569C548.26 347.569 549.236 345.378 544.853 340.514C540.47 335.65 532.187 334.663 531.946 336.372C531.861 336.825 531.908 337.292 532.081 337.719C532.254 338.146 532.546 338.514 532.921 338.78C532.921 338.78 525.613 335.614 522.206 339.021C518.798 342.428 530.73 350.254 530.73 350.254Z" fill="#263238" stroke="#263238" stroke-miterlimit="10"/>
<path d="M530.73 350.254C530.73 350.254 536.654 357.478 545.431 358.177" stroke="white" stroke-width="0.5" stroke-linecap="round" stroke-linejoin="round"/>
<path d="M528.637 352.458C528.637 352.458 531.394 360.476 542.796 362.764" stroke="white" stroke-width="0.5" stroke-linecap="round" stroke-linejoin="round"/>
</g>
<defs>
<filter id="filter0_f" x="90.1328" y="571.8" width="495.187" height="26.1082" filterUnits="userSpaceOnUse" color-interpolation-filters="sRGB">
<feFlood flood-opacity="0" result="BackgroundImageFix"/>
<feBlend mode="normal" in="SourceGraphic" in2="BackgroundImageFix" result="shape"/>
<feGaussianBlur stdDeviation="2" result="effect1_foregroundBlur"/>
</filter>
</defs>
</svg>
