<svg width="168" height="40" viewBox="0 0 168 40" fill="none" xmlns="http://www.w3.org/2000/svg">
<path d="M55.775 10.85H60.7L63.675 21.075C63.875 21.775 64.1417 22.9167 64.475 24.5H64.6C64.9 22.8167 65.1333 21.675 65.3 21.075L68.3 10.85H73.05V28H69.85V16.925C69.85 16.5083 69.8917 15.5417 69.975 14.025H69.825C69.6917 14.5917 69.525 15.225 69.325 15.925L65.8 28H62.85L59.35 15.925C59.2333 15.5417 59.1167 15.1083 59 14.625L58.85 14.025H58.725C58.7917 15.525 58.825 16.4917 58.825 16.925V28H55.775V10.85ZM80.7502 28.3C77.9169 28.3 76.5002 26.775 76.5002 23.725V14.85H79.5002V23.2C79.5002 24.1 79.7002 24.7417 80.1002 25.125C80.5169 25.5083 81.1252 25.7 81.9252 25.7C82.7585 25.7 83.4585 25.4 84.0252 24.8C84.5919 24.2 84.8752 23.4333 84.8752 22.5V14.85H87.8752V28H85.4002L85.1502 26.25H84.9752C84.4919 26.9 83.8919 27.4083 83.1752 27.775C82.4752 28.125 81.6669 28.3 80.7502 28.3ZM96.3451 28.3C94.5285 28.3 93.1201 27.925 92.1201 27.175C91.1368 26.425 90.6451 25.45 90.6451 24.25C90.6451 24.1 90.6451 24 90.6451 23.95C90.6618 23.9 90.6701 23.8667 90.6701 23.85H93.5951V24.05C93.6118 24.7 93.8868 25.1833 94.4201 25.5C94.9701 25.8 95.6535 25.95 96.4701 25.95C97.2035 25.95 97.8285 25.8333 98.3451 25.6C98.8618 25.35 99.1201 24.9833 99.1201 24.5C99.1201 24.1167 98.9785 23.8083 98.6951 23.575C98.4118 23.325 98.0618 23.1333 97.6451 23C97.2285 22.85 96.6368 22.6833 95.8701 22.5C94.8368 22.25 93.9868 22 93.3201 21.75C92.6701 21.5 92.1118 21.1083 91.6451 20.575C91.1785 20.0417 90.9451 19.3417 90.9451 18.475C90.9451 17.225 91.4618 16.2583 92.4951 15.575C93.5285 14.8917 94.8701 14.55 96.5201 14.55C97.5368 14.55 98.4451 14.7 99.2451 15C100.045 15.3 100.662 15.725 101.095 16.275C101.545 16.8083 101.77 17.425 101.77 18.125L101.745 18.675H98.8201V18.575C98.8201 18.0583 98.6035 17.6583 98.1701 17.375C97.7535 17.075 97.1451 16.925 96.3451 16.925C95.5618 16.925 94.9701 17.05 94.5701 17.3C94.1701 17.5333 93.9701 17.8417 93.9701 18.225C93.9701 18.6917 94.2118 19.0417 94.6951 19.275C95.1951 19.4917 95.9535 19.7083 96.9701 19.925C98.0701 20.175 98.9535 20.4333 99.6201 20.7C100.303 20.95 100.895 21.35 101.395 21.9C101.895 22.45 102.145 23.1917 102.145 24.125C102.145 25.575 101.62 26.6333 100.57 27.3C99.5368 27.9667 98.1285 28.3 96.3451 28.3ZM108.123 28.3C107.006 28.3 106.198 27.9917 105.698 27.375C105.215 26.7417 104.973 25.9583 104.973 25.025V17.3H103.373V14.85H105.023L105.573 11.175H107.973V14.85H110.223V17.3H107.973V24.725C107.973 25.475 108.331 25.85 109.048 25.85H110.223V27.9C109.956 28 109.623 28.0917 109.223 28.175C108.823 28.2583 108.456 28.3 108.123 28.3Z" fill="#013943"/>
<path d="M117.059 28.3C115.393 28.3 114.101 27.7333 113.184 26.6C112.268 25.4667 111.809 23.7333 111.809 21.4C111.809 19.1333 112.268 17.425 113.184 16.275C114.101 15.125 115.326 14.55 116.859 14.55C118.693 14.55 120.009 15.1583 120.809 16.375H120.959V9.925H123.959V28H121.484L121.234 26.25H121.084C120.651 26.9167 120.084 27.425 119.384 27.775C118.684 28.125 117.909 28.3 117.059 28.3ZM117.959 25.725C118.993 25.725 119.751 25.3833 120.234 24.7C120.718 24 120.959 22.9667 120.959 21.6V21.3C120.959 18.5167 119.959 17.125 117.959 17.125C116.859 17.125 116.076 17.4583 115.609 18.125C115.143 18.775 114.909 19.825 114.909 21.275V21.6C114.909 23.0333 115.143 24.0833 115.609 24.75C116.076 25.4 116.859 25.725 117.959 25.725ZM133.104 28.3C130.937 28.3 129.312 27.7417 128.229 26.625C127.162 25.5083 126.629 23.775 126.629 21.425C126.629 19.075 127.162 17.3417 128.229 16.225C129.312 15.1083 130.937 14.55 133.104 14.55C135.271 14.55 136.887 15.1083 137.954 16.225C139.037 17.3417 139.579 19.075 139.579 21.425C139.579 23.775 139.037 25.5083 137.954 26.625C136.887 27.7417 135.271 28.3 133.104 28.3ZM133.104 25.85C134.287 25.85 135.146 25.5083 135.679 24.825C136.212 24.125 136.479 23.05 136.479 21.6V21.25C136.479 19.8 136.212 18.7333 135.679 18.05C135.146 17.35 134.287 17 133.104 17C131.904 17 131.037 17.35 130.504 18.05C129.987 18.7333 129.729 19.8 129.729 21.25V21.6C129.729 23.05 129.987 24.125 130.504 24.825C131.037 25.5083 131.904 25.85 133.104 25.85ZM147.524 28.3C145.457 28.3 143.924 27.7417 142.924 26.625C141.924 25.5083 141.424 23.775 141.424 21.425C141.424 19.075 141.924 17.3417 142.924 16.225C143.941 15.1083 145.474 14.55 147.524 14.55C149.307 14.55 150.682 14.9917 151.649 15.875C152.616 16.7583 153.099 18.0583 153.099 19.775H150.049C150.049 18.8417 149.841 18.1417 149.424 17.675C149.007 17.2083 148.357 16.975 147.474 16.975C146.441 16.975 145.682 17.3333 145.199 18.05C144.716 18.75 144.474 19.8333 144.474 21.3V21.6C144.474 23.0667 144.716 24.15 145.199 24.85C145.699 25.5333 146.499 25.875 147.599 25.875C148.449 25.875 149.091 25.6333 149.524 25.15C149.974 24.6667 150.199 23.975 150.199 23.075H153.099C153.099 24.725 152.607 26.0083 151.624 26.925C150.657 27.8417 149.291 28.3 147.524 28.3ZM160.652 28.3C158.835 28.3 157.427 27.925 156.427 27.175C155.443 26.425 154.952 25.45 154.952 24.25C154.952 24.1 154.952 24 154.952 23.95C154.968 23.9 154.977 23.8667 154.977 23.85H157.902V24.05C157.918 24.7 158.193 25.1833 158.727 25.5C159.277 25.8 159.96 25.95 160.777 25.95C161.51 25.95 162.135 25.8333 162.652 25.6C163.168 25.35 163.427 24.9833 163.427 24.5C163.427 24.1167 163.285 23.8083 163.002 23.575C162.718 23.325 162.368 23.1333 161.952 23C161.535 22.85 160.943 22.6833 160.177 22.5C159.143 22.25 158.293 22 157.627 21.75C156.977 21.5 156.418 21.1083 155.952 20.575C155.485 20.0417 155.252 19.3417 155.252 18.475C155.252 17.225 155.768 16.2583 156.802 15.575C157.835 14.8917 159.177 14.55 160.827 14.55C161.843 14.55 162.752 14.7 163.552 15C164.352 15.3 164.968 15.725 165.402 16.275C165.852 16.8083 166.077 17.425 166.077 18.125L166.052 18.675H163.127V18.575C163.127 18.0583 162.91 17.6583 162.477 17.375C162.06 17.075 161.452 16.925 160.652 16.925C159.868 16.925 159.277 17.05 158.877 17.3C158.477 17.5333 158.277 17.8417 158.277 18.225C158.277 18.6917 158.518 19.0417 159.002 19.275C159.502 19.4917 160.26 19.7083 161.277 19.925C162.377 20.175 163.26 20.4333 163.927 20.7C164.61 20.95 165.202 21.35 165.702 21.9C166.202 22.45 166.452 23.1917 166.452 24.125C166.452 25.575 165.927 26.6333 164.877 27.3C163.843 27.9667 162.435 28.3 160.652 28.3Z" fill="#39A1B2"/>
<path d="M15.3086 4.85235L21.3623 1L27.1408 4.85235" stroke="#39A1B2" stroke-width="2" stroke-linecap="round" stroke-linejoin="round"/>
<path d="M27.1406 34.5705L21.0869 38.4229L15.3084 34.5705" stroke="#39A1B2" stroke-width="2" stroke-linecap="round" stroke-linejoin="round"/>
<path d="M7.32886 11.4563L1 16.1342V23.5637L7.32886 27.9664" stroke="#39A1B2" stroke-width="2" stroke-linecap="round" stroke-linejoin="round"/>
<path d="M35.6711 27.9666L42 23.2887L42 15.8592L35.6711 11.4565" stroke="#39A1B2" stroke-width="2" stroke-linecap="round" stroke-linejoin="round"/>
<path d="M28 26.625V25C28 24.138 27.6576 23.3114 27.0481 22.7019C26.4386 22.0924 25.612 21.75 24.75 21.75H18.25C17.388 21.75 16.5614 22.0924 15.9519 22.7019C15.3424 23.3114 15 24.138 15 25V26.625" stroke="#39A1B2" stroke-width="1.5" stroke-linecap="round" stroke-linejoin="round"/>
<path d="M21.4961 18.5C23.291 18.5 24.7461 17.0449 24.7461 15.25C24.7461 13.4551 23.291 12 21.4961 12C19.7012 12 18.2461 13.4551 18.2461 15.25C18.2461 17.0449 19.7012 18.5 21.4961 18.5Z" stroke="#39A1B2" stroke-width="1.5" stroke-linecap="round" stroke-linejoin="round"/>
</svg>
