<svg width="233" height="232" viewBox="0 0 233 232" fill="none" xmlns="http://www.w3.org/2000/svg">
<path d="M90.5379 170.016C94.0088 170.307 97.489 170.533 100.951 170.91C105.575 171.418 107.78 169.828 108.755 165.104C108.755 164.135 108.755 163.166 108.755 162.197C107.761 158.453 109.543 155.197 110.594 151.829C111.147 150.06 112.63 149.863 113.98 150.493C115.978 151.424 119.843 150.07 119.843 152.591C119.843 155.404 121.419 157.568 121.41 160.174L121.588 160.344C121.898 160.287 122.31 160.08 122.498 160.203C129.515 164.832 136.306 160.099 143.145 159.553C147.685 159.196 152.179 159.186 156.663 159.45C162.779 159.807 168.876 159.262 174.833 158.424C184.007 157.135 190.705 151.49 195.246 143.578C196.296 141.752 197.581 140.021 198.491 138.017C204.185 125.447 201.887 112.783 199.026 100.232C198.05 95.9421 197.722 91.2002 194.692 87.5309C189.814 78.5551 182.422 72.2796 173.238 68.2433C165.593 64.8845 157.995 61.281 149.721 59.5498C143.38 58.2232 139.365 53.2461 139.299 46.8577C139.28 44.7031 140.894 43.5271 142.057 42.1534C147.244 36.019 147.648 32.3121 143.67 25.5097C141.466 24.4465 139.261 23.3833 137.066 22.3296C135.171 21.5957 131.504 23.5809 132.085 19.0648C132.648 14.7181 130.453 11.9331 126.063 11.7167C123.258 11.5756 120.397 11.3968 117.648 11.8014C111.419 12.714 106.954 9.04471 102.076 6.33504C101.598 6.15628 101.129 5.98693 100.65 5.81757C99.4402 5.92107 98.3145 5.7329 97.4515 4.75441C96.0632 4.43451 94.6748 4.11462 93.2865 3.79473C91.0351 4.03936 89.0933 3.3149 87.3766 1.86598C85.5474 1.59313 83.7181 1.31087 81.8889 1.03803C81.4667 0.962758 81.0352 0.878081 80.6131 0.802813C72.6489 0.774587 64.694 -0.87191 56.7298 0.633459C56.0074 2.96678 54.5534 2.327 53.0713 1.52727C51.5141 2.14824 49.9006 2.43049 48.2215 2.23291C46.7581 4.18989 44.1314 4.3122 42.4335 5.87402C41.2328 6.98423 39.6099 7.91568 39.9664 9.99497C41.805 9.67508 43.7844 9.70331 45.4541 8.98826C57.7147 3.67242 70.3224 4.61328 83.1178 6.25037C98.1644 8.17912 111.785 12.7235 122.16 24.5688C124.046 26.7234 126.869 26.6199 129.609 26.3376C132.188 26.0648 134.937 25.3686 137.01 27.8336C142.329 28.4546 143.999 31.8887 140.987 36.1225C139.055 38.8416 136.175 40.3282 133.276 41.7488C132.676 45.4935 134.074 48.777 135.594 52.0418C136.185 53.312 137.517 54.9585 137.141 55.824C135.2 60.2837 138.783 60.3213 141.109 61.0458C150.556 63.953 160.199 66.1452 168.951 71.16C178.979 76.8992 188.219 83.3629 192.872 94.4273C196.943 104.099 197.91 114.308 197.356 124.789C196.409 142.787 186.184 153.682 168.614 155.884C159.702 157.004 150.865 155.141 141.991 156.307C138.276 156.797 134.899 158.678 131.063 158.547C127.836 158.434 126.072 156.637 125.706 153.739C125.294 150.399 128.202 150.709 130.228 150.427C136.71 149.524 143.258 148.969 149.693 147.811C152.16 147.369 156.813 147.445 156.344 144.669C155.931 142.204 151.728 144.217 149.289 144.631C141.503 145.949 135.565 141.705 134.674 133.953C132.395 114.082 153.098 94.9919 172.432 99.1222C173.041 99.2539 173.661 99.3762 174.28 99.3668C175.03 99.3574 175.94 99.4045 176.193 98.4542C176.437 97.5322 175.781 96.9677 175.039 96.6854C172.432 95.7069 169.908 94.5685 167 94.465C156.897 94.1075 149.177 98.8776 141.935 105.294C131.232 114.778 127.038 132.635 134.13 143.023C135.856 145.553 134.346 146.466 132.085 146.617C127.883 146.899 123.671 147.125 119.459 147.143C113.267 147.162 113.286 147.078 114.843 141.028C115.2 139.664 115.678 138.055 113.727 137.556C111.851 137.076 111.551 138.478 111.1 139.965C110.425 142.185 109.994 144.481 108.643 146.513C105.819 150.747 104.253 155.395 104.131 160.569C103.962 167.72 103.324 168.153 96.5041 166.61C95.8943 166.469 95.3127 166.243 94.703 166.083C89.1496 164.672 88.7556 163.289 91.7386 158.368C95.6786 151.857 98.6241 145.008 96.7667 137.076C96.4009 135.524 96.0069 133.708 94.0838 133.736C91.9169 133.765 92.7424 135.778 92.536 137.02C92.0201 140.153 90.7631 141.367 87.9019 139.024C87.3016 138.535 86.5792 138.196 85.9038 137.81C68.2305 127.762 60.6415 111.739 60.9886 92.2069C61.1105 85.5551 61.8329 78.9879 60.6697 72.3737C60.3976 70.8307 60.8385 69.5135 62.8366 69.5793C63.7184 69.6076 64.9004 70.1721 65.2287 68.949C65.5758 67.6788 64.3188 67.0108 63.5214 66.3898C57.893 61.9866 52.0206 57.8845 46.5704 53.2743C32.5275 41.4007 32.4243 37.976 36.0453 24.4277C36.8426 21.4452 37.9026 17.4842 42.6587 20.4761C43.578 21.0594 44.5161 21.0877 44.9476 19.9492C45.3697 18.8202 44.9851 17.2302 43.8875 17.249C39.0002 17.3431 39.7975 13.495 39.0471 10.6912C34.2535 12.1966 33.6813 16.2987 33.5218 20.335C33.3905 23.6468 32.7151 26.6763 31.7489 29.847C29.9103 35.8591 31.5988 41.5795 35.2667 46.5566C39.9289 52.8792 45.9326 57.8281 52.3396 62.2595C54.5159 63.7649 55.3133 65.7124 56.1857 68.2245C60.6603 81.1613 57.6772 94.4744 58.6903 107.562C61.861 112.906 61.4483 119.689 65.5476 124.666C65.9416 125.146 66.1199 125.795 66.5232 126.256C68.9998 129.117 72.3674 131.582 70.6508 136.201C68.3337 142.458 67.5739 149.58 61.1012 153.541C58.9905 160.522 63.2681 165.575 71.5419 165.547C73.3243 165.547 75.1535 165.612 77.039 165.086C79.675 164.352 80.6225 163.166 80.3598 160.494C79.8157 155.065 82.1984 150.549 84.9939 146.137C86.3541 143.992 88.1646 144.142 89.825 144.942C91.3728 145.685 91.9825 147.059 91.5979 149.213C90.9225 153.09 88.9338 156.26 86.7575 159.168C84.3842 162.319 83.9057 164.549 87.5455 166.817C88.1083 167.165 88.2865 168.134 88.643 168.811C89.4685 168.915 90.219 169.16 90.5379 170.053V170.016ZM71.3356 160.701C68.315 161.049 66.5702 160.391 65.3413 158.848C64.103 157.295 65.4445 155.94 66.073 154.567C68.39 149.524 71.6076 144.885 72.8271 139.344C73.0522 138.328 73.4744 136.841 74.7408 137.076C77.2266 137.537 79.2435 139.174 81.0446 140.868C82.7331 142.449 81.2979 144.048 80.5381 145.506C78.9433 148.555 77.1891 151.613 77.0203 155.075C76.7951 159.591 74.328 160.993 71.3262 160.701H71.3356ZM121.738 14.7463C123.671 15.1415 126.522 13.8713 126.701 17.3054C126.804 19.2906 125.218 20.6549 123.474 20.542C120.875 20.3726 118.68 18.1898 118.183 16.1293C117.686 14.0501 120.481 15.2355 121.738 14.7463Z" fill="#7E3E0F"/>
<path d="M94.4735 23.9659C93.3637 23.9094 92.3292 23.7588 91.7837 24.7096C91.1912 25.7356 92.1317 26.3663 92.6207 27.1288C96.3075 32.8708 98.4612 33.8969 101.95 31.6471C104.452 30.0375 104.791 28.4278 102.167 26.724C99.7779 25.1802 97.1069 24.3519 94.4735 23.9659Z" fill="#7E3E0F"/>
<path d="M130.833 39.1778C132.798 37.8882 134.463 35.9961 132.996 33.8499C131.105 31.0824 131.717 30.1599 134.661 29.5293C135.441 29.3598 136.062 28.4185 136.758 27.8349C135.535 27.7219 134.313 27.5148 133.09 27.5242C130.56 27.5431 127.306 30.367 127.56 30.6683C129.666 33.2192 125.735 38.0765 130.833 39.1778Z" fill="#7E3E0F"/>
<path d="M15.8973 224.019C10.7431 224.019 6.797 222.688 4.05887 220.028C1.35296 217.336 0 213.187 0 207.581C0 202.133 1.30464 198.015 3.91391 195.228C6.52319 192.409 10.5176 191 15.8973 191C17.6046 191 19.328 191.206 21.0675 191.618C22.807 192.029 24.4982 192.599 26.1411 193.328V200.027C24.466 198.95 22.8553 198.174 21.3091 197.699C19.7629 197.224 18.3133 196.986 16.9603 196.986C15.0597 196.986 13.449 197.319 12.1283 197.984C10.8398 198.649 9.84116 199.757 9.13247 201.309C8.45599 202.861 8.11775 204.952 8.11775 207.581C8.11775 210.209 8.45599 212.284 9.13247 213.804C9.84116 215.324 10.872 216.417 12.2249 217.082C13.6101 217.716 15.3013 218.032 17.2985 218.032C18.4904 218.032 19.8434 217.811 21.3574 217.367C22.8714 216.924 24.466 216.164 26.1411 215.087V221.786C25.2391 222.229 24.2083 222.625 23.0486 222.973C21.9211 223.29 20.7293 223.543 19.4729 223.733C18.2488 223.924 17.0569 224.019 15.8973 224.019Z" fill="#7E3E0F"/>
<path d="M48.5075 224.114C47.0257 224.114 45.6245 223.971 44.3037 223.686C43.0152 223.433 41.8716 223.005 40.873 222.403C39.9066 221.77 39.1496 220.93 38.602 219.885C38.0543 218.808 37.7805 217.478 37.7805 215.895C37.7805 214.406 38.0866 213.107 38.6986 211.999C39.3429 210.89 40.3093 210.035 41.5978 209.433C42.8863 208.832 44.5131 208.531 46.4781 208.531C47.5734 208.531 48.6364 208.642 49.6672 208.863C50.6981 209.085 51.6161 209.386 52.4215 209.766C53.259 210.146 53.9194 210.558 54.4026 211.001L54.6925 214.422C54.0482 214.042 53.2751 213.741 52.3731 213.519C51.4712 213.297 50.5048 213.187 49.4739 213.187C47.8955 213.187 46.7358 213.424 45.9949 213.899C45.2862 214.343 44.9319 215.055 44.9319 216.037C44.9319 216.639 45.109 217.177 45.4634 217.652C45.8177 218.127 46.2848 218.492 46.8647 218.745C47.4767 218.998 48.1049 219.125 48.7491 219.125C50.392 219.125 51.5356 219.014 52.1799 218.793C52.8563 218.571 53.1946 218.127 53.1946 217.462V208.626C53.1946 207.169 52.7114 206.124 51.745 205.49C50.8108 204.825 49.4739 204.492 47.7344 204.492C46.317 204.492 44.8836 204.746 43.434 205.253C42.0166 205.728 40.8569 206.314 39.9549 207.01V200.739C40.7925 200.233 42.081 199.757 43.8205 199.314C45.5922 198.871 47.5734 198.649 49.7639 198.649C50.537 198.649 51.3906 198.712 52.3248 198.839C53.259 198.966 54.1932 199.203 55.1274 199.552C56.0616 199.868 56.9152 200.343 57.6883 200.977C58.4937 201.61 59.1379 202.418 59.6211 203.4C60.1043 204.382 60.3459 205.601 60.3459 207.058L60.2976 218.413C60.2976 219.774 59.8305 220.883 58.8963 221.738C57.9621 222.562 56.6092 223.163 54.8375 223.543C53.0979 223.924 50.988 224.114 48.5075 224.114Z" fill="#7E3E0F"/>
<path d="M87.1763 224.114C86.6931 224.114 85.9844 224.066 85.0503 223.971C84.1161 223.876 83.1497 223.67 82.1511 223.353C81.1524 223.005 80.2988 222.482 79.5901 221.786L81.0397 219.553V232H73.985V204.445C73.985 203.4 74.291 202.513 74.9031 201.784C75.5151 201.056 76.3527 200.454 77.4157 199.979C78.4787 199.504 79.7028 199.156 81.088 198.934C82.5054 198.681 84.0194 198.554 85.6301 198.554C88.0783 198.554 90.2205 198.966 92.0566 199.789C93.925 200.581 95.3746 201.927 96.4054 203.827C97.4685 205.728 98 208.325 98 211.619C98 214.089 97.5651 216.275 96.6954 218.175C95.8256 220.044 94.5854 221.501 92.9747 222.546C91.3963 223.591 89.4635 224.114 87.1763 224.114ZM85.0503 218.413C86.3388 218.413 87.4018 218.191 88.2394 217.747C89.0769 217.304 89.7051 216.576 90.1238 215.562C90.5748 214.517 90.8003 213.123 90.8003 211.381C90.8003 209.924 90.6393 208.689 90.3171 207.676C89.995 206.662 89.4313 205.886 88.6259 205.348C87.8528 204.778 86.7576 204.492 85.3402 204.492C83.7939 204.492 82.6826 204.651 82.0061 204.968C81.3618 205.253 81.0397 205.633 81.0397 206.108V217.415C81.6517 217.763 82.3282 218.017 83.0691 218.175C83.81 218.333 84.4704 218.413 85.0503 218.413Z" fill="#7E3E0F"/>
<path d="M107 223.296V192H119.875C125.32 192 129.323 193.329 131.885 195.988C134.448 198.616 135.729 202.51 135.729 207.672C135.729 212.802 134.448 216.696 131.885 219.355C129.323 221.982 125.32 223.296 119.875 223.296H107ZM114.783 217.431H118.962C121.845 217.431 124.023 216.649 125.496 215.085C127.001 213.521 127.754 211.05 127.754 207.672C127.754 204.231 127.001 201.744 125.496 200.211C124.023 198.647 121.845 197.865 118.962 197.865H114.783V217.431Z" fill="#0C3459"/>
<path d="M159.074 224C154.974 224 151.884 222.936 149.802 220.809C147.752 218.651 146.727 215.492 146.727 211.331C146.727 206.858 147.768 203.652 149.85 201.713C151.964 199.742 155.038 198.757 159.074 198.757C161.796 198.757 164.07 199.21 165.896 200.117C167.753 200.993 169.147 202.354 170.075 204.199C171.036 206.045 171.517 208.422 171.517 211.331C171.517 215.492 170.444 218.651 168.298 220.809C166.152 222.936 163.077 224 159.074 224ZM159.074 218.416C160.259 218.416 161.236 218.151 162.004 217.619C162.805 217.056 163.398 216.258 163.782 215.226C164.198 214.162 164.407 212.864 164.407 211.331C164.407 209.58 164.198 208.203 163.782 207.202C163.398 206.17 162.805 205.435 162.004 204.997C161.204 204.528 160.227 204.293 159.074 204.293C157.857 204.293 156.864 204.528 156.095 204.997C155.327 205.466 154.75 206.217 154.366 207.249C154.014 208.25 153.837 209.611 153.837 211.331C153.837 213.709 154.254 215.492 155.087 216.68C155.951 217.838 157.28 218.416 159.074 218.416Z" fill="#0C3459"/>
<path d="M195.049 223.906C193.32 223.906 191.687 223.656 190.149 223.155C188.612 222.655 187.251 221.904 186.066 220.903C184.881 219.902 183.952 218.635 183.279 217.103C182.607 215.57 182.27 213.787 182.27 211.754C182.27 209.595 182.591 207.718 183.231 206.123C183.872 204.497 184.753 203.152 185.874 202.088C187.027 201.024 188.372 200.227 189.909 199.695C191.446 199.163 193.144 198.897 195.001 198.897C196.315 198.897 197.66 199.038 199.037 199.32C200.446 199.57 201.679 199.93 202.736 200.399V206.405C201.615 205.904 200.51 205.498 199.421 205.185C198.364 204.841 197.275 204.669 196.154 204.669C194.137 204.669 192.503 205.169 191.254 206.17C190.037 207.14 189.429 208.735 189.429 210.956C189.429 213.302 189.973 215.069 191.062 216.258C192.151 217.447 193.961 218.041 196.491 218.041C197.676 218.041 198.813 217.838 199.902 217.431C201.023 217.024 201.983 216.602 202.784 216.164V222.123C201.663 222.686 200.494 223.124 199.277 223.437C198.06 223.75 196.651 223.906 195.049 223.906Z" fill="#0C3459"/>
<path d="M222.191 224C220.461 224 218.972 223.812 217.723 223.437C216.506 223.093 215.353 222.702 214.264 222.264V216.117C214.936 216.555 215.689 217.009 216.522 217.478C217.354 217.916 218.267 218.276 219.26 218.557C220.285 218.839 221.358 218.979 222.479 218.979C223.632 218.979 224.433 218.792 224.881 218.416C225.361 218.01 225.602 217.525 225.602 216.962C225.602 216.43 225.361 216.008 224.881 215.695C224.401 215.351 223.776 215.069 223.007 214.85C222.239 214.631 221.422 214.428 220.557 214.24C219.789 214.084 219.02 213.849 218.251 213.537C217.483 213.193 216.794 212.739 216.185 212.176C215.577 211.613 215.081 210.925 214.696 210.111C214.344 209.267 214.168 208.25 214.168 207.062C214.168 205.529 214.472 204.262 215.081 203.261C215.689 202.229 216.49 201.4 217.483 200.774C218.475 200.149 219.548 199.711 220.701 199.46C221.854 199.179 222.975 199.054 224.064 199.085C226.05 199.148 227.619 199.367 228.772 199.742C229.957 200.086 231.03 200.54 231.991 201.103V206.592C230.902 205.998 229.813 205.451 228.724 204.95C227.667 204.418 226.45 204.152 225.073 204.152C223.824 204.152 222.927 204.34 222.383 204.716C221.838 205.091 221.566 205.591 221.566 206.217C221.566 206.811 221.742 207.281 222.095 207.625C222.479 207.969 222.975 208.25 223.584 208.469C224.192 208.657 224.865 208.845 225.602 209.032C226.402 209.22 227.219 209.455 228.052 209.736C228.916 209.986 229.717 210.362 230.454 210.862C231.222 211.331 231.831 212.004 232.279 212.88C232.76 213.724 233 214.85 233 216.258C232.968 218.166 232.44 219.699 231.415 220.856C230.39 221.982 229.061 222.796 227.427 223.296C225.826 223.765 224.08 224 222.191 224Z" fill="#0C3459"/>
</svg>
