<svg width="38" height="42" viewBox="0 0 38 42" fill="none" xmlns="http://www.w3.org/2000/svg">
<path d="M22 12V0H10C8.93913 0 7.92172 0.421427 7.17157 1.17157C6.42143 1.92172 6 2.93913 6 4V18.996C7.58427 18.3362 9.28382 17.9976 11 18C12.7191 17.9979 14.4215 18.3378 16.008 19H29.5C29.8978 19 30.2794 19.158 30.5607 19.4393C30.842 19.7206 31 20.1022 31 20.5C31 20.8978 30.842 21.2794 30.5607 21.5607C30.2794 21.842 29.8978 22 29.5 22H20.38C21.102 22.752 21.736 23.592 22.26 24.5H29.5C29.8978 24.5 30.2794 24.658 30.5607 24.9393C30.842 25.2206 31 25.6022 31 26C31 26.3978 30.842 26.7794 30.5607 27.0607C30.2794 27.342 29.8978 27.5 29.5 27.5H23.524C23.748 28.304 23.896 29.14 23.964 30H29.5C29.8978 30 30.2794 30.158 30.5607 30.4393C30.842 30.7206 31 31.1022 31 31.5C31 31.8978 30.842 32.2794 30.5607 32.5607C30.2794 32.842 29.8978 33 29.5 33H23.848C23.4395 35.6345 22.2285 38.0789 20.38 40H34C35.0609 40 36.0783 39.5786 36.8284 38.8284C37.5786 38.0783 38 37.0609 38 36V16H26C24.9391 16 23.9217 15.5786 23.1716 14.8284C22.4214 14.0783 22 13.0609 22 12ZM25 12V1L37 13H26C25.7348 13 25.4804 12.8946 25.2929 12.7071C25.1054 12.5196 25 12.2652 25 12ZM22 31C22 29.5555 21.7155 28.1251 21.1627 26.7905C20.6099 25.4559 19.7996 24.2433 18.7782 23.2218C17.7567 22.2004 16.5441 21.3901 15.2095 20.8373C13.8749 20.2845 12.4445 20 11 20C9.55546 20 8.12506 20.2845 6.79048 20.8373C5.4559 21.3901 4.24327 22.2004 3.22183 23.2218C2.20038 24.2433 1.39013 25.4559 0.837325 26.7905C0.284523 28.1251 -2.15253e-08 29.5555 0 31C4.34724e-08 33.9174 1.15893 36.7153 3.22183 38.7782C5.28473 40.8411 8.08262 42 11 42C13.9174 42 16.7153 40.8411 18.7782 38.7782C20.8411 36.7153 22 33.9174 22 31ZM11 31H15C15.2652 31 15.5196 31.1054 15.7071 31.2929C15.8946 31.4804 16 31.7348 16 32C16 32.2652 15.8946 32.5196 15.7071 32.7071C15.5196 32.8946 15.2652 33 15 33H10C9.73478 33 9.48043 32.8946 9.29289 32.7071C9.10536 32.5196 9 32.2652 9 32V26C9 25.7348 9.10536 25.4804 9.29289 25.2929C9.48043 25.1054 9.73478 25 10 25C10.2652 25 10.5196 25.1054 10.7071 25.2929C10.8946 25.4804 11 25.7348 11 26V31Z" fill="#0C3459"/>
</svg>
