<svg width="40" height="40" viewBox="0 0 40 40" fill="none" xmlns="http://www.w3.org/2000/svg">
<path d="M20 0C31.046 0 40 8.954 40 20C40 31.046 31.046 40 20 40C8.954 40 0 31.046 0 20C0 8.954 8.954 0 20 0ZM26.44 13.94L17.5 22.88L13.56 18.94C13.2756 18.675 12.8996 18.5308 12.511 18.5376C12.1224 18.5445 11.7516 18.7019 11.4768 18.9768C11.2019 19.2516 11.0445 19.6224 11.0376 20.011C11.0308 20.3996 11.175 20.7756 11.44 21.06L16.44 26.06C16.7212 26.3409 17.1025 26.4987 17.5 26.4987C17.8975 26.4987 18.2787 26.3409 18.56 26.06L28.56 16.06C28.7074 15.9227 28.8256 15.7571 28.9076 15.5731C28.9895 15.3891 29.0336 15.1904 29.0372 14.989C29.0407 14.7876 29.0037 14.5876 28.9282 14.4008C28.8528 14.214 28.7405 14.0444 28.5981 13.9019C28.4556 13.7595 28.286 13.6472 28.0992 13.5718C27.9124 13.4963 27.7124 13.4593 27.511 13.4628C27.3095 13.4664 27.1109 13.5105 26.9269 13.5924C26.7429 13.6744 26.5773 13.7926 26.44 13.94Z" fill="#0C3459"/>
</svg>
