<svg width="30" height="39" viewBox="0 0 30 39" fill="none" xmlns="http://www.w3.org/2000/svg">
<path d="M29.25 9.80469C29.25 9.35938 29.0273 8.91406 28.7305 8.54297L21.457 1.26953C21.0859 0.972656 20.6406 0.75 20.1953 0.75H19.75V10.25H29.25V9.80469ZM19.1562 12.625C18.1172 12.625 17.375 11.8828 17.375 10.8438V0.75H2.53125C1.49219 0.75 0.75 1.56641 0.75 2.53125V36.9688C0.75 38.0078 1.49219 38.75 2.53125 38.75H27.4688C28.4336 38.75 29.25 38.0078 29.25 36.9688V12.625H19.1562ZM18.3398 24.5L21.9023 28.1367C22.2734 28.4336 22.2734 29.0273 21.9023 29.3984L19.8242 31.4766C19.4531 31.8477 18.8594 31.8477 18.5625 31.4766L15 27.9141L11.3633 31.4766C11.0664 31.8477 10.4727 31.8477 10.1016 31.4766L8.02344 29.3984C7.65234 29.0273 7.65234 28.4336 8.02344 28.1367L11.5859 24.5L8.02344 20.9375C7.65234 20.6406 7.65234 20.0469 8.02344 19.6758L10.1016 17.5977C10.4727 17.2266 11.0664 17.2266 11.3633 17.5977L15 21.1602L18.5625 17.5977C18.8594 17.2266 19.4531 17.2266 19.8242 17.5977L21.9023 19.6758C22.2734 20.0469 22.2734 20.6406 21.9023 20.9375L18.3398 24.5Z" fill="#0C3459"/>
</svg>
